GeoramaSemiCondensed-SemiBold.ufo
<glyph name="exclam" format="2">
  <advance width="202.18"/>
  <unicode hex="0021"/>
  <outline>
    <contour>
      <point x="49.29" y="261.25" type="line"/>
      <point x="152.78000000000003" y="261.25" type="line"/>
      <point x="162.01999999999998" y="740.0" type="line"/>
      <point x="41.37" y="740.0" type="line"/>
    </contour>
    <contour>
      <point x="35.669999999999995" y="66.06" type="curve" smooth="yes"/>
      <point x="35.669999999999995" y="16.290000000000003"/>
      <point x="53.47999999999999" y="-5.61"/>
      <point x="101.09" y="-5.61" type="curve" smooth="yes"/>
      <point x="149.15" y="-5.61"/>
      <point x="166.51000000000005" y="16.290000000000003"/>
      <point x="166.51000000000005" y="66.06" type="curve" smooth="yes"/>
      <point x="166.51000000000005" y="116.38000000000001"/>
      <point x="149.15" y="138.28"/>
      <point x="101.09" y="138.28" type="curve" smooth="yes"/>
      <point x="53.03" y="138.28"/>
      <point x="35.669999999999995" y="116.38000000000001"/>
    </contour>
  </outline>
</glyph>
<glyph name="numbersign" format="2">
  <advance width="483.36"/>
  <unicode hex="0023"/>
  <outline>
    <contour>
      <point x="55.02000000000001" y="433.77" type="line"/>
      <point x="116.36" y="433.77" type="line"/>
      <point x="93.22999999999999" y="260.77000000000004" type="line"/>
      <point x="33.089999999999996" y="260.77000000000004" type="line"/>
      <point x="33.089999999999996" y="164.17" type="line"/>
      <point x="84.27000000000001" y="164.17" type="line"/>
      <point x="64.68" y="0.0" type="line"/>
      <point x="162.78" y="0.0" type="line"/>
      <point x="182.37000000000003" y="164.17" type="line"/>
      <point x="260.96000000000004" y="164.17" type="line"/>
      <point x="241.37" y="0.0" type="line"/>
      <point x="339.47" y="0.0" type="line"/>
      <point x="359.06" y="164.17" type="line"/>
      <point x="428.45000000000005" y="164.17" type="line"/>
      <point x="428.45000000000005" y="260.77000000000004" type="line"/>
      <point x="368.02000000000004" y="260.77000000000004" type="line"/>
      <point x="391.15" y="433.77" type="line"/>
      <point x="450.38" y="433.77" type="line"/>
      <point x="450.38" y="531.03" type="line"/>
      <point x="400.27" y="531.03" type="line"/>
      <point x="420.73" y="700.0" type="line"/>
      <point x="322.63" y="700.0" type="line"/>
      <point x="302.17" y="531.03" type="line"/>
      <point x="223.58" y="531.03" type="line"/>
      <point x="244.03999999999996" y="700.0" type="line"/>
      <point x="145.94" y="700.0" type="line"/>
      <point x="125.48" y="531.03" type="line"/>
      <point x="55.02000000000001" y="531.03" type="line"/>
    </contour>
    <contour>
      <point x="214.46" y="433.77" type="line"/>
      <point x="293.04999999999995" y="433.77" type="line"/>
      <point x="269.92" y="260.77000000000004" type="line"/>
      <point x="191.33" y="260.77000000000004" type="line"/>
    </contour>
  </outline>
</glyph>
<glyph name="dollar" format="2">
  <advance width="483.36"/>
  <unicode hex="0024"/>
  <outline>
    <contour>
      <point x="216.84" y="-10.0" type="curve" smooth="yes"/>
      <point x="345.04" y="-11.3"/>
      <point x="445.23999999999995" y="42.400000000000006"/>
      <point x="445.23999999999995" y="177.23999999999998" type="curve" smooth="yes"/>
      <point x="445.23999999999995" y="294.20000000000005"/>
      <point x="374.12" y="349.40000000000003"/>
      <point x="292.64" y="395.24" type="curve" smooth="yes"/>
      <point x="221.77999999999997" y="435.3"/>
      <point x="170.72000000000003" y="468.52000000000004"/>
      <point x="170.72000000000003" y="529.62" type="curve" smooth="yes"/>
      <point x="170.72000000000003" y="577.06"/>
      <point x="203.26000000000002" y="601.8000000000001"/>
      <point x="266.20000000000005" y="601.8000000000001" type="curve" smooth="yes"/>
      <point x="311.18000000000006" y="601.8000000000001"/>
      <point x="360.6" y="593.14"/>
      <point x="398.8" y="579.08" type="curve"/>
      <point x="422.23999999999995" y="680.4" type="line"/>
      <point x="381.16" y="697.58"/>
      <point x="316.68" y="710.0"/>
      <point x="254.07999999999998" y="710.0" type="curve" smooth="yes"/>
      <point x="128.74" y="709.82"/>
      <point x="51.540000000000006" y="642.74"/>
      <point x="51.540000000000006" y="525.9399999999999" type="curve" smooth="yes"/>
      <point x="51.540000000000006" y="415.17999999999995"/>
      <point x="114.28" y="355.92"/>
      <point x="187.14" y="309.34" type="curve" smooth="yes"/>
      <point x="266.02" y="263.4"/>
      <point x="327.12000000000006" y="230.5"/>
      <point x="327.12000000000006" y="169.76" type="curve" smooth="yes"/>
      <point x="327.12000000000006" y="122.46000000000001"/>
      <point x="291.44" y="95.08000000000001"/>
      <point x="225.06" y="95.08000000000001" type="curve" smooth="yes"/>
      <point x="176.82000000000002" y="95.08000000000001"/>
      <point x="117.74" y="106.46"/>
      <point x="61.400000000000006" y="127.00000000000001" type="curve"/>
      <point x="38.32" y="26.44" type="line"/>
      <point x="86.72" y="5.520000000000001"/>
      <point x="156.74" y="-9.54"/>
    </contour>
    <contour>
      <point x="194.96" y="-105.0" type="line"/>
      <point x="297.0" y="-105.0" type="line"/>
      <point x="297.0" y="11.879999999999999" type="line"/>
      <point x="194.96" y="4.16" type="line"/>
    </contour>
    <contour>
      <point x="194.96" y="688.66" type="line"/>
      <point x="297.0" y="696.6200000000001" type="line"/>
      <point x="297.0" y="804.12" type="line"/>
      <point x="194.96" y="804.12" type="line"/>
    </contour>
  </outline>
</glyph>
<glyph name="ampersand" format="2">
  <advance width="565.83"/>
  <unicode hex="0026"/>
  <outline>
    <contour>
      <point x="432.19000000000005" y="-6.299999999999999" type="line"/>
      <point x="563.6600000000001" y="-1.3499999999999999" type="line"/>
      <point x="245.60000000000002" y="422.10999999999996" type="line" smooth="yes"/>
      <point x="213.67000000000002" y="465.13000000000005"/>
      <point x="201.81" y="498.71"/>
      <point x="201.81" y="530.07" type="curve" smooth="yes"/>
      <point x="201.81" y="579.83"/>
      <point x="224.35000000000005" y="605.52"/>
      <point x="268.55" y="605.52" type="curve" smooth="yes"/>
      <point x="310.93" y="605.52"/>
      <point x="330.63" y="579.16"/>
      <point x="330.63" y="531.86" type="curve" smooth="yes"/>
      <point x="330.63" y="497.03999999999996"/>
      <point x="322.36999999999995" y="471.30999999999995"/>
      <point x="299.26" y="451.04" type="curve"/>
      <point x="344.54999999999995" y="390.75999999999993" type="line"/>
      <point x="406.53999999999996" y="426.02"/>
      <point x="434.84" y="481.4899999999999"/>
      <point x="434.84" y="554.3599999999999" type="curve" smooth="yes"/>
      <point x="434.84" y="657.2699999999999"/>
      <point x="376.1" y="710.0"/>
      <point x="265.87999999999994" y="710.0" type="curve" smooth="yes"/>
      <point x="140.57999999999998" y="710.0"/>
      <point x="81.78999999999999" y="643.0200000000001"/>
      <point x="81.78999999999999" y="531.61" type="curve" smooth="yes"/>
      <point x="81.78999999999999" y="475.27000000000004"/>
      <point x="101.74000000000001" y="421.13000000000005"/>
      <point x="142.68" y="365.06000000000006" type="curve" smooth="yes"/>
    </contour>
    <contour>
      <point x="230.87999999999997" y="-10.0" type="curve" smooth="yes"/>
      <point x="303.01" y="-10.0"/>
      <point x="356.95000000000005" y="16.19"/>
      <point x="398.71000000000004" y="67.00999999999999" type="curve"/>
      <point x="344.64" y="142.92" type="line"/>
      <point x="323.87999999999994" y="107.58000000000003"/>
      <point x="295.85" y="86.84000000000002"/>
      <point x="244.95000000000002" y="86.84000000000002" type="curve" smooth="yes"/>
      <point x="178.92" y="86.84000000000002"/>
      <point x="135.2" y="133.27"/>
      <point x="135.2" y="199.66" type="curve" smooth="yes"/>
      <point x="135.2" y="256.13"/>
      <point x="155.33999999999997" y="290.10999999999996"/>
      <point x="197.16000000000005" y="322.89000000000004" type="curve"/>
      <point x="143.93" y="398.37000000000006" type="line"/>
      <point x="59.2" y="348.24"/>
      <point x="22.59" y="280.46999999999997"/>
      <point x="22.59" y="187.27" type="curve" smooth="yes"/>
      <point x="22.59" y="68.88"/>
      <point x="101.77000000000002" y="-10.0"/>
    </contour>
    <contour>
      <point x="459.44" y="118.19999999999999" type="line"/>
      <point x="493.12000000000006" y="173.02000000000004"/>
      <point x="514.1800000000001" y="237.18"/>
      <point x="514.1800000000001" y="308.63" type="curve" smooth="yes"/>
      <point x="514.1800000000001" y="330.53000000000003"/>
      <point x="512.73" y="348.06"/>
      <point x="509.85" y="366.54999999999995" type="curve"/>
      <point x="415.11" y="365.19999999999993" type="line"/>
      <point x="417.44" y="350.7"/>
      <point x="418.40000000000003" y="337.38999999999993"/>
      <point x="417.87" y="320.81" type="curve" smooth="yes"/>
      <point x="417.26000000000005" y="276.9099999999999"/>
      <point x="408.25" y="239.81"/>
      <point x="393.28" y="211.60999999999999" type="curve"/>
    </contour>
  </outline>
</glyph>
<glyph name="quotesingle" format="2">
  <advance width="178.01999999999998"/>
  <unicode hex="0027"/>
  <outline>
    <contour>
      <point x="39.99999999999999" y="427.0" type="line"/>
      <point x="136.7" y="427.0" type="line"/>
      <point x="144.01" y="700.0" type="line"/>
      <point x="34.01" y="700.0" type="line"/>
    </contour>
  </outline>
</glyph>
<glyph name="parenleft" format="2">
  <advance width="263.65999999999997"/>
  <unicode hex="0028"/>
  <outline>
    <contour>
      <point x="42.65" y="265.0" type="curve" smooth="yes"/>
      <point x="42.65" y="-6.939999999999998"/>
      <point x="106.44" y="-194.75"/>
      <point x="251.1" y="-220.36" type="curve"/>
      <point x="251.1" y="-121.55999999999999" type="line"/>
      <point x="175.7" y="-87.35999999999999"/>
      <point x="140.59" y="22.42"/>
      <point x="140.59" y="265.0" type="curve" smooth="yes"/>
      <point x="140.59" y="507.5799999999999"/>
      <point x="175.7" y="617.36"/>
      <point x="251.1" y="651.56" type="curve"/>
      <point x="251.1" y="750.36" type="line"/>
      <point x="106.44" y="724.75"/>
      <point x="42.65" y="536.94"/>
    </contour>
  </outline>
</glyph>
<glyph name="parenright" format="2">
  <advance width="263.65999999999997"/>
  <unicode hex="0029"/>
  <outline>
    <contour>
      <point x="12.56" y="-121.55999999999999" type="curve"/>
      <point x="12.56" y="-220.36" type="line"/>
      <point x="157.22" y="-194.75"/>
      <point x="221.01" y="-6.939999999999998"/>
      <point x="221.01" y="265.0" type="curve" smooth="yes"/>
      <point x="221.01" y="536.94"/>
      <point x="157.22" y="724.75"/>
      <point x="12.56" y="750.36" type="curve"/>
      <point x="12.56" y="651.56" type="line"/>
      <point x="87.96000000000001" y="617.36"/>
      <point x="123.07000000000001" y="507.5799999999999"/>
      <point x="123.07000000000001" y="265.0" type="curve" smooth="yes"/>
      <point x="123.07000000000001" y="22.42"/>
      <point x="87.96000000000001" y="-87.35999999999999"/>
    </contour>
  </outline>
</glyph>
<glyph name="asterisk" format="2">
  <advance width="312.06"/>
  <unicode hex="002A"/>
  <outline>
    <contour>
      <point x="90.53000000000002" y="390.61" type="line"/>
      <point x="156.11999999999998" y="476.48999999999995" type="line"/>
      <point x="221.35" y="390.52" type="line"/>
      <point x="267.40999999999997" y="422.43" type="line"/>
      <point x="212.77" y="518.14" type="line"/>
      <point x="306.71000000000004" y="562.7" type="line"/>
      <point x="288.78000000000003" y="615.57" type="line"/>
      <point x="191.28000000000003" y="585.99" type="line"/>
      <point x="184.79000000000002" y="698.04" type="line"/>
      <point x="127.45" y="698.04" type="line"/>
      <point x="120.95999999999998" y="585.99" type="line"/>
      <point x="23.28" y="615.57" type="line"/>
      <point x="5.3500000000000005" y="562.7" type="line"/>
      <point x="99.47" y="518.14" type="line"/>
      <point x="44.38" y="422.61" type="line"/>
    </contour>
  </outline>
</glyph>
<glyph name="plus" format="2">
  <advance width="454.42"/>
  <unicode hex="002B"/>
  <outline>
    <contour>
      <point x="173.98" y="113.69000000000001" type="line"/>
      <point x="280.33" y="113.69000000000001" type="line"/>
      <point x="280.33" y="259.75" type="line"/>
      <point x="409.63" y="259.75" type="line"/>
      <point x="409.63" y="361.70000000000005" type="line"/>
      <point x="280.33" y="361.70000000000005" type="line"/>
      <point x="280.33" y="507.65" type="line"/>
      <point x="173.98" y="507.65" type="line"/>
      <point x="173.98" y="361.70000000000005" type="line"/>
      <point x="44.790000000000006" y="361.70000000000005" type="line"/>
      <point x="44.790000000000006" y="259.75" type="line"/>
      <point x="173.98" y="259.75" type="line"/>
    </contour>
  </outline>
</glyph>
<glyph name="comma" format="2">
  <advance width="183.19"/>
  <unicode hex="002C"/>
  <outline>
    <contour>
      <point x="34.370000000000005" y="75.80999999999999" type="line"/>
      <point x="40.65" y="46.35"/>
      <point x="42.74" y="18.600000000000005"/>
      <point x="42.74" y="2.270000000000003" type="curve" smooth="yes"/>
      <point x="42.74" y="-54.199999999999996"/>
      <point x="23.99" y="-118.3"/>
      <point x="-14.629999999999999" y="-165.66" type="curve"/>
      <point x="73.21000000000001" y="-191.32" type="line"/>
      <point x="130.85" y="-132.32999999999998"/>
      <point x="154.92000000000004" y="-63.6"/>
      <point x="154.92000000000004" y="3.880000000000003" type="curve" smooth="yes"/>
      <point x="154.92000000000004" y="33.23"/>
      <point x="150.22" y="58.06"/>
      <point x="143.63000000000002" y="79.69000000000001" type="curve"/>
    </contour>
  </outline>
</glyph>
<glyph name="hyphen" format="2">
  <advance width="297.22"/>
  <unicode hex="002D"/>
  <outline>
    <contour>
      <point x="30.73" y="243.45" type="line"/>
      <point x="266.49" y="243.45" type="line"/>
      <point x="266.49" y="351.89" type="line"/>
      <point x="30.73" y="351.89" type="line"/>
    </contour>
  </outline>
</glyph>
<glyph name="period" format="2">
  <advance width="184.95"/>
  <unicode hex="002E"/>
  <outline>
    <contour>
      <point x="27.099999999999998" y="67.38000000000001" type="curve" smooth="yes"/>
      <point x="27.099999999999998" y="17.61"/>
      <point x="44.910000000000004" y="-4.290000000000001"/>
      <point x="92.52000000000001" y="-4.290000000000001" type="curve" smooth="yes"/>
      <point x="140.58" y="-4.290000000000001"/>
      <point x="157.94" y="17.61"/>
      <point x="157.94" y="67.38000000000001" type="curve" smooth="yes"/>
      <point x="157.94" y="117.70000000000002"/>
      <point x="140.58" y="139.6"/>
      <point x="92.52000000000001" y="139.6" type="curve" smooth="yes"/>
      <point x="44.46" y="139.6"/>
      <point x="27.099999999999998" y="117.70000000000002"/>
    </contour>
  </outline>
</glyph>
<glyph name="slash" format="2">
  <advance width="350.72999999999996"/>
  <unicode hex="002F"/>
  <outline>
    <contour>
      <point x="-1.6800000000000002" y="-210.0" type="line"/>
      <point x="97.45000000000002" y="-210.0" type="line"/>
      <point x="352.41" y="740.0" type="line"/>
      <point x="252.84" y="740.0" type="line"/>
    </contour>
  </outline>
</glyph>
<glyph name="zero" format="2">
  <advance width="483.36"/>
  <unicode hex="0030"/>
  <outline>
    <contour>
      <point x="21.28" y="350.0" type="curve" smooth="yes"/>
      <point x="21.28" y="75.96"/>
      <point x="99.36" y="-10.0"/>
      <point x="241.68" y="-10.0" type="curve" smooth="yes"/>
      <point x="382.86" y="-10.0"/>
      <point x="462.08000000000004" y="77.72"/>
      <point x="462.08000000000004" y="350.0" type="curve" smooth="yes"/>
      <point x="462.08000000000004" y="623.08"/>
      <point x="389.46" y="710.0"/>
      <point x="241.68" y="710.0" type="curve" smooth="yes"/>
      <point x="98.03999999999999" y="710.0"/>
      <point x="21.28" y="626.6"/>
    </contour>
    <contour>
      <point x="142.90000000000003" y="344.28000000000003" type="curve" smooth="yes"/>
      <point x="142.90000000000003" y="568.24"/>
      <point x="181.64000000000001" y="606.64"/>
      <point x="241.68" y="606.64" type="curve" smooth="yes"/>
      <point x="301.9" y="606.64"/>
      <point x="340.64" y="568.68"/>
      <point x="340.64" y="344.28000000000003" type="curve" smooth="yes"/>
      <point x="340.64" y="134.76000000000002"/>
      <point x="303.21999999999997" y="93.36000000000001"/>
      <point x="241.68" y="93.36000000000001" type="curve" smooth="yes"/>
      <point x="180.32" y="93.36000000000001"/>
      <point x="142.90000000000003" y="134.32"/>
    </contour>
  </outline>
</glyph>
<glyph name="one" format="2">
  <advance width="483.36"/>
  <unicode hex="0031"/>
  <outline>
    <contour>
      <point x="59.27" y="0.0" type="line"/>
      <point x="452.78000000000003" y="0.0" type="line"/>
      <point x="452.78000000000003" y="102.5" type="line"/>
      <point x="326.68" y="102.5" type="line"/>
      <point x="326.68" y="700.9" type="line"/>
      <point x="265.40000000000003" y="700.9" type="line"/>
      <point x="43.35" y="599.77" type="line"/>
      <point x="68.08" y="489.15999999999997" type="line"/>
      <point x="206.35999999999999" y="557.68" type="line"/>
      <point x="206.35999999999999" y="102.5" type="line"/>
      <point x="59.27" y="102.5" type="line"/>
    </contour>
  </outline>
</glyph>
<glyph name="two" format="2">
  <advance width="483.92"/>
  <unicode hex="0032"/>
  <outline>
    <contour>
      <point x="45.60999999999999" y="89.46000000000001" type="curve"/>
      <point x="48.105000000000004" y="0.0" type="line"/>
      <point x="445.455" y="0.0" type="line"/>
      <point x="445.455" y="102.95" type="line"/>
      <point x="199.34500000000003" y="102.95" type="line"/>
      <point x="375.915" y="315.275"/>
      <point x="409.935" y="397.81500000000005"/>
      <point x="409.935" y="507.44" type="curve" smooth="yes"/>
      <point x="409.935" y="636.0550000000001"/>
      <point x="342.125" y="710.0"/>
      <point x="221.935" y="710.0" type="curve" smooth="yes"/>
      <point x="154.40499999999997" y="710.0"/>
      <point x="90.16499999999999" y="689.405"/>
      <point x="36.82" y="648.7149999999999" type="curve"/>
      <point x="78.00999999999999" y="538.8050000000001" type="line"/>
      <point x="117.36500000000001" y="566.8000000000001"/>
      <point x="154.71" y="579.2250000000001"/>
      <point x="193.18999999999997" y="579.2250000000001" type="curve" smooth="yes"/>
      <point x="250.62500000000003" y="579.2250000000001"/>
      <point x="284.44499999999994" y="546.04"/>
      <point x="284.44499999999994" y="474.44" type="curve" smooth="yes"/>
      <point x="284.44499999999994" y="392.935"/>
      <point x="230.735" y="298.69500000000005"/>
    </contour>
  </outline>
</glyph>
<glyph name="three" format="2">
  <advance width="483.9"/>
  <unicode hex="0033"/>
  <outline>
    <contour>
      <point x="21.35" y="41.025" type="line"/>
      <point x="79.975" y="4.800000000000001"/>
      <point x="133.12500000000003" y="-10.0"/>
      <point x="210.975" y="-10.0" type="curve" smooth="yes"/>
      <point x="352.8" y="-10.0"/>
      <point x="436.65000000000003" y="69.10000000000001"/>
      <point x="436.65000000000003" y="203.8" type="curve" smooth="yes"/>
      <point x="436.65000000000003" y="285.0"/>
      <point x="399.07500000000005" y="345.175"/>
      <point x="329.59999999999997" y="371.375" type="curve"/>
      <point x="386.25" y="401.45"/>
      <point x="418.5" y="460.67499999999995"/>
      <point x="418.5" y="531.7249999999999" type="curve" smooth="yes"/>
      <point x="418.5" y="641.6"/>
      <point x="341.9" y="710.0"/>
      <point x="217.675" y="710.0" type="curve" smooth="yes"/>
      <point x="144.125" y="710.0"/>
      <point x="79.575" y="692.3000000000001"/>
      <point x="33.55" y="659.9" type="curve"/>
      <point x="67.975" y="562.4" type="line"/>
      <point x="107.05" y="583.4000000000001"/>
      <point x="151.04999999999998" y="592.8000000000001"/>
      <point x="192.60000000000002" y="592.8000000000001" type="curve" smooth="yes"/>
      <point x="260.95" y="592.8000000000001"/>
      <point x="299.6" y="556.65"/>
      <point x="299.6" y="498.725" type="curve" smooth="yes"/>
      <point x="299.6" y="443.325"/>
      <point x="268.0" y="406.225"/>
      <point x="208.64999999999998" y="406.225" type="curve" smooth="yes"/>
      <point x="127.775" y="406.225" type="line"/>
      <point x="127.775" y="310.70000000000005" type="line"/>
      <point x="199.95" y="310.70000000000005" type="line" smooth="yes"/>
      <point x="274.95000000000005" y="310.70000000000005"/>
      <point x="315.875" y="277.9"/>
      <point x="315.875" y="212.6" type="curve" smooth="yes"/>
      <point x="315.875" y="141.725"/>
      <point x="274.1" y="101.2"/>
      <point x="197.5" y="101.2" type="curve" smooth="yes"/>
      <point x="143.95" y="101.2"/>
      <point x="101.325" y="112.575"/>
      <point x="60.375" y="135.875" type="curve"/>
    </contour>
  </outline>
</glyph>
<glyph name="four" format="2">
  <advance width="483.9"/>
  <unicode hex="0034"/>
  <outline>
    <contour>
      <point x="20.299999999999997" y="130.70000000000002" type="line"/>
      <point x="264.5" y="130.70000000000002" type="line"/>
      <point x="264.5" y="0.0" type="line"/>
      <point x="386.90000000000003" y="0.0" type="line"/>
      <point x="386.90000000000003" y="130.70000000000002" type="line"/>
      <point x="465.15000000000003" y="130.70000000000002" type="line"/>
      <point x="465.15000000000003" y="231.65" type="line"/>
      <point x="386.90000000000003" y="231.65" type="line"/>
      <point x="386.90000000000003" y="699.5500000000001" type="line"/>
      <point x="265.3" y="702.25" type="line"/>
      <point x="18.05" y="230.49999999999997" type="line"/>
    </contour>
    <contour>
      <point x="115.45" y="231.65" type="line"/>
      <point x="268.8999999999999" y="534.7" type="line"/>
      <point x="268.8999999999999" y="231.65" type="line"/>
    </contour>
  </outline>
</glyph>
<glyph name="five" format="2">
  <advance width="483.9"/>
  <unicode hex="0035"/>
  <outline>
    <contour>
      <point x="30.439999999999998" y="36.684999999999995" type="line"/>
      <point x="84.33999999999999" y="5.660000000000001"/>
      <point x="136.85" y="-10.0"/>
      <point x="209.92" y="-10.0" type="curve" smooth="yes"/>
      <point x="350.335" y="-10.0"/>
      <point x="447.705" y="69.05000000000001"/>
      <point x="447.705" y="219.55" type="curve" smooth="yes"/>
      <point x="447.705" y="350.21"/>
      <point x="380.14000000000004" y="412.225"/>
      <point x="257.89500000000004" y="414.36" type="curve" smooth="yes"/>
      <point x="181.00000000000003" y="414.97" type="line"/>
      <point x="195.07500000000002" y="591.3149999999999" type="line"/>
      <point x="420.495" y="591.3149999999999" type="line"/>
      <point x="420.495" y="700.0" type="line"/>
      <point x="101.39500000000001" y="700.0" type="line"/>
      <point x="66.05" y="330.43" type="line"/>
      <point x="75.46000000000001" y="318.9" type="line"/>
      <point x="198.69" y="318.9" type="line" smooth="yes"/>
      <point x="291.19" y="318.9"/>
      <point x="325.76500000000004" y="284.37"/>
      <point x="325.76500000000004" y="215.05" type="curve" smooth="yes"/>
      <point x="325.76500000000004" y="144.96000000000004"/>
      <point x="286.015" y="102.67000000000002"/>
      <point x="198.005" y="102.67000000000002" type="curve" smooth="yes"/>
      <point x="137.03500000000003" y="102.67000000000002"/>
      <point x="97.22500000000001" y="117.335"/>
      <point x="60.894999999999996" y="135.71500000000003" type="curve"/>
    </contour>
  </outline>
</glyph>
<glyph name="six" format="2">
  <advance width="483.90000000000003"/>
  <unicode hex="0036"/>
  <outline>
    <contour>
      <point x="246.325" y="-10.0" type="curve" smooth="yes"/>
      <point x="385.34999999999997" y="-10.0"/>
      <point x="457.775" y="73.0"/>
      <point x="457.775" y="227.50000000000003" type="curve" smooth="yes"/>
      <point x="457.775" y="359.70000000000005"/>
      <point x="396.92500000000007" y="437.125"/>
      <point x="288.37500000000006" y="437.125" type="curve" smooth="yes"/>
      <point x="224.72499999999997" y="437.125"/>
      <point x="168.42500000000004" y="409.79999999999995"/>
      <point x="135.275" y="365.575" type="curve"/>
      <point x="137.24999999999997" y="271.77500000000003" type="line"/>
      <point x="165.2" y="314.525"/>
      <point x="204.37500000000003" y="343.1"/>
      <point x="248.37499999999997" y="343.1" type="curve" smooth="yes"/>
      <point x="305.15000000000003" y="343.1"/>
      <point x="339.825" y="300.47499999999997"/>
      <point x="339.825" y="223.275" type="curve" smooth="yes"/>
      <point x="339.825" y="136.5"/>
      <point x="305.8999999999999" y="91.92500000000001"/>
      <point x="250.95000000000002" y="91.92500000000001" type="curve" smooth="yes"/>
      <point x="185.89999999999998" y="91.92500000000001"/>
      <point x="149.175" y="143.15"/>
      <point x="149.175" y="345.5" type="curve" smooth="yes"/>
      <point x="149.175" y="517.7"/>
      <point x="180.57500000000005" y="601.6750000000001"/>
      <point x="296.47499999999997" y="601.6750000000001" type="curve" smooth="yes"/>
      <point x="338.12500000000006" y="601.6750000000001"/>
      <point x="374.57500000000005" y="590.8750000000001"/>
      <point x="412.875" y="574.3" type="curve"/>
      <point x="446.65000000000003" y="672.9250000000001" type="line"/>
      <point x="405.25" y="695.875"/>
      <point x="342.35" y="710.0"/>
      <point x="278.725" y="710.0" type="curve" smooth="yes"/>
      <point x="111.02499999999999" y="710.0"/>
      <point x="25.075" y="588.45"/>
      <point x="25.075" y="328.2" type="curve" smooth="yes"/>
      <point x="25.075" y="90.3"/>
      <point x="100.64999999999999" y="-10.0"/>
    </contour>
  </outline>
</glyph>
<glyph name="seven" format="2">
  <advance width="483.9"/>
  <unicode hex="0037"/>
  <outline>
    <contour>
      <point x="136.455" y="0.0" type="curve"/>
      <point x="260.82000000000005" y="0.0" type="line"/>
      <point x="262.105" y="126.70000000000002"/>
      <point x="285.29" y="222.1"/>
      <point x="338.4200000000001" y="350.89000000000004" type="curve" smooth="yes"/>
      <point x="448.105" y="616.7550000000001" type="line"/>
      <point x="448.105" y="700.0" type="line"/>
      <point x="36.825" y="700.0" type="line"/>
      <point x="36.825" y="588.3249999999999" type="line"/>
      <point x="313.485" y="588.3249999999999" type="line"/>
      <point x="222.38" y="384.03000000000003" type="line" smooth="yes"/>
      <point x="159.65999999999997" y="243.465"/>
      <point x="136.455" y="136.09"/>
    </contour>
  </outline>
</glyph>
<glyph name="eight" format="2">
  <advance width="483.92"/>
  <unicode hex="0038"/>
  <outline>
    <contour>
      <point x="263.645" y="391.77500000000003" type="curve"/>
      <point x="334.70000000000005" y="351.235" type="line"/>
      <point x="414.48499999999996" y="404.275"/>
      <point x="446.155" y="466.35999999999996"/>
      <point x="446.155" y="537.64" type="curve" smooth="yes"/>
      <point x="446.155" y="645.8199999999999"/>
      <point x="373.435" y="710.0"/>
      <point x="246.83" y="710.0" type="curve" smooth="yes"/>
      <point x="115.37" y="710.0"/>
      <point x="41.315000000000005" y="643.92"/>
      <point x="41.315000000000005" y="524.63" type="curve" smooth="yes"/>
      <point x="41.315000000000005" y="291.42"/>
      <point x="343.595" y="341.79999999999995"/>
      <point x="343.595" y="177.95499999999998" type="curve" smooth="yes"/>
      <point x="343.595" y="119.25"/>
      <point x="309.84499999999997" y="87.53000000000002"/>
      <point x="246.115" y="87.53000000000002" type="curve" smooth="yes"/>
      <point x="176.02" y="87.53000000000002"/>
      <point x="137.885" y="123.315"/>
      <point x="137.885" y="190.35" type="curve" smooth="yes"/>
      <point x="137.885" y="253.19500000000002"/>
      <point x="161.25500000000002" y="292.82"/>
      <point x="213.875" y="329.035" type="curve"/>
      <point x="142.81500000000003" y="377.26" type="line"/>
      <point x="58.49" y="329.835"/>
      <point x="19.265" y="263.705"/>
      <point x="19.265" y="181.565" type="curve" smooth="yes"/>
      <point x="19.265" y="58.85"/>
      <point x="97.35" y="-10.0"/>
      <point x="238.83999999999997" y="-10.0" type="curve" smooth="yes"/>
      <point x="388.17" y="-10.0"/>
      <point x="465.125" y="57.464999999999996"/>
      <point x="465.125" y="184.945" type="curve" smooth="yes"/>
      <point x="465.125" y="428.34000000000003"/>
      <point x="155.715" y="374.655"/>
      <point x="155.715" y="527.22" type="curve" smooth="yes"/>
      <point x="155.715" y="578.865"/>
      <point x="185.95000000000002" y="609.715"/>
      <point x="242.095" y="609.715" type="curve" smooth="yes"/>
      <point x="303.225" y="609.715"/>
      <point x="335.72499999999997" y="578.075"/>
      <point x="335.72499999999997" y="519.14" type="curve" smooth="yes"/>
      <point x="335.72499999999997" y="465.07"/>
      <point x="319.435" y="429.49999999999994"/>
    </contour>
  </outline>
</glyph>
<glyph name="nine" format="2">
  <advance width="483.90000000000003"/>
  <unicode hex="0039"/>
  <outline>
    <contour>
      <point x="204.575" y="-10.0" type="curve" smooth="yes"/>
      <point x="372.275" y="-10.0"/>
      <point x="456.82500000000005" y="110.95"/>
      <point x="456.82500000000005" y="370.15" type="curve" smooth="yes"/>
      <point x="456.82500000000005" y="608.65"/>
      <point x="387.24999999999994" y="710.0"/>
      <point x="238.375" y="710.0" type="curve" smooth="yes"/>
      <point x="98.89999999999999" y="710.0"/>
      <point x="24.125000000000004" y="626.8999999999999"/>
      <point x="24.125000000000004" y="472.3999999999999" type="curve" smooth="yes"/>
      <point x="24.125000000000004" y="339.24999999999994"/>
      <point x="85.675" y="262.875"/>
      <point x="195.925" y="262.875" type="curve" smooth="yes"/>
      <point x="256.52500000000003" y="262.875"/>
      <point x="312.875" y="288.99999999999994"/>
      <point x="346.625" y="333.07499999999993" type="curve"/>
      <point x="348.7" y="431.375" type="line"/>
      <point x="318.725" y="383.20000000000005"/>
      <point x="277.27500000000003" y="356.95"/>
      <point x="233.125" y="356.95" type="curve" smooth="yes"/>
      <point x="177.74999999999997" y="356.95"/>
      <point x="141.67499999999998" y="399.075"/>
      <point x="141.67499999999998" y="477.17499999999995" type="curve" smooth="yes"/>
      <point x="141.67499999999998" y="563.65"/>
      <point x="178.05" y="608.075"/>
      <point x="234.19999999999996" y="608.075" type="curve" smooth="yes"/>
      <point x="302.54999999999995" y="608.075"/>
      <point x="332.775" y="555.55"/>
      <point x="332.775" y="354.55" type="curve" smooth="yes"/>
      <point x="332.775" y="182.35"/>
      <point x="302.175" y="98.17500000000001"/>
      <point x="186.72499999999997" y="98.17500000000001" type="curve" smooth="yes"/>
      <point x="144.625" y="98.17500000000001"/>
      <point x="107.275" y="108.97500000000002"/>
      <point x="69.025" y="125.55" type="curve"/>
      <point x="35.25" y="27.975000000000005" type="line"/>
      <point x="76.65" y="5.025"/>
      <point x="140.95000000000005" y="-10.0"/>
    </contour>
  </outline>
</glyph>
<glyph name="less" format="2">
  <advance width="454.42"/>
  <unicode hex="003C"/>
  <outline>
    <contour>
      <point x="418.51" y="88.08" type="line"/>
      <point x="418.51" y="184.61" type="line"/>
      <point x="144.31" y="302.67" type="line"/>
      <point x="418.51" y="421.6" type="line"/>
      <point x="418.51" y="517.1" type="line"/>
      <point x="35.91" y="353.04" type="line"/>
      <point x="35.91" y="251.97000000000003" type="line"/>
    </contour>
  </outline>
</glyph>
<glyph name="equal" format="2">
  <advance width="445.62"/>
  <unicode hex="003D"/>
  <outline>
    <contour>
      <point x="400.83000000000004" y="244.73999999999998" type="line"/>
      <point x="44.790000000000006" y="244.73999999999998" type="line"/>
      <point x="44.790000000000006" y="142.79" type="line"/>
      <point x="400.83000000000004" y="142.79" type="line"/>
    </contour>
    <contour>
      <point x="400.83000000000004" y="463.73" type="line"/>
      <point x="44.790000000000006" y="463.73" type="line"/>
      <point x="44.790000000000006" y="361.78" type="line"/>
      <point x="400.83000000000004" y="361.78" type="line"/>
    </contour>
  </outline>
</glyph>
<glyph name="greater" format="2">
  <advance width="454.42"/>
  <unicode hex="003E"/>
  <outline>
    <contour>
      <point x="418.51" y="251.60999999999999" type="line"/>
      <point x="418.51" y="352.68" type="line"/>
      <point x="35.91" y="517.1" type="line"/>
      <point x="35.91" y="420.78999999999996" type="line"/>
      <point x="310.11" y="302.31" type="line"/>
      <point x="35.91" y="183.89" type="line"/>
      <point x="35.91" y="88.08" type="line"/>
    </contour>
  </outline>
</glyph>
<glyph name="question" format="2">
  <advance width="385.68"/>
  <unicode hex="003F"/>
  <outline>
    <contour>
      <point x="126.07999999999998" y="260.97999999999996" type="line"/>
      <point x="230.01000000000002" y="260.97999999999996" type="line"/>
      <point x="230.23000000000002" y="331.96" type="line"/>
      <point x="328.51" y="386.24"/>
      <point x="370.62000000000006" y="451.79999999999995"/>
      <point x="370.62000000000006" y="555.4499999999999" type="curve" smooth="yes"/>
      <point x="370.62000000000006" y="687.55"/>
      <point x="288.31" y="749.5600000000001"/>
      <point x="177.99999999999997" y="749.5600000000001" type="curve" smooth="yes"/>
      <point x="117.23" y="749.5600000000001"/>
      <point x="52.8" y="726.97"/>
      <point x="9.02" y="692.2600000000001" type="curve"/>
      <point x="49.33" y="591.47" type="line"/>
      <point x="89.72" y="621.1899999999999"/>
      <point x="125.7" y="631.58"/>
      <point x="159.63" y="631.58" type="curve" smooth="yes"/>
      <point x="209.98000000000002" y="631.58"/>
      <point x="246.86" y="597.17"/>
      <point x="246.86" y="538.02" type="curve" smooth="yes"/>
      <point x="246.86" y="481.96999999999997"/>
      <point x="224.68" y="436.92"/>
      <point x="123.55" y="385.47999999999996" type="curve"/>
    </contour>
    <contour>
      <point x="112.95" y="66.06" type="curve" smooth="yes"/>
      <point x="112.95" y="16.290000000000003"/>
      <point x="131.04" y="-5.61"/>
      <point x="178.73000000000002" y="-5.61" type="curve" smooth="yes"/>
      <point x="225.99" y="-5.61"/>
      <point x="244.15" y="16.290000000000003"/>
      <point x="244.15" y="66.06" type="curve" smooth="yes"/>
      <point x="244.15" y="116.38000000000001"/>
      <point x="225.99" y="138.28"/>
      <point x="178.73000000000002" y="138.28" type="curve" smooth="yes"/>
      <point x="130.23" y="138.28"/>
      <point x="112.95" y="116.38000000000001"/>
    </contour>
  </outline>
</glyph>
<glyph name="at" format="2">
  <advance width="721.8000000000001"/>
  <unicode hex="0040"/>
  <outline>
    <contour>
      <point x="360.00000000000006" y="-124.08000000000001" type="curve" smooth="yes"/>
      <point x="423.08" y="-124.08000000000001"/>
      <point x="495.4000000000001" y="-103.14000000000003"/>
      <point x="536.4" y="-77.08" type="curve"/>
      <point x="517.36" y="-25.76" type="line"/>
      <point x="474.4200000000001" y="-48.13999999999999"/>
      <point x="420.02" y="-64.07999999999997"/>
      <point x="363.04" y="-64.07999999999997" type="curve" smooth="yes"/>
      <point x="205.18" y="-64.07999999999997"/>
      <point x="96.76" y="17.64"/>
      <point x="96.76" y="265.14" type="curve" smooth="yes"/>
      <point x="96.76" y="489.92"/>
      <point x="184.78" y="653.18"/>
      <point x="370.82" y="653.18" type="curve" smooth="yes"/>
      <point x="558.82" y="653.18"/>
      <point x="630.2400000000001" y="540.5799999999999"/>
      <point x="630.2400000000001" y="339.36" type="curve" smooth="yes"/>
      <point x="630.2400000000001" y="215.33999999999997"/>
      <point x="600.28" y="126.6"/>
      <point x="559.1800000000001" y="126.7" type="curve" smooth="yes"/>
      <point x="530.4200000000001" y="126.7"/>
      <point x="507.65999999999997" y="148.72000000000003"/>
      <point x="514.16" y="247.27999999999997" type="curve" smooth="yes"/>
      <point x="533.34" y="516.92" type="line"/>
      <point x="483.22" y="537.32"/>
      <point x="434.96000000000004" y="548.1799999999998"/>
      <point x="381.66" y="548.1799999999998" type="curve" smooth="yes"/>
      <point x="245.55999999999997" y="548.1799999999998"/>
      <point x="184.22" y="420.6"/>
      <point x="184.22" y="262.0" type="curve" smooth="yes"/>
      <point x="184.22" y="111.25999999999999"/>
      <point x="233.64" y="55.559999999999995"/>
      <point x="302.9200000000001" y="55.559999999999995" type="curve" smooth="yes"/>
      <point x="363.54" y="55.559999999999995"/>
      <point x="398.82000000000005" y="98.16000000000001"/>
      <point x="427.04" y="169.59999999999997" type="curve"/>
      <point x="437.96000000000004" y="88.0"/>
      <point x="470.12" y="49.54"/>
      <point x="538.3800000000001" y="49.54" type="curve" smooth="yes"/>
      <point x="643.6" y="49.339999999999996"/>
      <point x="695.18" y="180.23999999999998"/>
      <point x="695.18" y="347.3" type="curve" smooth="yes"/>
      <point x="695.18" y="587.9"/>
      <point x="579.2400000000001" y="709.9999999999999"/>
      <point x="380.58" y="709.9999999999999" type="curve" smooth="yes"/>
      <point x="143.50000000000003" y="709.9999999999999"/>
      <point x="27.68" y="526.4"/>
      <point x="27.68" y="270.90000000000003" type="curve" smooth="yes"/>
      <point x="27.68" y="-11.86"/>
      <point x="157.76000000000002" y="-124.08000000000001"/>
    </contour>
    <contour>
      <point x="345.20000000000005" y="159.18000000000004" type="curve" smooth="yes"/>
      <point x="320.90000000000003" y="159.18000000000004"/>
      <point x="300.88" y="185.50000000000003"/>
      <point x="300.88" y="261.52000000000004" type="curve" smooth="yes"/>
      <point x="300.88" y="361.04"/>
      <point x="328.74" y="467.53999999999996"/>
      <point x="379.32000000000005" y="467.53999999999996" type="curve" smooth="yes"/>
      <point x="393.52000000000004" y="467.53999999999996"/>
      <point x="408.64000000000004" y="463.59999999999997"/>
      <point x="424.08000000000004" y="457.43999999999994" type="curve"/>
      <point x="411.86" y="314.71999999999997" type="line" smooth="yes"/>
      <point x="396.12" y="181.66"/>
      <point x="376.70000000000005" y="159.18000000000004"/>
    </contour>
  </outline>
</glyph>
<glyph name="A" format="2">
  <advance width="505.38000000000005"/>
  <unicode hex="0041"/>
  <anchor x="495.94" y="0.0" name="ogonek"/>
  <anchor x="250.74000000000004" y="0.0" name="bottom"/>
  <anchor x="252.70000000000005" y="700.0" name="top"/>
  <outline>
    <contour>
      <point x="9.62" y="0.0" type="line"/>
      <point x="134.10000000000002" y="0.0" type="line"/>
      <point x="166.94" y="149.49999999999997" type="line"/>
      <point x="333.99999999999994" y="149.49999999999997" type="line"/>
      <point x="367.54" y="0.0" type="line"/>
      <point x="495.94" y="0.0" type="line"/>
      <point x="329.66" y="704.5" type="line"/>
      <point x="174.23999999999998" y="704.5" type="line"/>
    </contour>
    <contour>
      <point x="185.78000000000003" y="264.44" type="line"/>
      <point x="250.96" y="602.2800000000001" type="line"/>
      <point x="315.16" y="264.44" type="line"/>
    </contour>
  </outline>
</glyph>
<glyph name="B" format="2">
  <advance width="501.18000000000006"/>
  <unicode hex="0042"/>
  <anchor x="245.62000000000003" y="700.0" name="top"/>
  <anchor x="245.62000000000003" y="0.0" name="bottom"/>
  <outline>
    <contour>
      <point x="46.235" y="1.1750000000000007" type="line"/>
      <point x="152.88" y="-8.225"/>
      <point x="170.32000000000002" y="-10.0"/>
      <point x="244.86" y="-10.0" type="curve" smooth="yes"/>
      <point x="413.93999999999994" y="-10.0"/>
      <point x="479.985" y="52.42500000000001"/>
      <point x="479.985" y="199.42" type="curve" smooth="yes"/>
      <point x="479.985" y="286.35499999999996"/>
      <point x="438.43" y="351.455"/>
      <point x="367.7899999999999" y="376.765" type="curve"/>
      <point x="367.7899999999999" y="378.53999999999996" type="line"/>
      <point x="422.09999999999997" y="405.67"/>
      <point x="452.195" y="463.425"/>
      <point x="452.195" y="537.1800000000001" type="curve" smooth="yes"/>
      <point x="452.195" y="656.9399999999999"/>
      <point x="390.60499999999996" y="710.0"/>
      <point x="243.06" y="710.0" type="curve" smooth="yes"/>
      <point x="191.25000000000003" y="710.0"/>
      <point x="129.27500000000003" y="706.1250000000001"/>
      <point x="46.235" y="697.925" type="curve"/>
    </contour>
    <contour>
      <point x="168.41500000000002" y="400.82" type="line"/>
      <point x="168.41500000000002" y="598.545" type="line"/>
      <point x="203.32999999999998" y="602.4449999999999"/>
      <point x="212.97" y="603.4449999999999"/>
      <point x="241.465" y="603.4449999999999" type="curve" smooth="yes"/>
      <point x="312.065" y="603.4449999999999"/>
      <point x="340.14" y="571.5350000000001"/>
      <point x="340.14" y="501.895" type="curve" smooth="yes"/>
      <point x="340.14" y="441.165"/>
      <point x="311.0" y="400.82"/>
      <point x="263.54499999999996" y="400.82" type="curve" smooth="yes"/>
    </contour>
    <contour>
      <point x="168.41500000000002" y="100.84500000000001" type="curve"/>
      <point x="168.41500000000002" y="304.9049999999999" type="line"/>
      <point x="263.63499999999993" y="304.9049999999999" type="line" smooth="yes"/>
      <point x="326.43999999999994" y="304.9049999999999"/>
      <point x="356.99" y="268.755"/>
      <point x="356.99" y="203.82000000000002" type="curve" smooth="yes"/>
      <point x="356.99" y="127.51000000000002"/>
      <point x="327.465" y="96.47500000000001"/>
      <point x="242.16500000000002" y="96.47500000000001" type="curve" smooth="yes"/>
      <point x="222.84" y="96.47500000000001"/>
      <point x="203.57" y="97.94500000000001"/>
    </contour>
  </outline>
</glyph>
<glyph name="C" format="2">
  <advance width="461.41"/>
  <unicode hex="0043"/>
  <anchor x="264.97" y="700.0" name="top"/>
  <anchor x="266.37" y="0.0" name="bottom"/>
  <outline>
    <contour>
      <point x="26.279999999999998" y="341.26" type="curve" smooth="yes"/>
      <point x="26.279999999999998" y="78.22999999999999"/>
      <point x="109.14999999999999" y="-10.0"/>
      <point x="273.25" y="-10.0" type="curve" smooth="yes"/>
      <point x="340.81" y="-10.0"/>
      <point x="396.28000000000003" y="-0.8599999999999991"/>
      <point x="442.40000000000003" y="15.869999999999997" type="curve"/>
      <point x="421.06000000000006" y="120.1" type="line"/>
      <point x="384.19" y="108.9"/>
      <point x="333.21000000000004" y="101.13000000000002"/>
      <point x="294.18" y="101.13000000000002" type="curve" smooth="yes"/>
      <point x="195.38" y="101.13000000000002"/>
      <point x="149.35000000000002" y="156.14999999999998"/>
      <point x="149.35000000000002" y="340.27" type="curve" smooth="yes"/>
      <point x="149.35000000000002" y="539.99"/>
      <point x="196.58999999999997" y="598.3999999999999"/>
      <point x="296.85" y="598.3999999999999" type="curve" smooth="yes"/>
      <point x="335.31" y="598.3999999999999"/>
      <point x="369.53000000000003" y="593.28"/>
      <point x="411.53000000000003" y="581.71" type="curve"/>
      <point x="435.72999999999996" y="685.8000000000001" type="line"/>
      <point x="391.14" y="702.24"/>
      <point x="344.09000000000003" y="710.0"/>
      <point x="282.96000000000004" y="710.0" type="curve" smooth="yes"/>
      <point x="110.01" y="710.0"/>
      <point x="26.279999999999998" y="608.97"/>
    </contour>
  </outline>
</glyph>
<glyph name="D" format="2">
  <advance width="524.23"/>
  <unicode hex="0044"/>
  <anchor x="254.89000000000001" y="700.0" name="top"/>
  <outline>
    <contour>
      <point x="237.39999999999998" y="-10.0" type="curve" smooth="yes"/>
      <point x="417.03999999999996" y="-10.0"/>
      <point x="497.81500000000005" y="95.915"/>
      <point x="497.81500000000005" y="350.6499999999999" type="curve" smooth="yes"/>
      <point x="497.81500000000005" y="604.8400000000001"/>
      <point x="426.52000000000004" y="710.0"/>
      <point x="234.625" y="710.0" type="curve" smooth="yes"/>
      <point x="168.245" y="710.0"/>
      <point x="112.39" y="707.225"/>
      <point x="46.235" y="700.2900000000001" type="curve"/>
      <point x="46.235" y="-2.2499999999999996" type="line"/>
      <point x="103.58" y="-6.94"/>
      <point x="166.70000000000002" y="-10.0"/>
    </contour>
    <contour>
      <point x="245.12000000000003" y="95.02500000000002" type="curve" smooth="yes"/>
      <point x="220.02000000000004" y="95.02500000000002"/>
      <point x="192.47" y="96.51500000000001"/>
      <point x="168.10999999999999" y="98.66" type="curve"/>
      <point x="168.10999999999999" y="600.2399999999999" type="line"/>
      <point x="190.49999999999997" y="602.2600000000001"/>
      <point x="220.20000000000002" y="603.7099999999999"/>
      <point x="243.325" y="603.7099999999999" type="curve" smooth="yes"/>
      <point x="335.22999999999996" y="603.7099999999999"/>
      <point x="371.67999999999995" y="546.0"/>
      <point x="371.67999999999995" y="349.04" type="curve" smooth="yes"/>
      <point x="371.67999999999995" y="159.215"/>
      <point x="333.25" y="95.02500000000002"/>
    </contour>
  </outline>
</glyph>
<glyph name="E" format="2">
  <advance width="445.88499999999993"/>
  <unicode hex="0045"/>
  <anchor x="426.74" y="0.0" name="ogonek"/>
  <anchor x="236.30499999999998" y="0.0" name="bottom"/>
  <anchor x="235.01" y="700.0" name="top"/>
  <outline>
    <contour>
      <point x="46.235" y="0.0" type="line"/>
      <point x="427.19" y="0.0" type="line"/>
      <point x="427.19" y="113.29" type="line"/>
      <point x="168.66500000000002" y="113.29" type="line"/>
      <point x="168.66500000000002" y="302.64" type="line"/>
      <point x="391.07499999999993" y="302.64" type="line"/>
      <point x="391.07499999999993" y="411.705" type="line"/>
      <point x="168.66500000000002" y="411.705" type="line"/>
      <point x="168.66500000000002" y="585.1850000000001" type="line"/>
      <point x="412.905" y="585.1850000000001" type="line"/>
      <point x="412.905" y="700.0" type="line"/>
      <point x="46.235" y="700.0" type="line"/>
    </contour>
  </outline>
</glyph>
<glyph name="F" format="2">
  <advance width="423.76"/>
  <unicode hex="0046"/>
  <outline>
    <contour>
      <point x="46.235" y="0.0" type="line"/>
      <point x="169.17000000000004" y="0.0" type="line"/>
      <point x="169.17000000000004" y="263.15999999999997" type="line"/>
      <point x="374.97999999999996" y="263.15999999999997" type="line"/>
      <point x="374.97999999999996" y="376.95000000000005" type="line"/>
      <point x="168.10999999999999" y="376.95000000000005" type="line"/>
      <point x="168.10999999999999" y="583.985" type="line"/>
      <point x="411.04999999999995" y="583.985" type="line"/>
      <point x="411.04999999999995" y="700.0" type="line"/>
      <point x="46.235" y="700.0" type="line"/>
    </contour>
  </outline>
</glyph>
<glyph name="G" format="2">
  <advance width="498.7700000000001"/>
  <unicode hex="0047"/>
  <anchor x="265.15000000000003" y="700.0" name="top"/>
  <anchor x="265.04999999999995" y="0.0" name="bottom"/>
  <outline>
    <contour>
      <point x="26.279999999999998" y="342.14" type="curve" smooth="yes"/>
      <point x="26.279999999999998" y="100.58999999999999"/>
      <point x="101.31" y="-10.0"/>
      <point x="261.90999999999997" y="-10.0" type="curve" smooth="yes"/>
      <point x="341.64000000000004" y="-10.0"/>
      <point x="409.51" y="3.58"/>
      <point x="463.01" y="32.0" type="curve"/>
      <point x="463.01" y="380.28" type="line"/>
      <point x="257.75" y="380.28" type="line"/>
      <point x="257.75" y="275.5" type="line"/>
      <point x="352.36999999999995" y="275.5" type="line"/>
      <point x="352.36999999999995" y="106.28" type="line"/>
      <point x="331.96000000000004" y="98.78000000000002"/>
      <point x="304.53000000000003" y="94.97000000000001"/>
      <point x="271.51" y="94.97000000000001" type="curve" smooth="yes"/>
      <point x="188.13" y="94.97000000000001"/>
      <point x="148.47000000000003" y="163.09"/>
      <point x="148.47000000000003" y="337.19" type="curve" smooth="yes"/>
      <point x="148.47000000000003" y="521.53"/>
      <point x="193.45000000000002" y="599.28"/>
      <point x="293.0" y="599.28" type="curve" smooth="yes"/>
      <point x="333.02000000000004" y="599.28"/>
      <point x="380.32000000000005" y="592.0799999999999"/>
      <point x="421.72" y="580.1" type="curve"/>
      <point x="443.83000000000004" y="684.89" type="line"/>
      <point x="399.11" y="700.5"/>
      <point x="339.78000000000003" y="710.0"/>
      <point x="281.31" y="710.0" type="curve" smooth="yes"/>
      <point x="107.55" y="710.0"/>
      <point x="26.279999999999998" y="594.69"/>
    </contour>
  </outline>
</glyph>
<glyph name="H" format="2">
  <advance width="535.57"/>
  <unicode hex="0048"/>
  <anchor x="268.05" y="700.0" name="top"/>
  <outline>
    <contour>
      <point x="46.19" y="0.0" type="line"/>
      <point x="167.39" y="0.0" type="line"/>
      <point x="167.39" y="254.39000000000004" type="line"/>
      <point x="368.18000000000006" y="254.39000000000004" type="line"/>
      <point x="368.18000000000006" y="0.0" type="line"/>
      <point x="489.38000000000005" y="0.0" type="line"/>
      <point x="489.38000000000005" y="700.0" type="line"/>
      <point x="368.18000000000006" y="700.0" type="line"/>
      <point x="368.18000000000006" y="370.83" type="line"/>
      <point x="167.39" y="370.83" type="line"/>
      <point x="167.39" y="700.0" type="line"/>
      <point x="46.19" y="700.0" type="line"/>
    </contour>
  </outline>
</glyph>
<glyph name="I" format="2">
  <advance width="213.58"/>
  <unicode hex="0049"/>
  <anchor x="167.39" y="0.0" name="ogonek"/>
  <anchor x="107.00999999999999" y="0.0" name="bottom"/>
  <anchor x="107.00999999999999" y="700.0" name="top"/>
  <outline>
    <contour>
      <point x="46.19" y="0.0" type="line"/>
      <point x="167.39" y="0.0" type="line"/>
      <point x="167.39" y="700.0" type="line"/>
      <point x="46.19" y="700.0" type="line"/>
    </contour>
  </outline>
</glyph>
<glyph name="J" format="2">
  <advance width="379.87"/>
  <unicode hex="004A"/>
  <anchor x="194.24" y="700.0" name="top"/>
  <outline>
    <contour>
      <point x="5.73" y="17.590000000000003" type="line"/>
      <point x="52.64" y="0.8100000000000009"/>
      <point x="106.95" y="-10.09"/>
      <point x="161.84" y="-10.09" type="curve" smooth="yes"/>
      <point x="286.15999999999997" y="-10.09"/>
      <point x="339.83000000000004" y="58.510000000000005"/>
      <point x="339.83000000000004" y="183.99" type="curve" smooth="yes"/>
      <point x="339.83000000000004" y="700.0" type="line"/>
      <point x="43.209999999999994" y="700.0" type="line"/>
      <point x="43.209999999999994" y="585.65" type="line"/>
      <point x="218.63" y="585.65" type="line"/>
      <point x="218.63" y="218.66" type="line" smooth="yes"/>
      <point x="218.63" y="127.84000000000002"/>
      <point x="187.86999999999998" y="100.63000000000001"/>
      <point x="123.67" y="100.63000000000001" type="curve" smooth="yes"/>
      <point x="97.76" y="100.63000000000001"/>
      <point x="62.38" y="106.66000000000001"/>
      <point x="27.760000000000005" y="116.4" type="curve"/>
    </contour>
  </outline>
</glyph>
<glyph name="K" format="2">
  <advance width="512.95"/>
  <unicode hex="004B"/>
  <anchor x="257.8" y="700.0" name="top"/>
  <anchor x="265.20000000000005" y="0.0" name="bottom"/>
  <outline>
    <contour>
      <point x="475.2" y="-10.0" type="curve" smooth="yes"/>
      <point x="481.95000000000005" y="-10.0"/>
      <point x="488.7" y="-10.0"/>
      <point x="497.9" y="-8.0" type="curve"/>
      <point x="497.9" y="128.35" type="line"/>
      <point x="493.90000000000003" y="128.35000000000002"/>
      <point x="489.40000000000003" y="128.35000000000002"/>
      <point x="485.9" y="128.35000000000002" type="curve" smooth="yes"/>
      <point x="458.85" y="128.4"/>
      <point x="431.05000000000007" y="140.2"/>
      <point x="368.35" y="214.85000000000002" type="curve" smooth="yes"/>
      <point x="166.7" y="455.65000000000003" type="line"/>
      <point x="166.7" y="700.0" type="line"/>
      <point x="47.4" y="700.0" type="line"/>
      <point x="47.4" y="0.0" type="line"/>
      <point x="166.7" y="0.0" type="line"/>
      <point x="166.7" y="271.34999999999997" type="line"/>
      <point x="330.85" y="77.14999999999999" type="line" smooth="yes"/>
      <point x="381.85" y="16.65"/>
      <point x="424.25000000000006" y="-10.0"/>
    </contour>
    <contour>
      <point x="260.75" y="286.6" type="line"/>
      <point x="360.95" y="377.55"/>
      <point x="451.6" y="501.75"/>
      <point x="494.65000000000003" y="668.3000000000001" type="curve"/>
      <point x="395.40000000000003" y="703.25" type="line"/>
      <point x="351.15" y="551.5"/>
      <point x="257.29999999999995" y="433.95000000000005"/>
      <point x="191.0" y="371.05" type="curve"/>
    </contour>
  </outline>
</glyph>
<glyph name="L" format="2">
  <advance width="411.1500000000001"/>
  <unicode hex="004C"/>
  <anchor x="205.83999999999997" y="350.0" name="center"/>
  <anchor x="107.00999999999999" y="700.0" name="top"/>
  <anchor x="262.4" y="700.0" name="topright"/>
  <anchor x="222.29" y="0.0" name="bottom"/>
  <outline>
    <contour>
      <point x="46.19" y="0.0" type="line"/>
      <point x="398.85" y="0.0" type="line"/>
      <point x="398.85" y="113.36000000000001" type="line"/>
      <point x="167.83" y="113.36000000000001" type="line"/>
      <point x="167.83" y="700.0" type="line"/>
      <point x="46.19" y="700.0" type="line"/>
    </contour>
  </outline>
</glyph>
<glyph name="M" format="2">
  <advance width="612.72"/>
  <unicode hex="004D"/>
  <outline>
    <contour>
      <point x="46.39" y="0.0" type="line"/>
      <point x="156.92000000000002" y="0.0" type="line"/>
      <point x="156.92000000000002" y="498.03999999999996" type="line"/>
      <point x="274.83" y="193.09999999999997" type="line"/>
      <point x="335.46000000000004" y="193.09999999999997" type="line"/>
      <point x="455.79999999999995" y="499.91" type="line"/>
      <point x="455.79999999999995" y="0.0" type="line"/>
      <point x="566.33" y="0.0" type="line"/>
      <point x="566.33" y="700.0" type="line"/>
      <point x="443.2" y="700.0" type="line"/>
      <point x="308.62" y="360.94" type="line"/>
      <point x="174.42000000000002" y="700.0" type="line"/>
      <point x="46.39" y="700.0" type="line"/>
    </contour>
  </outline>
</glyph>
<glyph name="N" format="2">
  <advance width="532.4250000000001"/>
  <unicode hex="004E"/>
  <anchor x="266.34999999999997" y="700.0" name="top"/>
  <anchor x="266.34999999999997" y="0.0" name="bottom"/>
  <outline>
    <contour>
      <point x="46.225" y="0.0" type="line"/>
      <point x="154.67499999999998" y="0.0" type="line"/>
      <point x="154.67499999999998" y="458.525" type="line"/>
      <point x="366.15" y="-0.8999999999999999" type="line"/>
      <point x="486.20000000000005" y="-0.8999999999999999" type="line"/>
      <point x="486.20000000000005" y="700.0" type="line"/>
      <point x="377.8" y="700.0" type="line"/>
      <point x="377.8" y="228.47500000000002" type="line"/>
      <point x="166.60000000000002" y="700.9" type="line"/>
      <point x="46.225" y="700.9" type="line"/>
    </contour>
  </outline>
</glyph>
<glyph name="O" format="2">
  <advance width="532.875"/>
  <unicode hex="004F"/>
  <anchor x="336.05" y="4.95" name="ogonek"/>
  <anchor x="265.95000000000005" y="700.0" name="top"/>
  <anchor x="404.475" y="691.2" name="topright"/>
  <anchor x="266.125" y="0.0" name="bottom"/>
  <outline>
    <contour>
      <point x="265.95000000000005" y="95.85000000000001" type="curve" smooth="yes"/>
      <point x="195.475" y="95.85000000000001"/>
      <point x="150.825" y="144.55"/>
      <point x="150.825" y="349.275" type="curve" smooth="yes"/>
      <point x="150.825" y="556.3750000000001"/>
      <point x="195.025" y="605.05"/>
      <point x="265.95000000000005" y="605.05" type="curve" smooth="yes"/>
      <point x="338.425" y="605.05"/>
      <point x="381.925" y="556.6"/>
      <point x="381.925" y="350.09999999999997" type="curve" smooth="yes"/>
      <point x="381.925" y="145.40000000000003"/>
      <point x="338.325" y="95.85000000000001"/>
    </contour>
    <contour>
      <point x="266.125" y="-10.0" type="curve" smooth="yes"/>
      <point x="419.425" y="-10.0"/>
      <point x="506.0" y="72.80000000000001"/>
      <point x="506.0" y="351.82500000000005" type="curve" smooth="yes"/>
      <point x="506.0" y="627.2"/>
      <point x="421.225" y="710.0"/>
      <point x="265.95000000000005" y="710.0" type="curve" smooth="yes"/>
      <point x="111.12500000000001" y="710.0"/>
      <point x="26.874999999999996" y="626.15"/>
      <point x="26.874999999999996" y="349.45" type="curve" smooth="yes"/>
      <point x="26.874999999999996" y="73.55"/>
      <point x="113.49999999999999" y="-10.0"/>
    </contour>
  </outline>
</glyph>
<glyph name="P" format="2">
  <advance width="498.95"/>
  <unicode hex="0050"/>
  <outline>
    <contour>
      <point x="46.19" y="0.0" type="line"/>
      <point x="167.83" y="0.0" type="line"/>
      <point x="167.83" y="216.15" type="line"/>
      <point x="216.04000000000002" y="213.23"/>
      <point x="223.59" y="213.14"/>
      <point x="268.85" y="213.14" type="curve" smooth="yes"/>
      <point x="419.47" y="213.14"/>
      <point x="480.14000000000004" y="290.21000000000004"/>
      <point x="480.14000000000004" y="468.69" type="curve" smooth="yes"/>
      <point x="480.14000000000004" y="640.3199999999999"/>
      <point x="427.13" y="710.0"/>
      <point x="240.29000000000002" y="710.0" type="curve" smooth="yes"/>
      <point x="209.76000000000002" y="710.0"/>
      <point x="146.64000000000001" y="708.3299999999999"/>
      <point x="46.19" y="702.32" type="curve"/>
    </contour>
    <contour>
      <point x="168.27000000000004" y="601.15" type="line"/>
      <point x="209.73000000000002" y="604.7099999999999"/>
      <point x="227.69" y="605.25"/>
      <point x="248.9" y="605.25" type="curve" smooth="yes"/>
      <point x="336.11" y="605.25"/>
      <point x="357.72999999999996" y="566.1800000000001"/>
      <point x="357.72999999999996" y="472.78000000000003" type="curve" smooth="yes"/>
      <point x="357.72999999999996" y="358.90999999999997"/>
      <point x="331.54" y="317.62"/>
      <point x="239.17999999999998" y="317.62" type="curve" smooth="yes"/>
      <point x="212.91000000000003" y="317.62"/>
      <point x="196.95" y="318.0"/>
      <point x="168.27000000000004" y="319.95" type="curve"/>
    </contour>
  </outline>
</glyph>
<glyph name="Q" format="2">
  <advance width="533.04"/>
  <unicode hex="0051"/>
  <outline>
    <contour>
      <point x="352.35999999999996" y="31.820000000000004" type="curve"/>
      <point x="255.60000000000002" y="6.659999999999999" type="line"/>
      <point x="282.58" y="-129.9"/>
      <point x="320.72" y="-187.83"/>
      <point x="400.45" y="-187.83" type="curve" smooth="yes"/>
      <point x="425.27000000000004" y="-187.83"/>
      <point x="452.68000000000006" y="-182.28"/>
      <point x="478.07" y="-172.49" type="curve"/>
      <point x="463.65000000000003" y="-63.40999999999999" type="line"/>
      <point x="449.41" y="-70.05999999999999"/>
      <point x="434.35" y="-74.08"/>
      <point x="421.05" y="-74.08" type="curve" smooth="yes"/>
      <point x="387.61" y="-74.08"/>
      <point x="370.05" y="-43.33"/>
    </contour>
    <component base="O"/>
  </outline>
</glyph>
<glyph name="R" format="2">
  <advance width="525.1"/>
  <unicode hex="0052"/>
  <anchor x="257.05" y="700.0" name="top"/>
  <anchor x="262.4" y="0.0" name="bottom"/>
  <outline>
    <contour>
      <point x="478.05" y="-10.0" type="curve" smooth="yes"/>
      <point x="494.85" y="-10.0"/>
      <point x="505.40000000000003" y="-7.6"/>
      <point x="513.7500000000001" y="-6.0" type="curve"/>
      <point x="512.0500000000001" y="117.60000000000001" type="line"/>
      <point x="509.34999999999997" y="117.60000000000002"/>
      <point x="501.6500000000001" y="117.15"/>
      <point x="499.45000000000005" y="117.15" type="curve" smooth="yes"/>
      <point x="461.84999999999997" y="117.15"/>
      <point x="423.30000000000007" y="152.9"/>
      <point x="361.40000000000003" y="282.8" type="curve"/>
      <point x="437.2" y="311.95"/>
      <point x="478.15000000000003" y="383.05"/>
      <point x="478.15000000000003" y="496.55" type="curve" smooth="yes"/>
      <point x="478.15000000000003" y="649.0500000000001"/>
      <point x="405.9" y="709.9"/>
      <point x="244.75" y="709.9" type="curve" smooth="yes"/>
      <point x="181.3" y="709.9"/>
      <point x="121.44999999999999" y="706.8000000000001"/>
      <point x="47.4" y="701.2" type="curve"/>
      <point x="47.4" y="0.0" type="line"/>
      <point x="165.6" y="0.0" type="line"/>
      <point x="165.6" y="247.35" type="line"/>
      <point x="183.4" y="246.4"/>
      <point x="204.8" y="246.35000000000002"/>
      <point x="222.60000000000002" y="246.35000000000002" type="curve" smooth="yes"/>
      <point x="229.9" y="246.35000000000002"/>
      <point x="245.20000000000002" y="246.79999999999998"/>
      <point x="252.54999999999998" y="247.64999999999998" type="curve"/>
      <point x="344.70000000000005" y="33.1"/>
      <point x="403.4" y="-10.0"/>
    </contour>
    <contour>
      <point x="239.15" y="347.95" type="curve" smooth="yes"/>
      <point x="214.15" y="347.95"/>
      <point x="193.3" y="349.0"/>
      <point x="165.6" y="350.5" type="curve"/>
      <point x="165.6" y="601.35" type="line"/>
      <point x="199.95000000000002" y="604.85"/>
      <point x="216.1" y="605.4"/>
      <point x="244.14999999999998" y="605.4" type="curve" smooth="yes"/>
      <point x="331.15" y="605.4"/>
      <point x="356.6" y="569.4999999999999"/>
      <point x="356.6" y="478.79999999999995" type="curve" smooth="yes"/>
      <point x="356.6" y="386.9"/>
      <point x="319.5" y="347.95"/>
    </contour>
  </outline>
</glyph>
<glyph name="S" format="2">
  <advance width="465.85"/>
  <unicode hex="0053"/>
  <anchor x="237.62500000000003" y="700.0" name="top"/>
  <anchor x="228.77000000000004" y="0.0" name="bottom"/>
  <outline>
    <contour>
      <point x="422.5450000000001" y="680.2199999999999" type="line"/>
      <point x="385.97" y="695.225"/>
      <point x="313.785" y="710.0"/>
      <point x="248.95" y="710.0" type="curve" smooth="yes"/>
      <point x="92.75" y="710.0"/>
      <point x="26.06" y="625.3050000000001"/>
      <point x="26.06" y="522.195" type="curve" smooth="yes"/>
      <point x="26.06" y="421.15"/>
      <point x="77.1" y="360.81"/>
      <point x="167.73499999999999" y="312.26" type="curve" smooth="yes"/>
      <point x="267.03" y="262.49999999999994"/>
      <point x="324.165" y="230.58499999999998"/>
      <point x="324.165" y="173.46499999999997" type="curve" smooth="yes"/>
      <point x="324.165" y="121.28"/>
      <point x="282.08" y="94.56"/>
      <point x="211.435" y="94.56" type="curve" smooth="yes"/>
      <point x="159.685" y="94.56"/>
      <point x="93.83" y="106.19500000000001"/>
      <point x="36.985" y="126.75" type="curve"/>
      <point x="11.995" y="26.91" type="line"/>
      <point x="69.89" y="2.415"/>
      <point x="148.095" y="-10.0"/>
      <point x="210.07" y="-10.0" type="curve" smooth="yes"/>
      <point x="362.3" y="-10.0"/>
      <point x="446.755" y="63.23500000000001"/>
      <point x="446.755" y="181.425" type="curve" smooth="yes"/>
      <point x="446.755" y="287.705"/>
      <point x="389.985" y="344.54"/>
      <point x="289.14000000000004" y="392.0" type="curve" smooth="yes"/>
      <point x="195.43500000000003" y="436.3"/>
      <point x="149.84999999999997" y="468.44"/>
      <point x="149.84999999999997" y="524.83" type="curve" smooth="yes"/>
      <point x="149.84999999999997" y="575.98"/>
      <point x="189.45499999999998" y="603.0300000000001"/>
      <point x="254.795" y="603.0300000000001" type="curve" smooth="yes"/>
      <point x="301.56" y="603.0300000000001"/>
      <point x="355.78499999999997" y="595.0300000000001"/>
      <point x="397.83000000000004" y="579.475" type="curve"/>
    </contour>
  </outline>
</glyph>
<glyph name="U" format="2">
  <advance width="521.9000000000001"/>
  <unicode hex="0055"/>
  <anchor x="326.51" y="0.8800000000000001" name="ogonek"/>
  <anchor x="261.35" y="700.0" name="top"/>
  <anchor x="481.86" y="700.0" name="topright"/>
  <anchor x="261.35" y="0.0" name="bottom"/>
  <outline>
    <contour>
      <point x="40.040000000000006" y="197.12000000000003" type="line"/>
      <point x="40.040000000000006" y="41.00000000000001"/>
      <point x="129.16" y="-10.0"/>
      <point x="260.46999999999997" y="-10.0" type="curve" smooth="yes"/>
      <point x="394.86" y="-10.0"/>
      <point x="481.86" y="41.00000000000001"/>
      <point x="481.86" y="197.12000000000003" type="curve" smooth="yes"/>
      <point x="481.86" y="700.0" type="line"/>
      <point x="360.66" y="700.0" type="line"/>
      <point x="360.66" y="189.64000000000001" type="line" smooth="yes"/>
      <point x="360.66" y="115.75999999999999"/>
      <point x="315.56" y="95.91000000000001"/>
      <point x="260.79999999999995" y="95.91000000000001" type="curve" smooth="yes"/>
      <point x="207.24999999999997" y="95.91000000000001"/>
      <point x="160.36000000000004" y="114.77"/>
      <point x="160.36000000000004" y="189.64000000000001" type="curve" smooth="yes"/>
      <point x="160.36000000000004" y="700.0" type="line"/>
      <point x="40.040000000000006" y="700.0" type="line"/>
    </contour>
  </outline>
</glyph>
<glyph name="V" format="2">
  <advance width="496.63000000000005"/>
  <unicode hex="0056"/>
  <outline>
    <contour>
      <point x="176.20999999999998" y="0.0" type="line"/>
      <point x="323.95" y="0.0" type="line"/>
      <point x="493.33000000000004" y="699.55" type="line"/>
      <point x="364.06" y="701.4599999999999" type="line"/>
      <point x="250.3" y="124.80000000000001" type="line"/>
      <point x="133.0" y="701.4599999999999" type="line"/>
      <point x="3.2999999999999994" y="699.55" type="line"/>
    </contour>
  </outline>
</glyph>
<glyph name="W" format="2">
  <advance width="649.1"/>
  <unicode hex="0057"/>
  <anchor x="324.35" y="700.0" name="top"/>
  <anchor x="324.35" y="0.0" name="bottom"/>
  <outline>
    <contour>
      <point x="533.82" y="0.0" type="line"/>
      <point x="645.36" y="699.83" type="line"/>
      <point x="513.87" y="701.18" type="line"/>
      <point x="466.76" y="148.53" type="line"/>
      <point x="376.01000000000005" y="667.8599999999999" type="line"/>
      <point x="277.90000000000003" y="667.8599999999999" type="line"/>
      <point x="185.28000000000003" y="148.19000000000003" type="line"/>
      <point x="134.57000000000002" y="701.18" type="line"/>
      <point x="3.7399999999999984" y="699.83" type="line"/>
      <point x="113.67999999999999" y="0.0" type="line"/>
      <point x="238.6" y="0.0" type="line"/>
      <point x="322.16999999999996" y="465.75000000000006" type="line"/>
      <point x="401.59000000000003" y="0.0" type="line"/>
    </contour>
  </outline>
</glyph>
<glyph name="X" format="2">
  <advance width="502.13999999999993"/>
  <unicode hex="0058"/>
  <outline>
    <contour>
      <point x="6.74" y="1.3299999999999998" type="line"/>
      <point x="148.76000000000002" y="-2.27" type="line"/>
      <point x="250.305" y="269.16499999999996" type="line"/>
      <point x="350.85" y="-2.27" type="line"/>
      <point x="493.40500000000003" y="1.3299999999999998" type="line"/>
      <point x="335.70000000000005" y="359.105" type="line"/>
      <point x="484.355" y="698.4449999999999" type="line"/>
      <point x="346.30499999999995" y="701.5949999999999" type="line"/>
      <point x="255.96499999999997" y="445.55" type="line"/>
      <point x="162.54000000000002" y="701.5949999999999" type="line"/>
      <point x="19.935" y="698.4449999999999" type="line"/>
      <point x="169.83999999999997" y="357.66" type="line"/>
    </contour>
  </outline>
</glyph>
<glyph name="Y" format="2">
  <advance width="491.40000000000003"/>
  <unicode hex="0059"/>
  <anchor x="246.06" y="700.0" name="top"/>
  <anchor x="246.33" y="0.0" name="bottom"/>
  <outline>
    <contour>
      <point x="185.87000000000003" y="0.0" type="line"/>
      <point x="307.07000000000005" y="0.0" type="line"/>
      <point x="307.07000000000005" y="257.95" type="line"/>
      <point x="487.22" y="698.1999999999999" type="line"/>
      <point x="352.06" y="701.8000000000001" type="line"/>
      <point x="246.91" y="343.15999999999997" type="line"/>
      <point x="138.34" y="701.8000000000001" type="line"/>
      <point x="2.7399999999999993" y="698.1999999999999" type="line"/>
      <point x="185.87000000000003" y="257.95" type="line"/>
    </contour>
  </outline>
</glyph>
<glyph name="Z" format="2">
  <advance width="464.9"/>
  <unicode hex="005A"/>
  <anchor x="235.54999999999998" y="350.0" name="center"/>
  <anchor x="235.54999999999998" y="0.0" name="bottom"/>
  <anchor x="237.38000000000002" y="700.0" name="top"/>
  <outline>
    <contour>
      <point x="18.189999999999998" y="0.0" type="line"/>
      <point x="449.17" y="0.0" type="line"/>
      <point x="449.17" y="107.96000000000001" type="line"/>
      <point x="150.33" y="107.96000000000001" type="line"/>
      <point x="150.33" y="109.43000000000002" type="line"/>
      <point x="434.4200000000001" y="592.7" type="line"/>
      <point x="434.4200000000001" y="700.0" type="line"/>
      <point x="30.78" y="700.0" type="line"/>
      <point x="30.78" y="592.4899999999999" type="line"/>
      <point x="302.7" y="592.4899999999999" type="line"/>
      <point x="302.7" y="590.5699999999999" type="line"/>
      <point x="18.189999999999998" y="107.75" type="line"/>
    </contour>
  </outline>
</glyph>
<glyph name="bracketleft" format="2">
  <advance width="263.65999999999997"/>
  <unicode hex="005B"/>
  <outline>
    <contour>
      <point x="134.57" y="-118.5" type="line"/>
      <point x="134.57" y="648.5" type="line"/>
      <point x="249.66000000000003" y="648.5" type="line"/>
      <point x="249.66000000000003" y="740.0" type="line"/>
      <point x="41.75" y="740.0" type="line"/>
      <point x="41.75" y="-210.0" type="line"/>
      <point x="249.66000000000003" y="-210.0" type="line"/>
      <point x="249.66000000000003" y="-118.5" type="line"/>
    </contour>
  </outline>
</glyph>
<glyph name="backslash" format="2">
  <advance width="350.72999999999996"/>
  <unicode hex="005C"/>
  <outline>
    <contour>
      <point x="97.89000000000001" y="740.0" type="line"/>
      <point x="-1.6800000000000002" y="740.0" type="line"/>
      <point x="253.28" y="-210.0" type="line"/>
      <point x="352.41" y="-210.0" type="line"/>
    </contour>
  </outline>
</glyph>
<glyph name="bracketright" format="2">
  <advance width="263.65999999999997"/>
  <unicode hex="005D"/>
  <outline>
    <contour>
      <point x="14.0" y="-118.5" type="line"/>
      <point x="14.0" y="-210.0" type="line"/>
      <point x="221.90999999999997" y="-210.0" type="line"/>
      <point x="221.90999999999997" y="740.0" type="line"/>
      <point x="14.0" y="740.0" type="line"/>
      <point x="14.0" y="648.5" type="line"/>
      <point x="129.09" y="648.5" type="line"/>
      <point x="129.09" y="-118.5" type="line"/>
    </contour>
  </outline>
</glyph>
<glyph name="asciicircum" format="2">
  <advance width="454.42"/>
  <unicode hex="005E"/>
  <outline>
    <contour>
      <point x="44.25" y="253.97999999999996" type="line"/>
      <point x="134.73000000000002" y="253.97999999999996" type="line"/>
      <point x="227.21" y="581.23" type="line"/>
      <point x="320.23999999999995" y="253.97999999999996" type="line"/>
      <point x="410.17" y="253.97999999999996" type="line"/>
      <point x="284.07" y="704.5" type="line"/>
      <point x="170.35000000000002" y="704.5" type="line"/>
    </contour>
  </outline>
</glyph>
<glyph name="underscore" format="2">
  <advance width="698.7199999999999"/>
  <unicode hex="005F"/>
  <outline>
    <contour>
      <point x="11.0" y="-176.26000000000002" type="line"/>
      <point x="687.7199999999999" y="-176.26000000000002" type="line"/>
      <point x="687.7199999999999" y="-74.86" type="line"/>
      <point x="11.0" y="-74.86" type="line"/>
    </contour>
  </outline>
</glyph>
<glyph name="a" format="2">
  <advance width="443.90000000000003"/>
  <unicode hex="0061"/>
  <anchor x="441.8" y="9.600000000000001" name="ogonek"/>
  <anchor x="218.05" y="0.0" name="bottom"/>
  <anchor x="214.75" y="541.0" name="top"/>
  <outline>
    <contour>
      <point x="16.2" y="140.0" type="curve" smooth="yes"/>
      <point x="16.2" y="52.4"/>
      <point x="60.45" y="-10.0"/>
      <point x="141.4" y="-10.0" type="curve" smooth="yes"/>
      <point x="202.05000000000004" y="-10.0"/>
      <point x="242.45" y="12.749999999999996"/>
      <point x="280.55" y="46.15" type="curve"/>
      <point x="293.25" y="8.55"/>
      <point x="320.19999999999993" y="-10.0"/>
      <point x="366.90000000000003" y="-10.0" type="curve" smooth="yes"/>
      <point x="398.59999999999997" y="-10.0"/>
      <point x="421.8" y="-2.049999999999999"/>
      <point x="441.8" y="10.05" type="curve"/>
      <point x="431.75" y="107.05000000000001" type="line"/>
      <point x="424.65000000000003" y="103.35000000000001"/>
      <point x="416.35" y="102.35"/>
      <point x="409.55" y="102.35" type="curve" smooth="yes"/>
      <point x="396.65000000000003" y="102.35"/>
      <point x="387.5" y="110.35000000000001"/>
      <point x="387.5" y="141.8" type="curve" smooth="yes"/>
      <point x="387.5" y="375.1" type="line" smooth="yes"/>
      <point x="387.5" y="488.95"/>
      <point x="331.40000000000003" y="551.0"/>
      <point x="197.0" y="551.0" type="curve" smooth="yes"/>
      <point x="150.45000000000002" y="551.0"/>
      <point x="90.1" y="540.4"/>
      <point x="41.2" y="522.9" type="curve"/>
      <point x="64.19999999999999" y="420.15" type="line"/>
      <point x="114.45" y="436.25"/>
      <point x="157.05" y="440.3"/>
      <point x="186.45000000000002" y="440.3" type="curve" smooth="yes"/>
      <point x="238.5" y="440.3"/>
      <point x="270.9" y="416.65"/>
      <point x="270.9" y="372.55" type="curve" smooth="yes"/>
      <point x="270.9" y="317.0" type="line"/>
      <point x="103.45" y="298.20000000000005"/>
      <point x="16.2" y="266.05"/>
    </contour>
    <contour>
      <point x="132.75" y="150.35" type="curve" smooth="yes"/>
      <point x="132.75" y="219.04999999999998"/>
      <point x="188.39999999999998" y="233.85"/>
      <point x="270.9" y="242.4" type="curve"/>
      <point x="270.9" y="119.20000000000002" type="line"/>
      <point x="249.14999999999998" y="95.45"/>
      <point x="215.50000000000003" y="79.55000000000001"/>
      <point x="184.55" y="79.55000000000001" type="curve" smooth="yes"/>
      <point x="152.8" y="79.55000000000001"/>
      <point x="132.75" y="102.35000000000001"/>
    </contour>
  </outline>
</glyph>
<glyph name="b" format="2">
  <advance width="454.44"/>
  <unicode hex="0062"/>
  <outline>
    <contour>
      <point x="41.3" y="14.22" type="line"/>
      <point x="101.55000000000001" y="-1.1699999999999995"/>
      <point x="161.45" y="-10.0"/>
      <point x="210.16000000000003" y="-10.0" type="curve" smooth="yes"/>
      <point x="366.89000000000004" y="-10.0"/>
      <point x="429.75" y="71.92999999999999"/>
      <point x="429.75" y="285.06" type="curve" smooth="yes"/>
      <point x="429.75" y="461.71000000000004"/>
      <point x="377.84999999999997" y="551.0"/>
      <point x="277.0" y="551.0" type="curve" smooth="yes"/>
      <point x="238.65999999999997" y="551.0"/>
      <point x="196.56000000000003" y="537.28"/>
      <point x="160.3" y="513.2" type="curve"/>
      <point x="160.3" y="740.0" type="line"/>
      <point x="41.3" y="740.0" type="line"/>
    </contour>
    <contour>
      <point x="160.3" y="90.35000000000001" type="curve"/>
      <point x="160.3" y="419.09999999999997" type="line"/>
      <point x="189.44" y="437.51"/>
      <point x="210.46" y="444.6"/>
      <point x="235.05" y="444.6" type="curve" smooth="yes"/>
      <point x="281.32" y="444.6"/>
      <point x="305.47" y="394.18"/>
      <point x="305.47" y="274.28000000000003" type="curve" smooth="yes"/>
      <point x="305.47" y="126.81"/>
      <point x="279.59" y="81.98"/>
      <point x="215.73000000000002" y="81.98" type="curve" smooth="yes"/>
      <point x="199.68" y="81.98"/>
      <point x="182.85000000000002" y="84.5"/>
    </contour>
  </outline>
</glyph>
<glyph name="c" format="2">
  <advance width="395.51000000000005"/>
  <unicode hex="0063"/>
  <anchor x="234.55" y="541.0" name="top"/>
  <anchor x="237.66000000000003" y="0.0" name="bottom"/>
  <outline>
    <contour>
      <point x="25.139999999999997" y="265.58" type="curve" smooth="yes"/>
      <point x="25.139999999999997" y="77.22"/>
      <point x="93.16999999999999" y="-10.0"/>
      <point x="233.11000000000004" y="-10.0" type="curve" smooth="yes"/>
      <point x="282.87" y="-10.0"/>
      <point x="343.28000000000003" y="-1.1499999999999997"/>
      <point x="380.74000000000007" y="11.230000000000002" type="curve"/>
      <point x="358.91" y="109.44" type="line"/>
      <point x="325.61" y="102.16000000000001"/>
      <point x="290.66" y="97.49000000000001"/>
      <point x="259.97" y="97.49000000000001" type="curve" smooth="yes"/>
      <point x="187.81" y="97.49000000000001"/>
      <point x="147.62" y="137.83"/>
      <point x="147.62" y="267.37" type="curve" smooth="yes"/>
      <point x="147.62" y="402.79"/>
      <point x="186.83" y="442.96999999999997"/>
      <point x="261.46" y="442.96999999999997" type="curve" smooth="yes"/>
      <point x="291.35" y="442.96999999999997"/>
      <point x="323.76000000000005" y="439.04999999999995"/>
      <point x="354.21000000000004" y="432.1" type="curve"/>
      <point x="372.5" y="534.37" type="line"/>
      <point x="339.40000000000003" y="545.0000000000001"/>
      <point x="288.32" y="551.0"/>
      <point x="243.95" y="551.0" type="curve" smooth="yes"/>
      <point x="99.31" y="551.0"/>
      <point x="25.139999999999997" y="459.34000000000003"/>
    </contour>
  </outline>
</glyph>
<glyph name="d" format="2">
  <advance width="455.08"/>
  <unicode hex="0064"/>
  <anchor x="227.03" y="275.0" name="center"/>
  <anchor x="224.325" y="740.0" name="top"/>
  <anchor x="465.58" y="740.0" name="topright"/>
  <anchor x="227.03" y="0.0" name="bottom"/>
  <outline>
    <contour>
      <point x="308.21" y="-0.53" type="line"/>
      <point x="414.005" y="-0.53" type="line"/>
      <point x="414.005" y="740.0" type="line"/>
      <point x="294.025" y="740.0" type="line"/>
      <point x="294.025" y="543.565" type="line"/>
      <point x="271.09" y="548.57"/>
      <point x="246.55" y="551.0"/>
      <point x="225.08999999999997" y="551.0" type="curve" smooth="yes"/>
      <point x="89.04" y="551.0"/>
      <point x="24.554999999999996" y="458.51"/>
      <point x="24.554999999999996" y="259.945" type="curve" smooth="yes"/>
      <point x="24.554999999999996" y="83.16"/>
      <point x="77.67" y="-10.0"/>
      <point x="175.835" y="-10.0" type="curve" smooth="yes"/>
      <point x="218.18" y="-10.0"/>
      <point x="258.83000000000004" y="3.0"/>
      <point x="295.97999999999996" y="28.455000000000002" type="curve"/>
    </contour>
    <contour>
      <point x="294.005" y="119.52999999999999" type="line"/>
      <point x="266.275" y="102.89000000000001"/>
      <point x="244.195" y="95.57500000000002"/>
      <point x="220.0" y="95.57500000000002" type="curve" smooth="yes"/>
      <point x="174.01000000000002" y="95.57500000000002"/>
      <point x="149.77" y="147.70000000000002"/>
      <point x="149.77" y="274.02" type="curve" smooth="yes"/>
      <point x="149.77" y="414.19"/>
      <point x="175.33500000000004" y="457.15999999999997"/>
      <point x="238.44" y="457.15999999999997" type="curve" smooth="yes"/>
      <point x="255.31000000000003" y="457.15999999999997"/>
      <point x="271.59000000000003" y="454.9549999999999"/>
      <point x="294.005" y="447.83000000000004" type="curve"/>
    </contour>
  </outline>
</glyph>
<glyph name="e" format="2">
  <advance width="439.44"/>
  <unicode hex="0065"/>
  <anchor x="370.7300000000001" y="8.790000000000001" name="ogonek"/>
  <anchor x="227.54" y="0.0" name="bottom"/>
  <anchor x="229.07999999999998" y="541.0" name="top"/>
  <outline>
    <contour>
      <point x="229.73" y="-10.0" type="curve" smooth="yes"/>
      <point x="298.53000000000003" y="-10.0"/>
      <point x="355.82" y="-0.30999999999999983"/>
      <point x="410.07000000000005" y="20.31" type="curve"/>
      <point x="394.52" y="115.53999999999999" type="line"/>
      <point x="348.66" y="103.07000000000001"/>
      <point x="299.38" y="94.03000000000002"/>
      <point x="255.44" y="94.03000000000002" type="curve" smooth="yes"/>
      <point x="178.87" y="94.03000000000002"/>
      <point x="147.54999999999998" y="129.01000000000002"/>
      <point x="147.51" y="221.62" type="curve" smooth="yes"/>
      <point x="147.51" y="226.83"/>
      <point x="147.50999999999996" y="231.49"/>
      <point x="147.96000000000004" y="236.7" type="curve"/>
      <point x="251.57" y="238.39000000000004"/>
      <point x="360.94000000000005" y="249.95999999999998"/>
      <point x="414.57" y="256.02" type="curve"/>
      <point x="415.14" y="271.13"/>
      <point x="416.12" y="298.09999999999997"/>
      <point x="416.12" y="309.09000000000003" type="curve" smooth="yes"/>
      <point x="416.12" y="481.21999999999997"/>
      <point x="359.98" y="551.0"/>
      <point x="237.25000000000003" y="551.0" type="curve" smooth="yes"/>
      <point x="108.7" y="551.0"/>
      <point x="24.779999999999998" y="476.57"/>
      <point x="24.779999999999998" y="258.4700000000001" type="curve" smooth="yes"/>
      <point x="24.779999999999998" y="68.79"/>
      <point x="95.16999999999999" y="-10.0"/>
    </contour>
    <contour>
      <point x="148.43" y="318.44000000000005" type="curve"/>
      <point x="155.5" y="433.78"/>
      <point x="189.25000000000003" y="459.54"/>
      <point x="229.93" y="459.54" type="curve" smooth="yes"/>
      <point x="274.72" y="459.54"/>
      <point x="296.34000000000003" y="427.53999999999996"/>
      <point x="297.4" y="326.34999999999997" type="curve"/>
      <point x="274.21000000000004" y="323.53"/>
      <point x="210.00000000000003" y="318.93"/>
    </contour>
  </outline>
</glyph>
<glyph name="f" format="2">
  <advance width="311.33"/>
  <unicode hex="0066"/>
  <outline>
    <contour>
      <point x="76.31" y="0.0" type="line"/>
      <point x="193.11" y="0.0" type="line"/>
      <point x="193.11" y="409.47" type="line"/>
      <point x="295.95" y="409.47" type="line"/>
      <point x="295.95" y="503.8" type="line"/>
      <point x="193.55" y="503.8" type="line"/>
      <point x="193.55" y="523.13" type="line" smooth="yes"/>
      <point x="193.55" y="612.97"/>
      <point x="219.23000000000002" y="648.9399999999999"/>
      <point x="271.0" y="648.9399999999999" type="curve" smooth="yes"/>
      <point x="290.48999999999995" y="648.9399999999999"/>
      <point x="311.57000000000005" y="645.74"/>
      <point x="335.76000000000005" y="638.3299999999999" type="curve"/>
      <point x="353.05000000000007" y="728.1199999999999" type="line"/>
      <point x="314.11" y="743.72"/>
      <point x="279.51" y="750.09"/>
      <point x="241.49" y="750.09" type="curve" smooth="yes"/>
      <point x="133.35999999999999" y="750.09"/>
      <point x="76.31" y="676.36"/>
      <point x="76.31" y="524.67" type="curve" smooth="yes"/>
      <point x="76.31" y="503.8" type="line"/>
      <point x="11.75" y="495.90999999999997" type="line"/>
      <point x="11.75" y="409.47" type="line"/>
      <point x="76.31" y="409.47" type="line"/>
    </contour>
  </outline>
</glyph>
<glyph name="g" format="2">
  <advance width="456.80999999999995"/>
  <unicode hex="0067"/>
  <anchor x="216.82000000000005" y="541.0" name="top"/>
  <anchor x="223.61999999999998" y="-212.0" name="bottom"/>
  <outline>
    <contour>
      <point x="208.99" y="-220.0" type="curve" smooth="yes"/>
      <point x="360.05" y="-220.0"/>
      <point x="441.88000000000005" y="-152.59"/>
      <point x="441.88000000000005" y="-38.75" type="curve" smooth="yes"/>
      <point x="441.88000000000005" y="53.790000000000006"/>
      <point x="390.54999999999995" y="107.74000000000002"/>
      <point x="296.38" y="107.74000000000002" type="curve" smooth="yes"/>
      <point x="183.64000000000004" y="107.74000000000002" type="line" smooth="yes"/>
      <point x="145.36" y="107.74000000000002"/>
      <point x="126.60999999999999" y="121.99999999999999"/>
      <point x="126.60999999999999" y="149.25" type="curve" smooth="yes"/>
      <point x="126.60999999999999" y="175.58"/>
      <point x="139.75" y="189.94"/>
      <point x="166.26" y="205.92999999999998" type="curve"/>
      <point x="101.74" y="229.29999999999998" type="line"/>
      <point x="60.9" y="202.6"/>
      <point x="34.559999999999995" y="167.77"/>
      <point x="34.559999999999995" y="116.00999999999999" type="curve" smooth="yes"/>
      <point x="34.559999999999995" y="46.4"/>
      <point x="86.67" y="1.8299999999999976"/>
      <point x="176.68" y="1.8299999999999976" type="curve" smooth="yes"/>
      <point x="263.7100000000001" y="1.8299999999999976" type="line" smooth="yes"/>
      <point x="312.38" y="1.8299999999999976"/>
      <point x="330.78" y="-16.04"/>
      <point x="330.78" y="-51.970000000000006" type="curve" smooth="yes"/>
      <point x="330.78" y="-97.63"/>
      <point x="291.69" y="-124.56999999999998"/>
      <point x="217.27" y="-124.56999999999998" type="curve" smooth="yes"/>
      <point x="144.91" y="-124.56999999999998"/>
      <point x="112.51000000000002" y="-101.03999999999998"/>
      <point x="112.51000000000002" y="-53.47" type="curve" smooth="yes"/>
      <point x="112.51000000000002" y="-21.589999999999996"/>
      <point x="127.82000000000001" y="-2.1900000000000013"/>
      <point x="155.28000000000003" y="15.549999999999999" type="curve"/>
      <point x="86.23" y="40.54" type="line"/>
      <point x="39.650000000000006" y="14.299999999999997"/>
      <point x="14.66" y="-24.93"/>
      <point x="14.66" y="-80.52" type="curve" smooth="yes"/>
      <point x="14.66" y="-172.3"/>
      <point x="82.58" y="-220.0"/>
    </contour>
    <contour>
      <point x="218.25000000000003" y="184.46999999999997" type="curve" smooth="yes"/>
      <point x="336.09000000000003" y="184.46999999999997"/>
      <point x="397.4100000000001" y="246.48"/>
      <point x="397.4100000000001" y="367.52" type="curve" smooth="yes"/>
      <point x="397.4100000000001" y="489.00999999999993"/>
      <point x="336.09000000000003" y="551.02"/>
      <point x="218.25000000000003" y="551.02" type="curve" smooth="yes"/>
      <point x="99.96" y="551.02"/>
      <point x="38.63999999999999" y="489.00999999999993"/>
      <point x="38.63999999999999" y="367.52" type="curve" smooth="yes"/>
      <point x="38.63999999999999" y="246.48"/>
      <point x="99.96" y="184.46999999999997"/>
    </contour>
    <contour>
      <point x="218.25000000000003" y="271.80000000000007" type="curve" smooth="yes"/>
      <point x="174.3" y="271.80000000000007"/>
      <point x="153.19" y="297.68999999999994"/>
      <point x="153.19" y="367.52" type="curve" smooth="yes"/>
      <point x="153.19" y="438.25"/>
      <point x="174.3" y="464.14"/>
      <point x="218.25000000000003" y="464.14" type="curve" smooth="yes"/>
      <point x="262.19999999999993" y="464.14"/>
      <point x="282.8599999999999" y="438.25"/>
      <point x="282.8599999999999" y="367.52" type="curve" smooth="yes"/>
      <point x="282.8599999999999" y="297.68999999999994"/>
      <point x="262.19999999999993" y="271.80000000000007"/>
    </contour>
    <contour>
      <point x="365.05000000000007" y="434.55999999999995" type="line"/>
      <point x="376.65000000000003" y="458.09"/>
      <point x="392.1900000000001" y="468.85"/>
      <point x="411.5700000000001" y="468.85" type="curve" smooth="yes"/>
      <point x="421.81" y="468.85"/>
      <point x="430.07" y="467.75"/>
      <point x="437.82" y="465.71000000000004" type="curve"/>
      <point x="453.12" y="564.7900000000001" type="line"/>
      <point x="441.58" y="569.6199999999999"/>
      <point x="427.25000000000006" y="572.3700000000001"/>
      <point x="411.51000000000005" y="572.3700000000001" type="curve" smooth="yes"/>
      <point x="369.3" y="572.3700000000001"/>
      <point x="337.53000000000003" y="551.66"/>
      <point x="319.6" y="510.22999999999996" type="curve"/>
    </contour>
  </outline>
</glyph>
<glyph name="h" format="2">
  <advance width="455.8949999999999"/>
  <unicode hex="0068"/>
  <anchor x="226.735" y="395.0" name="center"/>
  <anchor x="227.835" y="0.0" name="bottom"/>
  <anchor x="231.89499999999998" y="740.0" name="top"/>
  <outline>
    <contour>
      <point x="41.074999999999996" y="0.0" type="line"/>
      <point x="160.75" y="0.0" type="line"/>
      <point x="160.75" y="418.53999999999996" type="line"/>
      <point x="186.79999999999998" y="433.15"/>
      <point x="212.795" y="442.71500000000003"/>
      <point x="239.36000000000004" y="442.71500000000003" type="curve" smooth="yes"/>
      <point x="275.29" y="442.71500000000003"/>
      <point x="295.45000000000005" y="422.90999999999997"/>
      <point x="295.45000000000005" y="380.38499999999993" type="curve" smooth="yes"/>
      <point x="295.45000000000005" y="0.0" type="line"/>
      <point x="415.43" y="0.0" type="line"/>
      <point x="415.43" y="414.44499999999994" type="line" smooth="yes"/>
      <point x="415.43" y="508.17999999999995"/>
      <point x="368.435" y="551.0"/>
      <point x="291.5" y="551.0" type="curve" smooth="yes"/>
      <point x="245.835" y="551.0"/>
      <point x="202.67" y="535.8549999999999"/>
      <point x="160.75" y="506.31500000000005" type="curve"/>
      <point x="160.75" y="740.0" type="line"/>
      <point x="41.074999999999996" y="740.0" type="line"/>
    </contour>
  </outline>
</glyph>
<glyph name="i" format="2">
  <advance width="201.6"/>
  <unicode hex="0069"/>
  <anchor x="160.21" y="0.0" name="ogonek"/>
  <anchor x="101.02000000000001" y="0.0" name="bottom"/>
  <outline>
    <contour>
      <point x="101.02000000000001" y="617.71" type="curve" smooth="yes"/>
      <point x="149.96" y="617.71"/>
      <point x="170.51000000000002" y="638.62"/>
      <point x="170.51000000000002" y="685.86" type="curve" smooth="yes"/>
      <point x="170.51000000000002" y="733.98"/>
      <point x="149.08" y="754.45"/>
      <point x="101.02000000000001" y="754.45" type="curve" smooth="yes"/>
      <point x="52.52" y="754.45"/>
      <point x="31.089999999999996" y="733.98"/>
      <point x="31.089999999999996" y="685.86" type="curve" smooth="yes"/>
      <point x="31.089999999999996" y="638.1800000000001"/>
      <point x="52.97" y="617.71"/>
    </contour>
    <contour>
      <point x="41.3" y="0.0" type="line"/>
      <point x="160.3" y="0.0" type="line"/>
      <point x="160.3" y="541.0" type="line"/>
      <point x="41.3" y="541.0" type="line"/>
    </contour>
  </outline>
</glyph>
<glyph name="j" format="2">
  <advance width="204.5"/>
  <unicode hex="006A"/>
  <outline>
    <contour>
      <point x="163.29000000000002" y="541.0" type="line"/>
      <point x="44.28999999999999" y="541.0" type="line"/>
      <point x="44.28999999999999" y="24.89" type="line" smooth="yes"/>
      <point x="44.28999999999999" y="-45.33999999999999"/>
      <point x="28.75" y="-81.39"/>
      <point x="-5.420000000000001" y="-95.78999999999999" type="curve" smooth="yes"/>
      <point x="-13.950000000000003" y="-98.12999999999998"/>
      <point x="-21.6" y="-98.69999999999999"/>
      <point x="-31.9" y="-97.94" type="curve"/>
      <point x="-40.74" y="-206.31" type="line"/>
      <point x="-17.640000000000004" y="-209.65"/>
      <point x="6.3100000000000005" y="-209.92"/>
      <point x="26.120000000000005" y="-207.22" type="curve" smooth="yes"/>
      <point x="123.58000000000001" y="-190.75"/>
      <point x="163.29000000000002" y="-117.28000000000002"/>
      <point x="163.29000000000002" y="17.080000000000002" type="curve" smooth="yes"/>
    </contour>
    <contour>
      <point x="103.83000000000001" y="617.71" type="curve" smooth="yes"/>
      <point x="152.41" y="617.71"/>
      <point x="173.32" y="638.62"/>
      <point x="173.32" y="685.86" type="curve" smooth="yes"/>
      <point x="173.32" y="733.98"/>
      <point x="151.53" y="754.45"/>
      <point x="103.83000000000001" y="754.45" type="curve" smooth="yes"/>
      <point x="55.33" y="754.45"/>
      <point x="33.9" y="733.98"/>
      <point x="33.9" y="685.86" type="curve" smooth="yes"/>
      <point x="33.9" y="638.1800000000001"/>
      <point x="55.78" y="617.71"/>
    </contour>
  </outline>
</glyph>
<glyph name="k" format="2">
  <advance width="433.3"/>
  <unicode hex="006B"/>
  <anchor x="97.64999999999999" y="740.0" name="top"/>
  <anchor x="228.3" y="0.0" name="bottom"/>
  <outline>
    <contour>
      <point x="395.20000000000005" y="-8.75" type="curve" smooth="yes"/>
      <point x="407.0" y="-8.75"/>
      <point x="417.40000000000003" y="-7.749999999999999"/>
      <point x="428.05" y="-5.1499999999999995" type="curve"/>
      <point x="426.65000000000003" y="119.9" type="line"/>
      <point x="422.25" y="119.9"/>
      <point x="418.0" y="119.0"/>
      <point x="414.6" y="119.0" type="curve" smooth="yes"/>
      <point x="386.95" y="119.0"/>
      <point x="362.8" y="135.70000000000002"/>
      <point x="285.84999999999997" y="232.75" type="curve" smooth="yes"/>
      <point x="153.1" y="401.95" type="line"/>
      <point x="153.1" y="740.0" type="line"/>
      <point x="42.2" y="740.0" type="line"/>
      <point x="42.2" y="0.0" type="line"/>
      <point x="153.1" y="0.0" type="line"/>
      <point x="153.1" y="222.7" type="line"/>
      <point x="256.2" y="94.8" type="line" smooth="yes"/>
      <point x="327.55" y="5.4"/>
      <point x="353.4" y="-8.75"/>
    </contour>
    <contour>
      <point x="240.00000000000003" y="230.1" type="line"/>
      <point x="312.85" y="316.45"/>
      <point x="393.15" y="428.2"/>
      <point x="417.1" y="541.2500000000001" type="curve"/>
      <point x="301.8" y="550.0" type="line"/>
      <point x="282.55000000000007" y="441.9"/>
      <point x="227.10000000000002" y="370.45"/>
      <point x="157.7" y="293.85" type="curve"/>
    </contour>
  </outline>
</glyph>
<glyph name="l" format="2">
  <advance width="242.23"/>
  <unicode hex="006C"/>
  <anchor x="121.44999999999999" y="395.0" name="center"/>
  <anchor x="101.02000000000001" y="740.0" name="top"/>
  <anchor x="212.1" y="740.0" name="topright"/>
  <anchor x="141.45000000000002" y="0.0" name="bottom"/>
  <outline>
    <contour>
      <point x="160.3" y="740.0" type="line"/>
      <point x="41.3" y="740.0" type="line"/>
      <point x="41.3" y="149.26999999999998" type="line" smooth="yes"/>
      <point x="41.3" y="29.450000000000003"/>
      <point x="81.83" y="-10.0"/>
      <point x="163.07000000000002" y="-10.0" type="curve" smooth="yes"/>
      <point x="193.98999999999998" y="-10.0"/>
      <point x="222.16" y="-0.9499999999999995"/>
      <point x="242.57" y="9.250000000000002" type="curve"/>
      <point x="232.63000000000002" y="106.66000000000001" type="line"/>
      <point x="218.62" y="102.62"/>
      <point x="207.27" y="100.64000000000001"/>
      <point x="198.16" y="100.64000000000001" type="curve" smooth="yes"/>
      <point x="175.58" y="100.64000000000001"/>
      <point x="160.3" y="111.01"/>
      <point x="160.3" y="162.69" type="curve" smooth="yes"/>
    </contour>
  </outline>
</glyph>
<glyph name="m" format="2">
  <advance width="685.09"/>
  <unicode hex="006D"/>
  <outline>
    <contour>
      <point x="41.3" y="0.0" type="line"/>
      <point x="160.74" y="0.0" type="line"/>
      <point x="160.74" y="419.53000000000003" type="line"/>
      <point x="182.94" y="433.21000000000004"/>
      <point x="206.26999999999998" y="442.39000000000004"/>
      <point x="230.20000000000002" y="442.39000000000004" type="curve" smooth="yes"/>
      <point x="268.58" y="442.39000000000004"/>
      <point x="283.48999999999995" y="416.28000000000003"/>
      <point x="283.48999999999995" y="380.15999999999997" type="curve" smooth="yes"/>
      <point x="283.48999999999995" y="0.0" type="line"/>
      <point x="402.93" y="0.0" type="line"/>
      <point x="402.93" y="387.41999999999996" type="line" smooth="yes"/>
      <point x="402.93" y="398.27"/>
      <point x="401.67" y="409.13"/>
      <point x="398.77000000000004" y="418.45" type="curve"/>
      <point x="420.06999999999994" y="431.81"/>
      <point x="445.52" y="442.95000000000005"/>
      <point x="472.02" y="442.95000000000005" type="curve" smooth="yes"/>
      <point x="510.65000000000003" y="442.95000000000005"/>
      <point x="525.2299999999999" y="416.85999999999996"/>
      <point x="525.2299999999999" y="380.52" type="curve" smooth="yes"/>
      <point x="525.2299999999999" y="0.0" type="line"/>
      <point x="644.6700000000001" y="0.0" type="line"/>
      <point x="644.6700000000001" y="416.59999999999997" type="line" smooth="yes"/>
      <point x="644.6700000000001" y="499.21"/>
      <point x="605.15" y="551.0"/>
      <point x="526.24" y="551.0" type="curve" smooth="yes"/>
      <point x="472.7" y="551.0"/>
      <point x="426.93" y="532.8"/>
      <point x="381.09000000000003" y="500.35999999999996" type="curve"/>
      <point x="362.36" y="532.6899999999999"/>
      <point x="331.1" y="550.55"/>
      <point x="283.21000000000004" y="550.55" type="curve" smooth="yes"/>
      <point x="238.05" y="550.55"/>
      <point x="194.63" y="536.41"/>
      <point x="149.85" y="505.3400000000001" type="curve"/>
      <point x="149.85" y="541.0" type="line"/>
      <point x="41.3" y="541.0" type="line"/>
    </contour>
  </outline>
</glyph>
<glyph name="n" format="2">
  <advance width="455.93000000000006"/>
  <unicode hex="006E"/>
  <anchor x="229.20000000000002" y="541.0" name="top"/>
  <anchor x="230.1" y="0.0" name="bottom"/>
  <outline>
    <contour>
      <point x="41.3" y="0.0" type="line"/>
      <point x="160.74" y="0.0" type="line"/>
      <point x="160.74" y="418.71999999999997" type="line"/>
      <point x="186.53" y="433.15999999999997"/>
      <point x="213.01000000000002" y="443.39000000000004"/>
      <point x="239.89" y="443.39000000000004" type="curve" smooth="yes"/>
      <point x="275.82" y="443.39000000000004"/>
      <point x="296.07" y="423.27"/>
      <point x="296.07" y="380.60999999999996" type="curve" smooth="yes"/>
      <point x="296.07" y="0.0" type="line"/>
      <point x="415.50999999999993" y="0.0" type="line"/>
      <point x="415.50999999999993" y="416.69" type="line" smooth="yes"/>
      <point x="415.50999999999993" y="503.86"/>
      <point x="371.82" y="551.0"/>
      <point x="291.58" y="551.0" type="curve" smooth="yes"/>
      <point x="242.51000000000002" y="551.0"/>
      <point x="198.39" y="536.6599999999999"/>
      <point x="149.85" y="504.62" type="curve"/>
      <point x="149.85" y="541.0" type="line"/>
      <point x="41.3" y="541.0" type="line"/>
    </contour>
  </outline>
</glyph>
<glyph name="o" format="2">
  <advance width="455.20000000000005"/>
  <unicode hex="006F"/>
  <anchor x="301.56" y="4.6" name="ogonek"/>
  <anchor x="227.60000000000002" y="541.0" name="top"/>
  <anchor x="339.41999999999996" y="531.9" name="topright"/>
  <anchor x="227.62000000000003" y="0.0" name="bottom"/>
  <outline>
    <contour>
      <point x="24.779999999999998" y="271.34" type="curve" smooth="yes"/>
      <point x="24.779999999999998" y="85.44"/>
      <point x="73.44" y="-10.0"/>
      <point x="227.62000000000003" y="-10.0" type="curve" smooth="yes"/>
      <point x="381.76" y="-10.0"/>
      <point x="430.41999999999996" y="85.44"/>
      <point x="430.41999999999996" y="271.34" type="curve" smooth="yes"/>
      <point x="430.41999999999996" y="454.64"/>
      <point x="385.18" y="551.0"/>
      <point x="227.62000000000003" y="551.0" type="curve" smooth="yes"/>
      <point x="69.84" y="551.0"/>
      <point x="24.779999999999998" y="454.64"/>
    </contour>
    <contour>
      <point x="148.2" y="271.31999999999994" type="curve" smooth="yes"/>
      <point x="148.2" y="413.28"/>
      <point x="168.18" y="449.22"/>
      <point x="227.60000000000002" y="449.22" type="curve" smooth="yes"/>
      <point x="286.6" y="449.22"/>
      <point x="306.82000000000005" y="413.28"/>
      <point x="306.82000000000005" y="271.31999999999994" type="curve" smooth="yes"/>
      <point x="306.82000000000005" y="127.63999999999999"/>
      <point x="284.5" y="92.22000000000001"/>
      <point x="227.60000000000002" y="92.22000000000001" type="curve" smooth="yes"/>
      <point x="170.26000000000002" y="92.22000000000001"/>
      <point x="148.2" y="127.63999999999999"/>
    </contour>
  </outline>
</glyph>
<glyph name="p" format="2">
  <advance width="454.88"/>
  <unicode hex="0070"/>
  <outline>
    <contour>
      <point x="41.3" y="-210.0" type="line"/>
      <point x="160.85000000000002" y="-210.0" type="line"/>
      <point x="160.85000000000002" y="-2.1600000000000006" type="line"/>
      <point x="185.86" y="-7.4799999999999995"/>
      <point x="209.68" y="-10.0"/>
      <point x="229.52" y="-10.0" type="curve" smooth="yes"/>
      <point x="365.57" y="-10.0"/>
      <point x="430.19" y="82.92999999999999"/>
      <point x="430.19" y="281.54" type="curve" smooth="yes"/>
      <point x="430.19" y="457.31"/>
      <point x="377.41" y="551.0"/>
      <point x="280.08000000000004" y="551.0" type="curve" smooth="yes"/>
      <point x="236.79" y="551.0"/>
      <point x="196.01" y="537.9399999999999"/>
      <point x="155.13000000000002" y="510.78" type="curve"/>
      <point x="149.85" y="544.6" type="line"/>
      <point x="41.3" y="544.6" type="line"/>
    </contour>
    <contour>
      <point x="216.17000000000002" y="83.74000000000001" type="curve" smooth="yes"/>
      <point x="199.68" y="83.74000000000001"/>
      <point x="182.85000000000002" y="86.7"/>
      <point x="160.74" y="93.43000000000002" type="curve"/>
      <point x="160.74" y="422.18" type="line"/>
      <point x="189.0" y="439.71000000000004"/>
      <point x="210.46" y="446.36000000000007"/>
      <point x="234.61" y="446.36000000000007" type="curve" smooth="yes"/>
      <point x="281.32" y="446.36000000000007"/>
      <point x="305.47" y="395.06"/>
      <point x="305.47" y="267.24" type="curve" smooth="yes"/>
      <point x="305.47" y="127.69000000000001"/>
      <point x="279.59" y="83.74000000000001"/>
    </contour>
  </outline>
</glyph>
<glyph name="q" format="2">
  <advance width="455.32"/>
  <unicode hex="0071"/>
  <outline>
    <contour>
      <point x="414.02" y="528.9" type="line"/>
      <point x="356.21" y="543.41"/>
      <point x="296.95" y="551.0"/>
      <point x="245.16" y="551.0" type="curve" smooth="yes"/>
      <point x="92.83" y="551.0"/>
      <point x="24.689999999999998" y="465.98999999999995"/>
      <point x="24.689999999999998" y="268.26" type="curve" smooth="yes"/>
      <point x="24.689999999999998" y="81.85"/>
      <point x="76.51" y="-10.0"/>
      <point x="178.32" y="-10.0" type="curve" smooth="yes"/>
      <point x="217.54" y="-10.0"/>
      <point x="259.64" y="3.7200000000000006"/>
      <point x="295.02" y="27.360000000000007" type="curve"/>
      <point x="295.02" y="-210.0" type="line"/>
      <point x="414.02" y="-210.0" type="line"/>
    </contour>
    <contour>
      <point x="294.58" y="449.41" type="curve"/>
      <point x="294.58" y="121.02000000000001" type="line"/>
      <point x="266.32" y="103.05000000000001"/>
      <point x="244.86" y="95.52000000000001"/>
      <point x="220.27" y="95.52000000000001" type="curve" smooth="yes"/>
      <point x="174.36" y="95.52000000000001"/>
      <point x="149.85" y="146.66"/>
      <point x="149.85" y="265.84" type="curve" smooth="yes"/>
      <point x="149.85" y="413.31000000000006"/>
      <point x="175.73000000000002" y="458.14"/>
      <point x="239.58999999999997" y="458.14" type="curve" smooth="yes"/>
      <point x="254.95000000000002" y="458.14"/>
      <point x="272.47" y="455.62"/>
    </contour>
  </outline>
</glyph>
<glyph name="r" format="2">
  <advance width="327.68"/>
  <unicode hex="0072"/>
  <anchor x="177.68" y="541.0" name="top"/>
  <anchor x="100.58" y="0.0" name="bottom"/>
  <outline>
    <contour>
      <point x="149.41" y="541.0" type="line"/>
      <point x="41.3" y="541.0" type="line"/>
      <point x="41.3" y="0.0" type="line"/>
      <point x="159.85999999999999" y="0.0" type="line"/>
      <point x="159.85999999999999" y="393.28000000000003" type="line"/>
      <point x="193.60000000000002" y="422.25"/>
      <point x="222.38" y="432.61"/>
      <point x="252.62" y="432.61" type="curve" smooth="yes"/>
      <point x="267.63" y="432.61"/>
      <point x="287.5" y="430.51"/>
      <point x="306.14" y="425.42" type="curve"/>
      <point x="326.34000000000003" y="541.4699999999999" type="line"/>
      <point x="306.08" y="548.48"/>
      <point x="286.96000000000004" y="551.0"/>
      <point x="269.42" y="551.0" type="curve" smooth="yes"/>
      <point x="222.51999999999998" y="551.0"/>
      <point x="190.04000000000002" y="532.38"/>
      <point x="149.41" y="488.98999999999995" type="curve"/>
    </contour>
  </outline>
</glyph>
<glyph name="s" format="2">
  <advance width="374.25"/>
  <unicode hex="0073"/>
  <anchor x="188.99999999999997" y="541.0" name="top"/>
  <anchor x="189.30000000000004" y="0.0" name="bottom"/>
  <outline>
    <contour>
      <point x="14.6" y="18.250000000000004" type="line"/>
      <point x="60.9" y="-1.0"/>
      <point x="112.3" y="-10.0"/>
      <point x="170.35" y="-10.0" type="curve" smooth="yes"/>
      <point x="281.74999999999994" y="-10.0"/>
      <point x="359.95" y="41.5"/>
      <point x="359.95" y="154.20000000000002" type="curve" smooth="yes"/>
      <point x="359.95" y="260.1"/>
      <point x="301.3" y="294.25"/>
      <point x="226.25" y="322.59999999999997" type="curve" smooth="yes"/>
      <point x="169.5" y="343.79999999999995"/>
      <point x="134.55" y="358.15"/>
      <point x="134.55" y="398.0" type="curve" smooth="yes"/>
      <point x="134.55" y="432.09999999999997"/>
      <point x="158.6" y="449.3"/>
      <point x="203.7" y="449.3" type="curve" smooth="yes"/>
      <point x="248.24999999999997" y="449.3"/>
      <point x="284.6000000000001" y="441.25"/>
      <point x="320.05" y="429.5" type="curve"/>
      <point x="336.95" y="526.9" type="line"/>
      <point x="302.0" y="541.25"/>
      <point x="252.45000000000002" y="551.0"/>
      <point x="202.09999999999997" y="551.0" type="curve" smooth="yes"/>
      <point x="84.8" y="551.0"/>
      <point x="21.5" y="491.45"/>
      <point x="21.5" y="386.40000000000003" type="curve" smooth="yes"/>
      <point x="21.5" y="304.15"/>
      <point x="63.9" y="257.9"/>
      <point x="137.1" y="230.35000000000002" type="curve" smooth="yes"/>
      <point x="202.54999999999998" y="206.45"/>
      <point x="244.75" y="188.74999999999997"/>
      <point x="244.75" y="145.55" type="curve" smooth="yes"/>
      <point x="244.75" y="109.60000000000001"/>
      <point x="219.29999999999998" y="89.50000000000001"/>
      <point x="169.25" y="89.50000000000001" type="curve" smooth="yes"/>
      <point x="125.15" y="89.50000000000001"/>
      <point x="65.15" y="99.10000000000001"/>
      <point x="29.550000000000004" y="113.05" type="curve"/>
    </contour>
  </outline>
</glyph>
<glyph name="t" format="2">
  <advance width="323.33000000000004"/>
  <unicode hex="0074"/>
  <anchor x="158.73999999999998" y="275.0" name="center"/>
  <anchor x="137.42000000000002" y="660.1600000000001" name="top"/>
  <anchor x="258.81" y="761.45" name="topright"/>
  <anchor x="187.16" y="0.0" name="bottom"/>
  <outline>
    <contour>
      <point x="204.43999999999997" y="-10.0" type="curve" smooth="yes"/>
      <point x="238.39" y="-10.0"/>
      <point x="279.24" y="-5.36"/>
      <point x="321.48" y="10.73" type="curve"/>
      <point x="304.32" y="106.15" type="line"/>
      <point x="283.17" y="100.30000000000001"/>
      <point x="264.0" y="97.2"/>
      <point x="245.94" y="97.2" type="curve" smooth="yes"/>
      <point x="206.89000000000001" y="97.2"/>
      <point x="188.95" y="117.12"/>
      <point x="188.95" y="174.86" type="curve" smooth="yes"/>
      <point x="188.95" y="446.67" type="line"/>
      <point x="304.53" y="446.67" type="line"/>
      <point x="304.53" y="541.0" type="line"/>
      <point x="188.95" y="541.0" type="line"/>
      <point x="188.95" y="660.1600000000001" type="line"/>
      <point x="85.53" y="660.1600000000001" type="line"/>
      <point x="69.95" y="541.0" type="line"/>
      <point x="6.6" y="533.5500000000001" type="line"/>
      <point x="6.6" y="447.11" type="line"/>
      <point x="69.95" y="447.11" type="line"/>
      <point x="69.95" y="163.64000000000001" type="line" smooth="yes"/>
      <point x="69.95" y="48.21"/>
      <point x="111.6" y="-10.0"/>
    </contour>
  </outline>
</glyph>
<glyph name="u" format="2">
  <advance width="466.41999999999996"/>
  <unicode hex="0075"/>
  <anchor x="464.72999999999996" y="10.22" name="ogonek"/>
  <anchor x="226.62" y="541.0" name="top"/>
  <anchor x="410.32" y="541.0" name="topright"/>
  <anchor x="233.72" y="0.0" name="bottom"/>
  <outline>
    <contour>
      <point x="166.86999999999998" y="-10.0" type="curve" smooth="yes"/>
      <point x="218.56" y="-10.0"/>
      <point x="262.48999999999995" y="7.42"/>
      <point x="305.23" y="35.43" type="curve"/>
      <point x="320.1" y="7.1899999999999995"/>
      <point x="346.45" y="-10.0"/>
      <point x="384.54" y="-10.0" type="curve" smooth="yes"/>
      <point x="416.88" y="-10.0"/>
      <point x="443.64" y="-1.4199999999999997"/>
      <point x="464.72999999999996" y="10.22" type="curve"/>
      <point x="454.19000000000005" y="106.22" type="line"/>
      <point x="447.28999999999996" y="103.09"/>
      <point x="439.47" y="101.55000000000001"/>
      <point x="432.40000000000003" y="101.55000000000001" type="curve" smooth="yes"/>
      <point x="418.92" y="101.55000000000001"/>
      <point x="410.32" y="109.9"/>
      <point x="410.32" y="136.84" type="curve" smooth="yes"/>
      <point x="410.32" y="541.0" type="line"/>
      <point x="291.32" y="541.0" type="line"/>
      <point x="291.32" y="121.53" type="line"/>
      <point x="266.06000000000006" y="106.50000000000001"/>
      <point x="240.70999999999998" y="97.17"/>
      <point x="214.92999999999998" y="97.17" type="curve" smooth="yes"/>
      <point x="180.22000000000003" y="97.17"/>
      <point x="159.85999999999999" y="116.84"/>
      <point x="159.85999999999999" y="157.04999999999998" type="curve" smooth="yes"/>
      <point x="159.85999999999999" y="541.0" type="line"/>
      <point x="40.42" y="541.0" type="line"/>
      <point x="40.42" y="133.51" type="line" smooth="yes"/>
      <point x="40.42" y="31.200000000000003"/>
      <point x="93.12" y="-10.0"/>
    </contour>
  </outline>
</glyph>
<glyph name="v" format="2">
  <advance width="446.50500000000005"/>
  <unicode hex="0076"/>
  <outline>
    <contour>
      <point x="151.18" y="0.0" type="line"/>
      <point x="294.13500000000005" y="0.0" type="line"/>
      <point x="438.92" y="539.7400000000001" type="line"/>
      <point x="312.58000000000004" y="542.2599999999999" type="line"/>
      <point x="225.085" y="114.79" type="line"/>
      <point x="134.75" y="542.2599999999999" type="line"/>
      <point x="7.31" y="539.7400000000001" type="line"/>
    </contour>
  </outline>
</glyph>
<glyph name="w" format="2">
  <advance width="641.07"/>
  <unicode hex="0077"/>
  <anchor x="320.34" y="541.0" name="top"/>
  <anchor x="320.34" y="0.0" name="bottom"/>
  <outline>
    <contour>
      <point x="109.53999999999999" y="0.0" type="line"/>
      <point x="254.08" y="0.0" type="line"/>
      <point x="320.01000000000005" y="394.71" type="line"/>
      <point x="386.83" y="0.0" type="line"/>
      <point x="529.17" y="0.0" type="line"/>
      <point x="632.43" y="539.37" type="line"/>
      <point x="514.04" y="542.01" type="line"/>
      <point x="452.92" y="116.60000000000001" type="line"/>
      <point x="383.91" y="541.0" type="line"/>
      <point x="256.65999999999997" y="541.0" type="line"/>
      <point x="188.55" y="116.43" type="line"/>
      <point x="128.57" y="542.01" type="line"/>
      <point x="8.14" y="539.37" type="line"/>
    </contour>
  </outline>
</glyph>
<glyph name="x" format="2">
  <advance width="456.40999999999997"/>
  <unicode hex="0078"/>
  <outline>
    <contour>
      <point x="5.610000000000001" y="-1.3299999999999998" type="line"/>
      <point x="141.115" y="-4.04" type="line"/>
      <point x="228.54999999999998" y="202.23999999999998" type="line"/>
      <point x="316.965" y="-4.04" type="line"/>
      <point x="451.655" y="-1.3299999999999998" type="line"/>
      <point x="309.10499999999996" y="275.18" type="line"/>
      <point x="442.445" y="539.67" type="line"/>
      <point x="313.43" y="542.83" type="line"/>
      <point x="231.63" y="342.015" type="line"/>
      <point x="150.03" y="543.0250000000001" type="line"/>
      <point x="16.500000000000004" y="539.425" type="line"/>
      <point x="149.465" y="274.94" type="line"/>
    </contour>
  </outline>
</glyph>
<glyph name="y" format="2">
  <advance width="449.08500000000004"/>
  <unicode hex="0079"/>
  <anchor x="219.13500000000005" y="541.0" name="top"/>
  <anchor x="381.565" y="0.0" name="bottom"/>
  <outline>
    <contour>
      <point x="127.87999999999998" y="-208.92000000000002" type="line"/>
      <point x="253.17" y="-211.98" type="line"/>
      <point x="441.41499999999996" y="540.2800000000001" type="line"/>
      <point x="314.785" y="542.62" type="line"/>
      <point x="229.42" y="106.06" type="line"/>
      <point x="138.59000000000003" y="542.62" type="line"/>
      <point x="7.669999999999999" y="540.1" type="line"/>
      <point x="159.025" y="0.0" type="line"/>
      <point x="181.28000000000003" y="0.0" type="line"/>
    </contour>
  </outline>
</glyph>
<glyph name="z" format="2">
  <advance width="404.9949999999999"/>
  <unicode hex="007A"/>
  <anchor x="205.10000000000002" y="541.0" name="top"/>
  <outline>
    <contour>
      <point x="20.435" y="0.0" type="line"/>
      <point x="387.59" y="0.0" type="line"/>
      <point x="387.59" y="101.36000000000001" type="line"/>
      <point x="158.57" y="101.36000000000001" type="line"/>
      <point x="375.01000000000005" y="451.275" type="line"/>
      <point x="375.01000000000005" y="541.0" type="line"/>
      <point x="28.755000000000003" y="541.0" type="line"/>
      <point x="28.755000000000003" y="440.7" type="line"/>
      <point x="239.10000000000002" y="440.7" type="line"/>
      <point x="20.435" y="91.08999999999999" type="line"/>
    </contour>
  </outline>
</glyph>
<glyph name="braceleft" format="2">
  <advance width="271.94"/>
  <unicode hex="007B"/>
  <outline>
    <contour>
      <point x="61.209999999999994" y="-51.08" type="curve" smooth="yes"/>
      <point x="61.209999999999994" y="-155.16"/>
      <point x="112.49000000000001" y="-210.44"/>
      <point x="187.4" y="-210.44" type="curve" smooth="yes"/>
      <point x="248.76000000000002" y="-210.44" type="line"/>
      <point x="248.76000000000002" y="-118.94" type="line"/>
      <point x="216.0" y="-118.94" type="line" smooth="yes"/>
      <point x="176.5" y="-118.94"/>
      <point x="161.73" y="-83.56"/>
      <point x="161.73" y="-37.33" type="curve" smooth="yes"/>
      <point x="161.73" y="24.03"/>
      <point x="190.99" y="77.84000000000002"/>
      <point x="190.99" y="145.86" type="curve" smooth="yes"/>
      <point x="190.99" y="187.92000000000002"/>
      <point x="178.96999999999997" y="237.21999999999997"/>
      <point x="134.76999999999998" y="265.0" type="curve"/>
      <point x="178.88" y="293.84000000000003"/>
      <point x="190.99" y="341.46000000000004"/>
      <point x="190.99" y="383.52000000000004" type="curve" smooth="yes"/>
      <point x="190.99" y="449.37999999999994"/>
      <point x="161.73" y="502.73999999999995"/>
      <point x="161.73" y="566.7099999999999" type="curve" smooth="yes"/>
      <point x="161.73" y="612.94"/>
      <point x="176.5" y="648.5"/>
      <point x="216.0" y="648.5" type="curve" smooth="yes"/>
      <point x="248.76000000000002" y="648.5" type="line"/>
      <point x="248.76000000000002" y="740.0" type="line"/>
      <point x="187.4" y="740.0" type="line" smooth="yes"/>
      <point x="112.49000000000001" y="740.0"/>
      <point x="61.209999999999994" y="684.5400000000001"/>
      <point x="61.209999999999994" y="580.4599999999999" type="curve" smooth="yes"/>
      <point x="61.209999999999994" y="489.95"/>
      <point x="94.87" y="438.39"/>
      <point x="94.87" y="378.57000000000005" type="curve" smooth="yes"/>
      <point x="94.87" y="343.6"/>
      <point x="86.49000000000001" y="312.4"/>
      <point x="59.410000000000004" y="312.4" type="curve" smooth="yes"/>
      <point x="40.940000000000005" y="312.4" type="line"/>
      <point x="40.940000000000005" y="217.16000000000003" type="line"/>
      <point x="59.410000000000004" y="217.16000000000003" type="line" smooth="yes"/>
      <point x="86.49000000000001" y="217.16000000000003"/>
      <point x="94.87" y="186.14000000000001"/>
      <point x="94.87" y="150.81" type="curve" smooth="yes"/>
      <point x="94.87" y="90.09"/>
      <point x="61.209999999999994" y="36.730000000000004"/>
    </contour>
  </outline>
</glyph>
<glyph name="bar" format="2">
  <advance width="180.64000000000001"/>
  <unicode hex="007C"/>
  <outline>
    <contour>
      <point x="140.47" y="790.4399999999999" type="line"/>
      <point x="40.17" y="790.4399999999999" type="line"/>
      <point x="40.17" y="-210.0" type="line"/>
      <point x="140.47" y="-210.0" type="line"/>
    </contour>
  </outline>
</glyph>
<glyph name="braceright" format="2">
  <advance width="271.94"/>
  <unicode hex="007D"/>
  <outline>
    <contour>
      <point x="23.18" y="-118.94" type="line"/>
      <point x="23.18" y="-210.44" type="line"/>
      <point x="84.9" y="-210.44" type="line" smooth="yes"/>
      <point x="159.81" y="-210.44"/>
      <point x="211.09" y="-155.16"/>
      <point x="211.09" y="-51.08" type="curve" smooth="yes"/>
      <point x="211.09" y="36.730000000000004"/>
      <point x="177.42999999999998" y="90.09"/>
      <point x="177.42999999999998" y="150.81" type="curve" smooth="yes"/>
      <point x="177.42999999999998" y="186.14000000000001"/>
      <point x="185.81" y="217.16000000000003"/>
      <point x="212.89" y="217.16000000000003" type="curve" smooth="yes"/>
      <point x="231.00000000000003" y="217.16000000000003" type="line"/>
      <point x="231.00000000000003" y="312.4" type="line"/>
      <point x="212.89" y="312.4" type="line" smooth="yes"/>
      <point x="185.45" y="312.4"/>
      <point x="177.42999999999998" y="343.6"/>
      <point x="177.42999999999998" y="378.57000000000005" type="curve" smooth="yes"/>
      <point x="177.42999999999998" y="438.39"/>
      <point x="211.09" y="489.95"/>
      <point x="211.09" y="580.4599999999999" type="curve" smooth="yes"/>
      <point x="211.09" y="684.5400000000001"/>
      <point x="159.81" y="740.0"/>
      <point x="84.9" y="740.0" type="curve" smooth="yes"/>
      <point x="23.18" y="740.0" type="line"/>
      <point x="23.18" y="648.5" type="line"/>
      <point x="48.81999999999999" y="648.5" type="line" smooth="yes"/>
      <point x="87.96" y="648.5"/>
      <point x="103.09" y="612.94"/>
      <point x="103.09" y="566.7099999999999" type="curve" smooth="yes"/>
      <point x="103.09" y="502.73999999999995"/>
      <point x="73.83" y="449.37999999999994"/>
      <point x="73.83" y="383.52000000000004" type="curve" smooth="yes"/>
      <point x="73.83" y="341.46000000000004"/>
      <point x="85.58" y="293.84000000000003"/>
      <point x="130.04999999999998" y="265.0" type="curve"/>
      <point x="85.49" y="237.21999999999997"/>
      <point x="73.83" y="187.92000000000002"/>
      <point x="73.83" y="145.86" type="curve" smooth="yes"/>
      <point x="73.83" y="77.84000000000002"/>
      <point x="103.09" y="24.03"/>
      <point x="103.09" y="-37.33" type="curve" smooth="yes"/>
      <point x="103.09" y="-83.56"/>
      <point x="87.96" y="-118.94"/>
      <point x="48.81999999999999" y="-118.94" type="curve" smooth="yes"/>
    </contour>
  </outline>
</glyph>
<glyph name="asciitilde" format="2">
  <advance width="454.42"/>
  <unicode hex="007E"/>
  <outline>
    <contour>
      <point x="398.75000000000006" y="242.79000000000002" type="curve"/>
      <point x="398.75000000000006" y="345.25000000000006" type="line"/>
      <point x="375.33" y="320.34"/>
      <point x="351.74" y="309.00000000000006"/>
      <point x="322.03" y="309.00000000000006" type="curve" smooth="yes"/>
      <point x="245.69" y="309.00000000000006"/>
      <point x="210.18" y="399.14"/>
      <point x="136.49" y="399.14" type="curve" smooth="yes"/>
      <point x="96.19000000000001" y="399.14"/>
      <point x="67.41999999999999" y="379.07"/>
      <point x="56.14" y="365.23" type="curve"/>
      <point x="56.14" y="262.67999999999995" type="line"/>
      <point x="70.84" y="279.27000000000004"/>
      <point x="98.24000000000001" y="298.4"/>
      <point x="135.1" y="298.4" type="curve" smooth="yes"/>
      <point x="205.32" y="298.4"/>
      <point x="242.51000000000002" y="208.15000000000003"/>
      <point x="321.96" y="208.15000000000003" type="curve" smooth="yes"/>
      <point x="352.4" y="208.15000000000003"/>
      <point x="376.78000000000003" y="219.49"/>
    </contour>
  </outline>
</glyph>
<glyph name="exclamdown" format="2">
  <advance width="202.18"/>
  <unicode hex="00A1"/>
  <outline>
    <contour>
      <point x="153.66" y="279.64" type="line"/>
      <point x="50.17" y="279.64" type="line"/>
      <point x="40.92999999999999" y="-199.11" type="line"/>
      <point x="161.58" y="-199.11" type="line"/>
    </contour>
    <contour>
      <point x="166.51000000000005" y="474.83" type="curve" smooth="yes"/>
      <point x="166.51000000000005" y="524.6"/>
      <point x="149.15" y="546.5"/>
      <point x="101.09" y="546.5" type="curve" smooth="yes"/>
      <point x="53.47999999999999" y="546.5"/>
      <point x="35.669999999999995" y="524.6"/>
      <point x="35.669999999999995" y="474.83" type="curve" smooth="yes"/>
      <point x="35.669999999999995" y="424.51000000000005"/>
      <point x="53.03" y="402.61"/>
      <point x="101.09" y="402.61" type="curve" smooth="yes"/>
      <point x="149.15" y="402.61"/>
      <point x="166.51000000000005" y="424.51000000000005"/>
    </contour>
  </outline>
</glyph>
<glyph name="cent" format="2">
  <advance width="483.36"/>
  <unicode hex="00A2"/>
  <outline>
    <contour>
      <point x="268.52000000000004" y="-10.440000000000001" type="curve" smooth="yes"/>
      <point x="317.52" y="-10.440000000000001"/>
      <point x="370.34" y="-2.6499999999999995"/>
      <point x="410.02000000000004" y="11.05" type="curve"/>
      <point x="388.75000000000006" y="116.10000000000001" type="line"/>
      <point x="356.1" y="108.02000000000001"/>
      <point x="325.52" y="104.24000000000001"/>
      <point x="297.06" y="104.24000000000001" type="curve" smooth="yes"/>
      <point x="232.57999999999998" y="104.24000000000001"/>
      <point x="199.08" y="155.20000000000002"/>
      <point x="199.08" y="263.62999999999994" type="curve" smooth="yes"/>
      <point x="199.08" y="383.24000000000007"/>
      <point x="233.33" y="435.77000000000004"/>
      <point x="299.34999999999997" y="435.77000000000004" type="curve" smooth="yes"/>
      <point x="329.76" y="435.77000000000004"/>
      <point x="355.1" y="431.59999999999997"/>
      <point x="383.35" y="424.80999999999995" type="curve"/>
      <point x="402.34000000000003" y="534.37" type="line"/>
      <point x="369.27000000000004" y="543.46"/>
      <point x="325.42" y="551.88"/>
      <point x="274.93" y="551.88" type="curve" smooth="yes"/>
      <point x="128.64000000000001" y="551.88"/>
      <point x="76.34" y="432.84999999999997"/>
      <point x="76.34" y="260.33" type="curve" smooth="yes"/>
      <point x="76.34" y="79.38000000000001"/>
      <point x="138.97" y="-10.440000000000001"/>
    </contour>
    <contour>
      <point x="209.02" y="-105.44" type="line"/>
      <point x="310.97" y="-105.44" type="line"/>
      <point x="310.97" y="4.880000000000001" type="line"/>
      <point x="209.02" y="10.490000000000002" type="line"/>
    </contour>
    <contour>
      <point x="209.02" y="528.6300000000001" type="line"/>
      <point x="310.97" y="537.6400000000001" type="line"/>
      <point x="310.97" y="645.5600000000001" type="line"/>
      <point x="209.02" y="645.5600000000001" type="line"/>
    </contour>
  </outline>
</glyph>
<glyph name="sterling" format="2">
  <advance width="483.9"/>
  <unicode hex="00A3"/>
  <outline>
    <contour>
      <point x="64.10000000000001" y="0.0" type="line"/>
      <point x="432.11" y="0.0" type="line"/>
      <point x="432.11" y="101.85000000000001" type="line"/>
      <point x="197.0" y="101.85000000000001" type="line"/>
      <point x="237.56" y="150.38000000000002"/>
      <point x="268.2900000000001" y="192.56"/>
      <point x="268.2900000000001" y="260.33" type="curve" smooth="yes"/>
      <point x="268.2900000000001" y="342.76"/>
      <point x="214.35000000000002" y="404.96"/>
      <point x="214.35000000000002" y="484.6" type="curve" smooth="yes"/>
      <point x="214.35000000000002" y="567.2599999999999"/>
      <point x="257.5" y="598.25"/>
      <point x="312.65" y="598.25" type="curve" smooth="yes"/>
      <point x="345.42" y="598.25"/>
      <point x="379.19" y="592.82"/>
      <point x="406.4800000000001" y="584.3499999999999" type="curve"/>
      <point x="425.09" y="682.1200000000001" type="line"/>
      <point x="388.10999999999996" y="700.25"/>
      <point x="337.52000000000004" y="710.0"/>
      <point x="290.65" y="710.0" type="curve" smooth="yes"/>
      <point x="159.74" y="710.0"/>
      <point x="90.11" y="633.98"/>
      <point x="90.11" y="520.7799999999999" type="curve" smooth="yes"/>
      <point x="90.11" y="400.58"/>
      <point x="154.4" y="352.97999999999996"/>
      <point x="154.4" y="250.49000000000004" type="curve" smooth="yes"/>
      <point x="154.4" y="190.22"/>
      <point x="126.89000000000001" y="144.23000000000002"/>
      <point x="64.10000000000001" y="79.85000000000001" type="curve"/>
    </contour>
    <contour>
      <point x="54.31" y="316.62" type="line"/>
      <point x="384.04" y="316.62" type="line"/>
      <point x="384.04" y="394.96999999999997" type="line"/>
      <point x="54.31" y="394.96999999999997" type="line"/>
    </contour>
  </outline>
</glyph>
<glyph name="currency" format="2">
  <advance width="443.35"/>
  <unicode hex="00A4"/>
  <outline>
    <contour>
      <point x="31.38" y="414.92" type="line"/>
      <point x="90.42" y="354.88" type="line"/>
      <point x="80.22" y="337.49"/>
      <point x="73.94000000000001" y="316.84000000000003"/>
      <point x="73.94000000000001" y="294.17" type="curve" smooth="yes"/>
      <point x="73.94000000000001" y="270.95"/>
      <point x="80.22" y="249.31"/>
      <point x="91.42" y="231.48" type="curve"/>
      <point x="31.38" y="171.44" type="line"/>
      <point x="100.16" y="102.66" type="line"/>
      <point x="165.48000000000002" y="167.87" type="line"/>
      <point x="181.22" y="157.77"/>
      <point x="201.1" y="152.82000000000002"/>
      <point x="222.44" y="152.82000000000002" type="curve" smooth="yes"/>
      <point x="243.12" y="152.82000000000002"/>
      <point x="262.24" y="157.88"/>
      <point x="277.76" y="167.54000000000002" type="curve"/>
      <point x="343.19" y="102.66" type="line"/>
      <point x="411.97" y="171.44" type="line"/>
      <point x="353.14" y="229.82999999999998" type="line"/>
      <point x="364.56" y="248.43"/>
      <point x="371.28" y="270.28999999999996"/>
      <point x="371.28" y="294.17" type="curve" smooth="yes"/>
      <point x="371.28" y="317.06"/>
      <point x="364.66999999999996" y="338.37"/>
      <point x="353.58" y="356.53" type="curve"/>
      <point x="411.97" y="414.92" type="line"/>
      <point x="343.19" y="483.7" type="line"/>
      <point x="279.52" y="420.03000000000003" type="line"/>
      <point x="263.56" y="429.8"/>
      <point x="244.01" y="435.75"/>
      <point x="222.44" y="435.75" type="curve" smooth="yes"/>
      <point x="199.76999999999998" y="435.75"/>
      <point x="179.89000000000001" y="429.36"/>
      <point x="163.27" y="419.7" type="curve"/>
      <point x="100.16" y="483.7" type="line"/>
    </contour>
    <contour>
      <point x="222.33" y="226.72" type="curve" smooth="yes"/>
      <point x="183.86999999999998" y="226.72"/>
      <point x="155.32" y="255.16000000000003"/>
      <point x="155.32" y="293.72999999999996" type="curve" smooth="yes"/>
      <point x="155.32" y="331.54"/>
      <point x="183.76" y="361.41"/>
      <point x="222.33" y="361.41" type="curve" smooth="yes"/>
      <point x="261.35" y="361.41"/>
      <point x="289.90000000000003" y="331.54"/>
      <point x="289.90000000000003" y="293.72999999999996" type="curve" smooth="yes"/>
      <point x="289.90000000000003" y="255.16000000000003"/>
      <point x="261.24" y="226.72"/>
    </contour>
  </outline>
</glyph>
<glyph name="yen" format="2">
  <advance width="487.0"/>
  <unicode hex="00A5"/>
  <outline>
    <contour>
      <point x="60.9" y="313.79999999999995" type="line"/>
      <point x="185.75" y="313.79999999999995" type="line"/>
      <point x="185.75" y="257.84999999999997" type="line"/>
      <point x="60.9" y="257.84999999999997" type="line"/>
      <point x="60.9" y="187.55" type="line"/>
      <point x="185.75" y="187.55" type="line"/>
      <point x="185.75" y="0.0" type="line"/>
      <point x="305.4" y="0.0" type="line"/>
      <point x="305.4" y="187.55" type="line"/>
      <point x="431.15000000000003" y="187.55" type="line"/>
      <point x="431.15000000000003" y="257.84999999999997" type="line"/>
      <point x="305.4" y="257.84999999999997" type="line"/>
      <point x="305.4" y="313.79999999999995" type="line"/>
      <point x="431.15000000000003" y="313.79999999999995" type="line"/>
      <point x="431.15000000000003" y="383.65" type="line"/>
      <point x="305.4" y="383.65" type="line"/>
      <point x="459.50000000000006" y="698.0999999999999" type="line"/>
      <point x="330.30000000000007" y="702.35" type="line"/>
      <point x="245.40000000000003" y="463.05000000000007" type="line"/>
      <point x="157.15" y="702.35" type="line"/>
      <point x="27.950000000000003" y="698.0999999999999" type="line"/>
      <point x="185.75" y="383.65" type="line"/>
      <point x="60.9" y="383.65" type="line"/>
    </contour>
  </outline>
</glyph>
<glyph name="brokenbar" format="2">
  <advance width="180.2"/>
  <unicode hex="00A6"/>
  <outline>
    <contour>
      <point x="140.03" y="391.0" type="line"/>
      <point x="140.03" y="790.4399999999999" type="line"/>
      <point x="40.17" y="790.4399999999999" type="line"/>
      <point x="40.17" y="391.0" type="line"/>
    </contour>
    <contour>
      <point x="40.17" y="190.44" type="line"/>
      <point x="40.17" y="-210.0" type="line"/>
      <point x="140.03" y="-210.0" type="line"/>
      <point x="140.03" y="190.44" type="line"/>
    </contour>
  </outline>
</glyph>
<glyph name="section" format="2">
  <advance width="465.035"/>
  <unicode hex="00A7"/>
  <outline>
    <contour>
      <point x="190.44000000000003" y="-220.755" type="curve" smooth="yes"/>
      <point x="330.85999999999996" y="-220.755"/>
      <point x="429.62000000000006" y="-102.45499999999998"/>
      <point x="429.62000000000006" y="61.875" type="curve" smooth="yes"/>
      <point x="429.62000000000006" y="140.425"/>
      <point x="409.03" y="227.9"/>
      <point x="348.315" y="370.515" type="curve" smooth="yes"/>
      <point x="298.59" y="492.05"/>
      <point x="283.54" y="528.48"/>
      <point x="283.54" y="563.4100000000001" type="curve" smooth="yes"/>
      <point x="283.54" y="603.8449999999999"/>
      <point x="305.02000000000004" y="628.145"/>
      <point x="341.955" y="628.145" type="curve" smooth="yes"/>
      <point x="356.02000000000004" y="628.145"/>
      <point x="369.925" y="625.6949999999999"/>
      <point x="387.465" y="617.8149999999999" type="curve"/>
      <point x="410.62" y="726.99" type="line"/>
      <point x="377.995" y="741.76"/>
      <point x="336.22499999999997" y="749.775"/>
      <point x="294.31000000000006" y="749.775" type="curve" smooth="yes"/>
      <point x="135.02499999999998" y="749.775"/>
      <point x="36.959999999999994" y="646.21"/>
      <point x="39.77" y="478.27500000000003" type="curve" smooth="yes"/>
      <point x="41.135" y="395.255"/>
      <point x="56.370000000000005" y="316.845"/>
      <point x="123.28999999999999" y="163.17499999999998" type="curve" smooth="yes"/>
      <point x="169.33499999999998" y="49.965"/>
      <point x="189.495" y="6.135000000000005"/>
      <point x="189.495" y="-36.040000000000006" type="curve" smooth="yes"/>
      <point x="189.495" y="-76.93999999999998"/>
      <point x="165.81499999999997" y="-98.81500000000001"/>
      <point x="127.64000000000003" y="-98.81500000000001" type="curve" smooth="yes"/>
      <point x="104.24" y="-98.81500000000001"/>
      <point x="83.215" y="-91.39999999999999"/>
      <point x="57.235000000000014" y="-71.36" type="curve"/>
      <point x="33.095" y="-178.67999999999998" type="line"/>
      <point x="78.10500000000002" y="-207.185"/>
      <point x="128.91500000000002" y="-220.755"/>
    </contour>
    <contour>
      <point x="186.42" y="-147.49" type="curve" smooth="yes"/>
      <point x="165.58" y="-147.49"/>
      <point x="147.445" y="-143.635"/>
      <point x="129.92499999999998" y="-135.255" type="curve"/>
      <point x="161.81499999999997" y="-156.32" type="line"/>
      <point x="230.87" y="-155.40499999999997"/>
      <point x="274.92" y="-105.175"/>
      <point x="274.92" y="-34.47499999999999" type="curve" smooth="yes"/>
      <point x="274.92" y="16.675000000000008"/>
      <point x="258.945" y="75.85000000000001"/>
      <point x="206.30999999999997" y="201.95000000000002" type="curve" smooth="yes"/>
      <point x="146.86" y="345.95500000000004"/>
      <point x="127.55499999999999" y="410.28000000000003"/>
      <point x="127.55499999999999" y="492.175" type="curve" smooth="yes"/>
      <point x="127.55499999999999" y="596.4600000000002"/>
      <point x="177.385" y="659.3199999999999"/>
      <point x="246.11499999999998" y="659.3199999999999" type="curve" smooth="yes"/>
      <point x="262.18" y="659.3199999999999"/>
      <point x="272.27000000000004" y="656.7749999999999"/>
      <point x="286.77500000000003" y="649.6700000000001" type="curve"/>
      <point x="267.50500000000005" y="673.695" type="line"/>
      <point x="225.17000000000002" y="665.8399999999999"/>
      <point x="196.87" y="618.975"/>
      <point x="196.42" y="569.0550000000001" type="curve" smooth="yes"/>
      <point x="196.42" y="517.9200000000001"/>
      <point x="209.825" y="468.30499999999995"/>
      <point x="263.255" y="340.865" type="curve" smooth="yes"/>
      <point x="327.675" y="183.15999999999997"/>
      <point x="344.6000000000001" y="118.59"/>
      <point x="344.6000000000001" y="49.605000000000004" type="curve" smooth="yes"/>
      <point x="344.6" y="-61.505"/>
      <point x="288.8399999999999" y="-147.49"/>
    </contour>
  </outline>
</glyph>
<glyph name="copyright" format="2">
  <advance width="619.6200000000001"/>
  <unicode hex="00A9"/>
  <outline>
    <contour>
      <point x="309.90000000000003" y="33.980000000000004" type="curve" smooth="yes"/>
      <point x="162.7" y="33.980000000000004"/>
      <point x="84.43999999999998" y="138.14000000000001"/>
      <point x="84.43999999999998" y="350.22" type="curve" smooth="yes"/>
      <point x="84.43999999999998" y="562.8800000000001"/>
      <point x="162.89999999999998" y="666.0400000000001"/>
      <point x="309.90000000000003" y="666.0400000000001" type="curve" smooth="yes"/>
      <point x="458.04" y="666.0400000000001"/>
      <point x="534.7399999999999" y="562.8800000000001"/>
      <point x="534.7399999999999" y="350.22" type="curve" smooth="yes"/>
      <point x="534.7399999999999" y="138.14000000000001"/>
      <point x="458.24" y="33.980000000000004"/>
    </contour>
    <contour>
      <point x="309.90000000000003" y="710.0" type="curve" smooth="yes"/>
      <point x="135.04" y="710.0"/>
      <point x="37.699999999999996" y="585.72"/>
      <point x="37.699999999999996" y="350.22" type="curve" smooth="yes"/>
      <point x="37.699999999999996" y="115.55999999999999"/>
      <point x="134.79999999999998" y="-10.0"/>
      <point x="309.90000000000003" y="-10.0" type="curve" smooth="yes"/>
      <point x="484.82000000000005" y="-10.0"/>
      <point x="581.9200000000002" y="115.55999999999999"/>
      <point x="581.9200000000002" y="350.22" type="curve" smooth="yes"/>
      <point x="581.9200000000002" y="585.72"/>
      <point x="484.76" y="710.0"/>
    </contour>
    <contour>
      <point x="180.44" y="345.46000000000004" type="curve" smooth="yes"/>
      <point x="180.44" y="207.5"/>
      <point x="231.35999999999999" y="144.64"/>
      <point x="317.18" y="144.64" type="curve" smooth="yes"/>
      <point x="350.15999999999997" y="144.64"/>
      <point x="384.12" y="149.6"/>
      <point x="412.5" y="161.64" type="curve"/>
      <point x="399.44" y="234.57999999999996" type="line"/>
      <point x="377.76" y="228.16000000000003"/>
      <point x="352.85999999999996" y="223.74"/>
      <point x="328.9800000000001" y="223.74" type="curve" smooth="yes"/>
      <point x="284.56" y="223.74"/>
      <point x="268.78" y="260.38"/>
      <point x="268.78" y="343.2" type="curve" smooth="yes"/>
      <point x="268.78" y="442.91999999999996"/>
      <point x="289.36" y="475.92"/>
      <point x="334.3" y="475.92" type="curve" smooth="yes"/>
      <point x="352.97999999999996" y="475.92"/>
      <point x="378.76000000000005" y="471.26000000000005"/>
      <point x="397.03999999999996" y="466.06000000000006" type="curve"/>
      <point x="411.86" y="538.06" type="line"/>
      <point x="386.74" y="550.1800000000001"/>
      <point x="352.3" y="555.24"/>
      <point x="320.82" y="555.24" type="curve" smooth="yes"/>
      <point x="237.48000000000002" y="555.24"/>
      <point x="180.44" y="501.78000000000003"/>
    </contour>
  </outline>
</glyph>
<glyph name="ordfeminine" format="2">
  <advance width="314.39"/>
  <unicode hex="00AA"/>
  <outline>
    <contour>
      <point x="33.14" y="255.02" type="line"/>
      <point x="288.02" y="255.02" type="line"/>
      <point x="288.02" y="317.72" type="line"/>
      <point x="33.14" y="317.72" type="line"/>
    </contour>
    <component base="a.superior" xOffset="10.07"/>
  </outline>
</glyph>
<glyph name="logicalnot" format="2">
  <advance width="454.42"/>
  <unicode hex="00AC"/>
  <outline>
    <contour>
      <point x="46.230000000000004" y="329.98999999999995" type="line"/>
      <point x="306.6" y="329.98999999999995" type="line"/>
      <point x="306.6" y="175.13" type="line"/>
      <point x="408.55" y="175.13" type="line"/>
      <point x="408.55" y="431.94" type="line"/>
      <point x="46.230000000000004" y="431.94" type="line"/>
    </contour>
  </outline>
</glyph>
<glyph name="registered" format="2">
  <advance width="592.9449999999999"/>
  <unicode hex="00AE"/>
  <outline>
    <contour>
      <point x="294.86999999999995" y="207.72499999999997" type="curve" smooth="yes"/>
      <point x="463.0999999999999" y="207.72499999999997"/>
      <point x="555.245" y="326.40999999999997"/>
      <point x="555.245" y="550.365" type="curve" smooth="yes"/>
      <point x="555.245" y="774.2250000000001"/>
      <point x="463.18999999999994" y="892.455"/>
      <point x="294.86999999999995" y="892.455" type="curve" smooth="yes"/>
      <point x="128.92499999999998" y="892.455"/>
      <point x="37.699999999999996" y="774.2250000000001"/>
      <point x="37.699999999999996" y="550.365" type="curve" smooth="yes"/>
      <point x="37.699999999999996" y="327.505"/>
      <point x="128.55999999999997" y="207.72499999999997"/>
    </contour>
    <contour>
      <point x="294.86999999999995" y="249.35" type="curve" smooth="yes"/>
      <point x="155.11" y="249.35"/>
      <point x="82.245" y="348.99500000000006"/>
      <point x="82.245" y="550.365" type="curve" smooth="yes"/>
      <point x="82.245" y="752.37"/>
      <point x="155.02" y="850.6499999999999"/>
      <point x="294.86999999999995" y="850.6499999999999" type="curve" smooth="yes"/>
      <point x="438.2" y="850.6499999999999"/>
      <point x="510.50999999999993" y="752.4600000000002"/>
      <point x="510.50999999999993" y="550.365" type="curve" smooth="yes"/>
      <point x="510.50999999999993" y="348.63"/>
      <point x="437.925" y="249.35"/>
    </contour>
    <contour>
      <point x="416.90500000000003" y="369.12500000000006" type="curve" smooth="yes"/>
      <point x="421.19" y="369.12500000000006"/>
      <point x="426.30999999999995" y="369.12500000000006"/>
      <point x="431.0400000000001" y="369.76000000000005" type="curve"/>
      <point x="429.96000000000004" y="448.37999999999994" type="line"/>
      <point x="428.325" y="448.02"/>
      <point x="426.32" y="448.02"/>
      <point x="424.32000000000005" y="448.02" type="curve" smooth="yes"/>
      <point x="400.815" y="448.205"/>
      <point x="383.26500000000004" y="475.445"/>
      <point x="364.445" y="522.5050000000001" type="curve"/>
      <point x="402.64000000000004" y="537.2399999999999"/>
      <point x="419.405" y="578.22"/>
      <point x="419.405" y="632.2799999999999" type="curve" smooth="yes"/>
      <point x="419.405" y="710.5"/>
      <point x="380.29499999999996" y="744.6750000000001"/>
      <point x="297.43500000000006" y="744.6750000000001" type="curve" smooth="yes"/>
      <point x="264.40500000000003" y="744.6750000000001"/>
      <point x="229.56999999999996" y="742.4899999999999"/>
      <point x="187.19000000000005" y="738.945" type="curve"/>
      <point x="187.19000000000005" y="372.96000000000004" type="line"/>
      <point x="263.305" y="372.96000000000004" type="line"/>
      <point x="263.305" y="498.71999999999997" type="line"/>
      <point x="270.61500000000007" y="498.36"/>
      <point x="277.21" y="497.82"/>
      <point x="283.71" y="497.82" type="curve" smooth="yes"/>
      <point x="287.52000000000004" y="497.82"/>
      <point x="290.59499999999997" y="497.82"/>
      <point x="294.13" y="498.18" type="curve"/>
      <point x="334.58500000000004" y="384.96500000000003"/>
      <point x="372.16" y="369.40000000000003"/>
    </contour>
    <contour>
      <point x="290.67999999999995" y="550.61" type="curve" smooth="yes"/>
      <point x="282.345" y="550.61"/>
      <point x="274.83000000000004" y="550.7"/>
      <point x="263.305" y="551.61" type="curve"/>
      <point x="263.305" y="675.51" type="line"/>
      <point x="279.01" y="677.5999999999999"/>
      <point x="286.18" y="677.9599999999999"/>
      <point x="297.4200000000001" y="677.9599999999999" type="curve" smooth="yes"/>
      <point x="335.28" y="677.9599999999999"/>
      <point x="341.0" y="657.2849999999999"/>
      <point x="341.0" y="620.48" type="curve" smooth="yes"/>
      <point x="341.0" y="573.5500000000001"/>
      <point x="332.57000000000005" y="550.61"/>
    </contour>
  </outline>
</glyph>
<glyph name="degree" format="2">
  <advance width="298.40000000000003"/>
  <unicode hex="00B0"/>
  <outline>
    <contour>
      <point x="148.84" y="432.0" type="curve" smooth="yes"/>
      <point x="231.54" y="432.0"/>
      <point x="271.92" y="496.23999999999995"/>
      <point x="271.92" y="574.6" type="curve" smooth="yes"/>
      <point x="271.92" y="649.2"/>
      <point x="235.08" y="718.1"/>
      <point x="148.84" y="718.1" type="curve" smooth="yes"/>
      <point x="62.419999999999995" y="718.1"/>
      <point x="26.48" y="649.2"/>
      <point x="26.48" y="574.6" type="curve" smooth="yes"/>
      <point x="26.48" y="496.23999999999995"/>
      <point x="66.14" y="432.0"/>
    </contour>
    <contour>
      <point x="148.84" y="513.78" type="curve" smooth="yes"/>
      <point x="120.33999999999999" y="513.78"/>
      <point x="104.96000000000001" y="539.22"/>
      <point x="104.96000000000001" y="574.1400000000001" type="curve" smooth="yes"/>
      <point x="104.96000000000001" y="607.78"/>
      <point x="119.68" y="634.3000000000001"/>
      <point x="148.84" y="634.3000000000001" type="curve" smooth="yes"/>
      <point x="177.82000000000002" y="634.3000000000001"/>
      <point x="193.62" y="607.78"/>
      <point x="193.62" y="574.1400000000001" type="curve" smooth="yes"/>
      <point x="193.62" y="539.22"/>
      <point x="177.34" y="513.78"/>
    </contour>
  </outline>
</glyph>
<glyph name="plusminus" format="2">
  <advance width="465.94"/>
  <unicode hex="00B1"/>
  <outline>
    <contour>
      <point x="44.790000000000006" y="32.29" type="line"/>
      <point x="421.15000000000003" y="32.29" type="line"/>
      <point x="421.15000000000003" y="134.24" type="line"/>
      <point x="286.09" y="134.24" type="line"/>
      <point x="286.09" y="274.13" type="line"/>
      <point x="421.15000000000003" y="274.13" type="line"/>
      <point x="421.15000000000003" y="376.08" type="line"/>
      <point x="286.09" y="376.08" type="line"/>
      <point x="286.09" y="513.75" type="line"/>
      <point x="179.74" y="513.75" type="line"/>
      <point x="179.74" y="376.08" type="line"/>
      <point x="44.790000000000006" y="376.08" type="line"/>
      <point x="44.790000000000006" y="274.13" type="line"/>
      <point x="179.74" y="274.13" type="line"/>
      <point x="179.74" y="134.24" type="line"/>
      <point x="44.790000000000006" y="134.24" type="line"/>
    </contour>
  </outline>
</glyph>
<glyph name="uni00B2" format="2">
  <advance width="322.14"/>
  <unicode hex="00B2"/>
  <outline>
    <contour>
      <point x="44.36" y="370.0" type="line"/>
      <point x="284.47" y="370.0" type="line"/>
      <point x="284.47" y="430.99" type="line"/>
      <point x="147.18" y="430.99" type="line"/>
      <point x="236.26" y="539.29"/>
      <point x="261.12" y="593.0899999999999"/>
      <point x="261.12" y="654.03" type="curve" smooth="yes"/>
      <point x="261.12" y="731.47"/>
      <point x="218.9" y="774.69"/>
      <point x="147.45000000000002" y="774.69" type="curve" smooth="yes"/>
      <point x="107.9" y="774.69"/>
      <point x="68.96000000000001" y="763.37"/>
      <point x="36.410000000000004" y="739.3500000000001" type="curve"/>
      <point x="62.81999999999999" y="673.84" type="line"/>
      <point x="87.58999999999999" y="691.0500000000001"/>
      <point x="106.99000000000001" y="696.0500000000001"/>
      <point x="129.42" y="696.0500000000001" type="curve" smooth="yes"/>
      <point x="159.48" y="696.0500000000001"/>
      <point x="177.82" y="671.5000000000001"/>
      <point x="177.82" y="635.6099999999999" type="curve" smooth="yes"/>
      <point x="177.82" y="589.58"/>
      <point x="134.98000000000002" y="521.63"/>
      <point x="43.01" y="424.92" type="curve"/>
    </contour>
  </outline>
</glyph>
<glyph name="uni00B3" format="2">
  <advance width="324.71999999999997"/>
  <unicode hex="00B3"/>
  <outline>
    <contour>
      <point x="30.049999999999997" y="391.78000000000003" type="line"/>
      <point x="68.03999999999999" y="370.81"/>
      <point x="102.77000000000001" y="362.97"/>
      <point x="148.1" y="362.97" type="curve" smooth="yes"/>
      <point x="234.91000000000003" y="362.97"/>
      <point x="289.12" y="407.16"/>
      <point x="289.12" y="485.4" type="curve" smooth="yes"/>
      <point x="289.12" y="532.7"/>
      <point x="267.14" y="566.9799999999999"/>
      <point x="224.39" y="581.7599999999999" type="curve"/>
      <point x="257.70000000000005" y="597.6200000000001"/>
      <point x="277.94" y="631.87"/>
      <point x="277.94" y="672.54" type="curve" smooth="yes"/>
      <point x="277.94" y="735.42"/>
      <point x="232.61999999999998" y="775.03"/>
      <point x="150.68" y="775.03" type="curve" smooth="yes"/>
      <point x="102.94" y="775.03"/>
      <point x="62.71" y="765.13"/>
      <point x="36.36" y="748.18" type="curve"/>
      <point x="58.54" y="690.24" type="line"/>
      <point x="70.86" y="697.2900000000001"/>
      <point x="93.19" y="704.04"/>
      <point x="130.84" y="704.04" type="curve" smooth="yes"/>
      <point x="172.19" y="704.04"/>
      <point x="198.85" y="684.35"/>
      <point x="198.85" y="651.1500000000001" type="curve" smooth="yes"/>
      <point x="198.85" y="622.67"/>
      <point x="183.35" y="601.87"/>
      <point x="148.28" y="601.87" type="curve" smooth="yes"/>
      <point x="94.58" y="601.87" type="line"/>
      <point x="94.58" y="544.93" type="line"/>
      <point x="145.88" y="544.93" type="line" smooth="yes"/>
      <point x="192.90999999999997" y="544.93"/>
      <point x="207.66" y="524.9800000000001"/>
      <point x="207.66" y="492.0" type="curve" smooth="yes"/>
      <point x="207.66" y="452.91"/>
      <point x="182.67000000000002" y="429.82"/>
      <point x="137.51" y="429.82" type="curve" smooth="yes"/>
      <point x="99.38000000000001" y="429.82"/>
      <point x="78.03" y="435.62"/>
      <point x="55.089999999999996" y="449.35" type="curve"/>
    </contour>
  </outline>
</glyph>
<glyph name="uni00B5" format="2">
  <advance width="467.3"/>
  <unicode hex="00B5"/>
  <outline>
    <contour>
      <point x="41.3" y="-210.0" type="line"/>
      <point x="156.34" y="-210.0" type="line"/>
      <point x="156.34" y="11.54" type="line"/>
      <point x="167.69000000000003" y="-2.64"/>
      <point x="185.41" y="-9.120000000000001"/>
      <point x="208.34" y="-9.120000000000001" type="curve" smooth="yes"/>
      <point x="246.28000000000003" y="-9.120000000000001"/>
      <point x="280.86" y="7.42"/>
      <point x="310.95" y="30.15" type="curve"/>
      <point x="325.38" y="4.99"/>
      <point x="343.81" y="-10.0"/>
      <point x="385.41999999999996" y="-10.0" type="curve" smooth="yes"/>
      <point x="417.76" y="-10.0"/>
      <point x="444.52000000000004" y="-1.4199999999999997"/>
      <point x="465.61" y="10.22" type="curve"/>
      <point x="455.07" y="101.38" type="line"/>
      <point x="448.16999999999996" y="98.25"/>
      <point x="440.35" y="96.71"/>
      <point x="433.28" y="96.71" type="curve" smooth="yes"/>
      <point x="419.8" y="96.71"/>
      <point x="411.20000000000005" y="105.06"/>
      <point x="411.20000000000005" y="132.0" type="curve" smooth="yes"/>
      <point x="411.20000000000005" y="541.0" type="line"/>
      <point x="292.2" y="541.0" type="line"/>
      <point x="292.2" y="119.33000000000001" type="line"/>
      <point x="266.94" y="104.30000000000001"/>
      <point x="241.59" y="94.97"/>
      <point x="215.81" y="94.97" type="curve" smooth="yes"/>
      <point x="181.1" y="94.97"/>
      <point x="160.74" y="114.64"/>
      <point x="160.74" y="154.85" type="curve" smooth="yes"/>
      <point x="160.74" y="541.0" type="line"/>
      <point x="41.3" y="541.0" type="line"/>
    </contour>
  </outline>
</glyph>
<glyph name="paragraph" format="2">
  <advance width="560.01"/>
  <unicode hex="00B6"/>
  <outline>
    <contour>
      <point x="417.52" y="-210.0" type="line"/>
      <point x="511.66" y="-210.0" type="line"/>
      <point x="511.66" y="740.0" type="line"/>
      <point x="417.52" y="740.0" type="line"/>
    </contour>
    <contour>
      <point x="228.37" y="291.69" type="line"/>
      <point x="171.73000000000002" y="303.27000000000004"/>
      <point x="136.77" y="369.27"/>
      <point x="136.77" y="469.90000000000003" type="curve" smooth="yes"/>
      <point x="136.77" y="568.5200000000001"/>
      <point x="175.29999999999998" y="635.8199999999999"/>
      <point x="258.74" y="637.89" type="curve"/>
      <point x="258.74" y="-210.0" type="line"/>
      <point x="352.88" y="-210.0" type="line"/>
      <point x="352.88" y="740.0" type="line"/>
      <point x="290.65" y="740.0" type="line" smooth="yes"/>
      <point x="97.08000000000001" y="740.0"/>
      <point x="31.740000000000002" y="623.42"/>
      <point x="31.740000000000002" y="475.84000000000003" type="curve" smooth="yes"/>
      <point x="31.740000000000002" y="336.82"/>
      <point x="89.09" y="238.54999999999998"/>
      <point x="215.95" y="214.82" type="curve"/>
    </contour>
  </outline>
</glyph>
<glyph name="periodcentered" format="2">
  <advance width="183.55"/>
  <unicode hex="00B7"/>
  <outline>
    <contour>
      <point x="25.950000000000003" y="308.41" type="curve" smooth="yes"/>
      <point x="25.950000000000003" y="258.37"/>
      <point x="44.38999999999999" y="236.47"/>
      <point x="91.99999999999999" y="236.47" type="curve" smooth="yes"/>
      <point x="140.05999999999997" y="236.47"/>
      <point x="157.60000000000005" y="258.37"/>
      <point x="157.60000000000005" y="308.41" type="curve" smooth="yes"/>
      <point x="157.60000000000005" y="359.00000000000006"/>
      <point x="140.05999999999997" y="380.9"/>
      <point x="91.99999999999999" y="380.9" type="curve" smooth="yes"/>
      <point x="43.49" y="380.9"/>
      <point x="25.950000000000003" y="359.00000000000006"/>
    </contour>
  </outline>
</glyph>
<glyph name="uni00B9" format="2">
  <advance width="297.98"/>
  <unicode hex="00B9"/>
  <outline>
    <contour>
      <point x="32.900000000000006" y="370.0" type="line"/>
      <point x="277.67" y="370.0" type="line"/>
      <point x="277.67" y="431.9" type="line"/>
      <point x="202.39000000000001" y="431.9" type="line"/>
      <point x="202.39000000000001" y="768.72" type="line"/>
      <point x="160.61999999999998" y="768.72" type="line"/>
      <point x="22.419999999999998" y="710.71" type="line"/>
      <point x="39.7" y="642.1600000000001" type="line"/>
      <point x="119.04" y="679.7900000000001" type="line"/>
      <point x="119.04" y="431.9" type="line"/>
      <point x="32.900000000000006" y="431.9" type="line"/>
    </contour>
  </outline>
</glyph>
<glyph name="ordmasculine" format="2">
  <advance width="323.22"/>
  <unicode hex="00BA"/>
  <outline>
    <contour>
      <point x="36.129999999999995" y="255.11" type="line"/>
      <point x="291.72999999999996" y="255.11" type="line"/>
      <point x="291.72999999999996" y="317.81" type="line"/>
      <point x="36.129999999999995" y="317.81" type="line"/>
    </contour>
    <component base="o.superior" xOffset="12.319999999999999"/>
  </outline>
</glyph>
<glyph name="questiondown" format="2">
  <advance width="389.65999999999997"/>
  <unicode hex="00BF"/>
  <outline>
    <contour>
      <point x="275.75" y="275.07" type="line"/>
      <point x="171.81999999999996" y="275.07" type="line"/>
      <point x="171.59999999999997" y="204.08999999999997" type="line"/>
      <point x="73.32" y="149.81"/>
      <point x="31.209999999999997" y="84.25"/>
      <point x="31.209999999999997" y="-19.399999999999995" type="curve" smooth="yes"/>
      <point x="31.209999999999997" y="-151.5"/>
      <point x="113.52" y="-213.51"/>
      <point x="223.82999999999998" y="-213.51" type="curve" smooth="yes"/>
      <point x="284.6" y="-213.51"/>
      <point x="349.03" y="-190.92000000000002"/>
      <point x="392.80999999999995" y="-156.20999999999998" type="curve"/>
      <point x="352.50000000000006" y="-55.419999999999995" type="line"/>
      <point x="312.10999999999996" y="-85.13999999999999"/>
      <point x="276.13" y="-95.52999999999999"/>
      <point x="242.20000000000002" y="-95.52999999999999" type="curve" smooth="yes"/>
      <point x="191.85000000000002" y="-95.52999999999999"/>
      <point x="154.97" y="-61.11999999999998"/>
      <point x="154.97" y="-1.9699999999999946" type="curve" smooth="yes"/>
      <point x="154.97" y="54.08"/>
      <point x="177.15" y="99.13"/>
      <point x="278.28" y="150.57" type="curve"/>
    </contour>
    <contour>
      <point x="288.88" y="469.99" type="curve" smooth="yes"/>
      <point x="288.88" y="519.76"/>
      <point x="270.79" y="541.6600000000001"/>
      <point x="223.10000000000002" y="541.6600000000001" type="curve" smooth="yes"/>
      <point x="175.83999999999997" y="541.6600000000001"/>
      <point x="157.68" y="519.76"/>
      <point x="157.68" y="469.99" type="curve" smooth="yes"/>
      <point x="157.68" y="419.67"/>
      <point x="175.83999999999997" y="397.77"/>
      <point x="223.10000000000002" y="397.77" type="curve" smooth="yes"/>
      <point x="271.6" y="397.77"/>
      <point x="288.88" y="419.67"/>
    </contour>
  </outline>
</glyph>
<glyph name="AE" format="2">
  <advance width="761.12"/>
  <unicode hex="00C6"/>
  <anchor x="418.465" y="700.0" name="top"/>
  <outline>
    <contour>
      <point x="7.81" y="0.0" type="line"/>
      <point x="143.875" y="-0.6749999999999999" type="line"/>
      <point x="227.89499999999998" y="205.275" type="line"/>
      <point x="365.87" y="205.275" type="line"/>
      <point x="365.87" y="0.0" type="line"/>
      <point x="742.4250000000001" y="0.0" type="line"/>
      <point x="742.4250000000001" y="113.29" type="line"/>
      <point x="485.05499999999995" y="113.29" type="line"/>
      <point x="485.05499999999995" y="287.11499999999995" type="line"/>
      <point x="706.76" y="287.11499999999995" type="line"/>
      <point x="706.76" y="396.405" type="line"/>
      <point x="485.05499999999995" y="396.405" type="line"/>
      <point x="485.05499999999995" y="585.1850000000001" type="line"/>
      <point x="728.59" y="585.1850000000001" type="line"/>
      <point x="728.59" y="700.0" type="line"/>
      <point x="292.11" y="700.0" type="line"/>
    </contour>
    <contour>
      <point x="263.405" y="313.52500000000003" type="line"/>
      <point x="364.81" y="610.6850000000001" type="line"/>
      <point x="364.81" y="313.52500000000003" type="line"/>
    </contour>
  </outline>
</glyph>
<glyph name="multiply" format="2">
  <advance width="436.22"/>
  <unicode hex="00D7"/>
  <outline>
    <contour>
      <point x="115.94" y="111.25" type="line"/>
      <point x="217.84000000000003" y="241.56" type="line"/>
      <point x="320.19" y="111.88" type="line"/>
      <point x="391.84" y="183.7" type="line"/>
      <point x="291.07000000000005" y="314.62" type="line"/>
      <point x="391.66" y="446.55" type="line"/>
      <point x="320.01" y="518.37" type="line"/>
      <point x="217.84000000000003" y="388.03999999999996" type="line"/>
      <point x="115.85" y="518.55" type="line"/>
      <point x="44.2" y="446.72999999999996" type="line"/>
      <point x="144.86" y="314.62" type="line"/>
      <point x="44.290000000000006" y="183.07" type="line"/>
    </contour>
  </outline>
</glyph>
<glyph name="Oslash" format="2">
  <advance width="537.4"/>
  <unicode hex="00D8"/>
  <anchor x="268.35" y="700.0" name="top"/>
  <outline>
    <contour>
      <point x="113.25" y="-10.9" type="line"/>
      <point x="157.05" y="70.00000000000001" type="line"/>
      <point x="163.70000000000002" y="68.95000000000002" type="line"/>
      <point x="428.70000000000005" y="581.8000000000001" type="line"/>
      <point x="434.9" y="580.15" type="line"/>
      <point x="505.70000000000005" y="715.5" type="line"/>
      <point x="423.95000000000005" y="715.5" type="line"/>
      <point x="378.7" y="629.1999999999999" type="line"/>
      <point x="372.0" y="630.1999999999999" type="line"/>
      <point x="112.60000000000001" y="129.9" type="line"/>
      <point x="106.8" y="131.35" type="line"/>
      <point x="31.899999999999995" y="-10.9" type="line"/>
    </contour>
    <contour>
      <point x="268.35" y="89.75000000000001" type="curve" smooth="yes"/>
      <point x="192.95" y="89.75000000000001"/>
      <point x="144.6" y="138.95000000000002"/>
      <point x="144.6" y="349.45" type="curve" smooth="yes"/>
      <point x="144.6" y="562.0000000000001"/>
      <point x="193.05" y="610.25"/>
      <point x="268.35" y="610.25" type="curve" smooth="yes"/>
      <point x="344.20000000000005" y="610.25"/>
      <point x="393.05" y="562.6999999999999"/>
      <point x="393.05" y="350.09999999999997" type="curve" smooth="yes"/>
      <point x="393.05" y="138.4"/>
      <point x="344.1" y="89.75000000000001"/>
    </contour>
    <contour>
      <point x="268.25" y="-10.0" type="curve" smooth="yes"/>
      <point x="422.8" y="-10.0"/>
      <point x="510.1" y="71.80000000000001"/>
      <point x="510.1" y="351.65000000000003" type="curve" smooth="yes"/>
      <point x="510.1" y="628.4000000000001"/>
      <point x="424.00000000000006" y="710.0"/>
      <point x="268.35" y="710.0" type="curve" smooth="yes"/>
      <point x="112.59999999999998" y="710.0"/>
      <point x="27.5" y="627.2499999999999"/>
      <point x="27.5" y="349.34999999999997" type="curve" smooth="yes"/>
      <point x="27.5" y="72.85000000000001"/>
      <point x="114.30000000000001" y="-10.0"/>
    </contour>
  </outline>
</glyph>
<glyph name="Thorn" format="2">
  <advance width="501.94"/>
  <unicode hex="00DE"/>
  <outline>
    <contour>
      <point x="46.19" y="0.0" type="line"/>
      <point x="167.83" y="0.0" type="line"/>
      <point x="167.83" y="135.32999999999998" type="line"/>
      <point x="216.04000000000002" y="132.41000000000003"/>
      <point x="223.59" y="132.32"/>
      <point x="268.85" y="132.32" type="curve" smooth="yes"/>
      <point x="419.47" y="132.32"/>
      <point x="480.14000000000004" y="209.39"/>
      <point x="480.14000000000004" y="387.87" type="curve" smooth="yes"/>
      <point x="480.14000000000004" y="559.5000000000001"/>
      <point x="427.13" y="629.18"/>
      <point x="240.29000000000002" y="629.18" type="curve" smooth="yes"/>
      <point x="224.06" y="629.18"/>
      <point x="201.73999999999998" y="628.53"/>
      <point x="168.27000000000004" y="626.98" type="curve"/>
      <point x="168.27000000000004" y="700.0" type="line"/>
      <point x="46.19" y="700.0" type="line"/>
    </contour>
    <contour>
      <point x="239.17999999999998" y="241.20000000000002" type="curve" smooth="yes"/>
      <point x="213.79" y="241.20000000000002"/>
      <point x="198.27000000000004" y="241.58"/>
      <point x="168.27000000000004" y="243.53" type="curve"/>
      <point x="168.27000000000004" y="520.3299999999999" type="line"/>
      <point x="209.73000000000002" y="523.89"/>
      <point x="227.69" y="524.4300000000001"/>
      <point x="248.9" y="524.4300000000001" type="curve" smooth="yes"/>
      <point x="336.11" y="524.4300000000001"/>
      <point x="357.72999999999996" y="485.35999999999996"/>
      <point x="357.72999999999996" y="391.96" type="curve" smooth="yes"/>
      <point x="357.72999999999996" y="293.49"/>
      <point x="334.18" y="241.20000000000002"/>
    </contour>
  </outline>
</glyph>
<glyph name="germandbls" format="2">
  <advance width="573.26"/>
  <unicode hex="00DF"/>
  <outline>
    <contour>
      <point x="75.6" y="0.0" type="line"/>
      <point x="194.24" y="0.0" type="line"/>
      <point x="194.24" y="519.68" type="line" smooth="yes"/>
      <point x="194.24" y="606.88"/>
      <point x="234.04" y="647.64"/>
      <point x="315.5400000000001" y="647.64" type="curve" smooth="yes"/>
      <point x="378.62" y="647.64"/>
      <point x="401.50000000000006" y="628.5600000000001"/>
      <point x="401.50000000000006" y="590.6800000000001" type="curve" smooth="yes"/>
      <point x="401.50000000000006" y="561.6399999999999"/>
      <point x="390.76000000000005" y="546.84"/>
      <point x="341.8200000000001" y="519.1600000000001" type="curve" smooth="yes"/>
      <point x="281.88" y="488.53999999999996"/>
      <point x="250.82" y="448.53999999999996"/>
      <point x="250.82" y="384.74" type="curve" smooth="yes"/>
      <point x="250.82" y="298.34"/>
      <point x="284.52000000000004" y="260.87999999999994"/>
      <point x="379.8" y="224.56" type="curve" smooth="yes"/>
      <point x="440.74" y="197.74"/>
      <point x="459.28000000000003" y="183.3"/>
      <point x="459.28000000000003" y="148.78000000000003" type="curve" smooth="yes"/>
      <point x="459.28000000000003" y="110.1"/>
      <point x="427.4" y="88.46000000000001"/>
      <point x="373.6600000000001" y="88.46000000000001" type="curve" smooth="yes"/>
      <point x="325.64" y="88.46000000000001"/>
      <point x="285.8" y="98.54000000000002"/>
      <point x="244.84" y="111.22" type="curve"/>
      <point x="227.18" y="17.16" type="line"/>
      <point x="271.9" y="-1.1800000000000002"/>
      <point x="324.78" y="-9.98"/>
      <point x="378.74" y="-9.98" type="curve" smooth="yes"/>
      <point x="487.12" y="-9.98"/>
      <point x="569.5200000000001" y="43.5"/>
      <point x="569.5200000000001" y="156.52" type="curve" smooth="yes"/>
      <point x="569.5200000000001" y="240.58"/>
      <point x="530.8000000000001" y="284.56"/>
      <point x="434.6" y="319.72" type="curve" smooth="yes"/>
      <point x="375.59999999999997" y="343.52000000000004"/>
      <point x="361.34" y="362.64000000000004"/>
      <point x="361.34" y="392.6" type="curve" smooth="yes"/>
      <point x="361.34" y="420.72"/>
      <point x="378.5" y="433.0799999999999"/>
      <point x="417.0" y="453.96000000000004" type="curve" smooth="yes"/>
      <point x="490.74" y="492.86"/>
      <point x="521.0600000000001" y="526.9"/>
      <point x="521.0600000000001" y="592.5" type="curve" smooth="yes"/>
      <point x="521.0600000000001" y="695.28"/>
      <point x="449.15999999999997" y="750.0"/>
      <point x="311.04" y="750.0" type="curve" smooth="yes"/>
      <point x="158.04" y="750.0"/>
      <point x="75.5" y="672.7800000000001"/>
      <point x="75.6" y="536.9799999999999" type="curve" smooth="yes"/>
      <point x="75.6" y="503.86" type="line"/>
      <point x="12.04" y="495.49999999999994" type="line"/>
      <point x="12.04" y="409.26" type="line"/>
      <point x="75.6" y="409.26" type="line"/>
    </contour>
  </outline>
</glyph>
<glyph name="ae" format="2">
  <advance width="672.5649999999999"/>
  <unicode hex="00E6"/>
  <anchor x="339.955" y="541.0" name="top"/>
  <outline>
    <contour>
      <point x="145.61" y="-10.0" type="curve" smooth="yes"/>
      <point x="212.28499999999997" y="-10.0"/>
      <point x="262.80499999999995" y="18.025000000000002"/>
      <point x="313.055" y="65.64000000000001" type="curve"/>
      <point x="314.52500000000003" y="65.64000000000001" type="line"/>
      <point x="350.58" y="13.105"/>
      <point x="398.995" y="-10.0"/>
      <point x="476.32" y="-10.0" type="curve" smooth="yes"/>
      <point x="539.1949999999999" y="-10.0"/>
      <point x="591.7950000000001" y="0.15000000000000013"/>
      <point x="644.715" y="19.810000000000002" type="curve"/>
      <point x="628.4800000000001" y="118.75500000000001" type="line"/>
      <point x="584.6850000000001" y="106.44000000000001"/>
      <point x="533.1550000000001" y="97.89"/>
      <point x="494.04499999999996" y="97.89" type="curve" smooth="yes"/>
      <point x="419.96500000000003" y="97.89"/>
      <point x="389.025" y="126.46500000000002"/>
      <point x="387.985" y="227.225" type="curve" smooth="yes"/>
      <point x="387.515" y="231.69"/>
      <point x="387.515" y="237.23"/>
      <point x="387.975" y="240.515" type="curve"/>
      <point x="497.475" y="243.48999999999998"/>
      <point x="599.4549999999999" y="256.085"/>
      <point x="647.9" y="261.62499999999994" type="curve"/>
      <point x="648.2049999999999" y="274.995"/>
      <point x="649.225" y="293.345"/>
      <point x="649.225" y="308.64" type="curve" smooth="yes"/>
      <point x="649.225" y="479.73"/>
      <point x="591.6500000000001" y="551.0"/>
      <point x="465.865" y="551.0" type="curve" smooth="yes"/>
      <point x="409.23499999999996" y="551.0"/>
      <point x="364.515" y="528.315"/>
      <point x="334.04" y="476.18000000000006" type="curve"/>
      <point x="333.02000000000004" y="476.18000000000006" type="line"/>
      <point x="306.46" y="526.1999999999999"/>
      <point x="265.55999999999995" y="551.0"/>
      <point x="195.655" y="551.0" type="curve" smooth="yes"/>
      <point x="149.165" y="551.0"/>
      <point x="89.0" y="540.12"/>
      <point x="40.7" y="523.3000000000001" type="curve"/>
      <point x="63.14000000000001" y="420.76" type="line"/>
      <point x="113.41" y="436.345"/>
      <point x="157.335" y="440.14500000000004"/>
      <point x="186.335" y="440.14500000000004" type="curve" smooth="yes"/>
      <point x="239.17" y="440.14500000000004"/>
      <point x="265.76000000000005" y="416.385"/>
      <point x="265.76000000000005" y="373.665" type="curve" smooth="yes"/>
      <point x="265.76000000000005" y="322.91" type="line"/>
      <point x="89.98500000000001" y="302.175"/>
      <point x="15.034999999999998" y="258.76"/>
      <point x="15.034999999999998" y="139.27" type="curve" smooth="yes"/>
      <point x="15.034999999999998" y="44.73499999999999"/>
      <point x="64.575" y="-10.0"/>
    </contour>
    <contour>
      <point x="184.785" y="79.24000000000001" type="curve" smooth="yes"/>
      <point x="154.12" y="79.24000000000001"/>
      <point x="133.815" y="103.39999999999999"/>
      <point x="133.815" y="149.975" type="curve" smooth="yes"/>
      <point x="133.815" y="214.505"/>
      <point x="181.125" y="239.19"/>
      <point x="266.07499999999993" y="252.085" type="curve"/>
      <point x="266.09499999999997" y="242.19"/>
      <point x="266.09499999999997" y="231.035"/>
      <point x="266.09499999999997" y="220.92999999999998" type="curve" smooth="yes"/>
      <point x="266.09499999999997" y="183.79"/>
      <point x="268.5" y="152.55499999999998"/>
      <point x="272.42499999999995" y="127.27000000000001" type="curve"/>
      <point x="251.27" y="101.47"/>
      <point x="215.76500000000001" y="79.24000000000001"/>
    </contour>
    <contour>
      <point x="387.375" y="312.73499999999996" type="curve"/>
      <point x="387.15999999999997" y="425.775"/>
      <point x="420.03999999999996" y="459.205"/>
      <point x="459.59999999999997" y="459.205" type="curve" smooth="yes"/>
      <point x="505.00499999999994" y="459.205"/>
      <point x="526.6750000000001" y="419.365"/>
      <point x="529.425" y="322.21" type="curve"/>
      <point x="505.225" y="318.59999999999997"/>
      <point x="444.925" y="312.755"/>
    </contour>
  </outline>
</glyph>
<glyph name="eth" format="2">
  <advance width="451.75"/>
  <unicode hex="00F0"/>
  <outline>
    <contour>
      <point x="326.8" y="427.65000000000003" type="curve"/>
      <point x="332.15" y="511.90000000000003" type="line"/>
      <point x="300.4" y="529.6"/>
      <point x="264.7" y="536.75"/>
      <point x="223.9" y="536.75" type="curve" smooth="yes"/>
      <point x="81.75" y="536.75"/>
      <point x="24.849999999999998" y="446.25000000000006"/>
      <point x="24.849999999999998" y="252.3" type="curve" smooth="yes"/>
      <point x="24.849999999999998" y="70.05"/>
      <point x="85.85" y="-10.0"/>
      <point x="216.80000000000004" y="-10.0" type="curve" smooth="yes"/>
      <point x="373.8" y="-10.0"/>
      <point x="427.70000000000005" y="77.55"/>
      <point x="427.70000000000005" y="343.1" type="curve" smooth="yes"/>
      <point x="427.70000000000005" y="613.05"/>
      <point x="345.35" y="733.8"/>
      <point x="165.65" y="733.8" type="curve" smooth="yes"/>
      <point x="118.55" y="733.8"/>
      <point x="75.55" y="725.2"/>
      <point x="30.65" y="711.7499999999999" type="curve"/>
      <point x="44.15" y="633.1500000000001" type="line"/>
      <point x="79.39999999999999" y="642.6"/>
      <point x="106.39999999999999" y="649.35"/>
      <point x="139.85" y="649.35" type="curve" smooth="yes"/>
      <point x="270.3" y="649.35"/>
      <point x="310.29999999999995" y="584.85"/>
      <point x="310.29999999999995" y="354.2" type="curve" smooth="yes"/>
      <point x="310.29999999999995" y="125.75"/>
      <point x="288.25" y="79.0"/>
      <point x="225.20000000000002" y="79.0" type="curve" smooth="yes"/>
      <point x="168.79999999999998" y="79.0"/>
      <point x="145.55" y="122.90000000000002"/>
      <point x="145.55" y="252.9" type="curve" smooth="yes"/>
      <point x="145.55" y="407.55"/>
      <point x="175.3" y="450.45000000000005"/>
      <point x="243.65000000000003" y="450.45000000000005" type="curve" smooth="yes"/>
      <point x="272.4" y="450.45000000000005"/>
      <point x="300.9" y="444.4"/>
    </contour>
    <contour>
      <point x="157.9" y="556.3000000000001" type="line"/>
      <point x="286.6" y="638.6999999999999" type="line"/>
      <point x="290.90000000000003" y="646.25" type="line"/>
      <point x="423.3" y="736.9499999999999" type="line"/>
      <point x="323.20000000000005" y="737.05" type="line"/>
      <point x="245.04999999999998" y="684.7" type="line"/>
      <point x="243.39999999999995" y="679.3" type="line"/>
      <point x="57.89999999999999" y="556.4" type="line"/>
    </contour>
  </outline>
</glyph>
<glyph name="divide" format="2">
  <advance width="454.69"/>
  <unicode hex="00F7"/>
  <outline>
    <contour>
      <point x="167.49" y="132.38000000000002" type="curve" smooth="yes"/>
      <point x="167.49" y="92.85"/>
      <point x="184.38" y="75.89999999999999"/>
      <point x="227.57" y="75.89999999999999" type="curve" smooth="yes"/>
      <point x="270.7" y="75.89999999999999"/>
      <point x="287.67" y="92.85"/>
      <point x="287.67" y="132.38000000000002" type="curve" smooth="yes"/>
      <point x="287.67" y="171.58"/>
      <point x="270.70000000000005" y="188.98000000000002"/>
      <point x="227.57" y="188.98000000000002" type="curve" smooth="yes"/>
      <point x="183.92999999999998" y="188.98000000000002"/>
      <point x="167.49" y="171.58"/>
    </contour>
    <contour>
      <point x="167.49" y="488.37999999999994" type="curve" smooth="yes"/>
      <point x="167.49" y="449.29999999999995"/>
      <point x="184.38" y="432.34999999999997"/>
      <point x="227.57" y="432.34999999999997" type="curve" smooth="yes"/>
      <point x="270.7" y="432.34999999999997"/>
      <point x="287.67" y="449.29999999999995"/>
      <point x="287.67" y="488.37999999999994" type="curve" smooth="yes"/>
      <point x="287.67" y="528.48"/>
      <point x="270.7" y="545.43"/>
      <point x="227.57" y="545.43" type="curve" smooth="yes"/>
      <point x="183.92999999999998" y="545.43"/>
      <point x="167.49" y="528.48"/>
    </contour>
    <contour>
      <point x="45.059999999999995" y="259.75" type="line"/>
      <point x="410.08" y="259.75" type="line"/>
      <point x="410.08" y="362.1499999999999" type="line"/>
      <point x="45.059999999999995" y="362.1499999999999" type="line"/>
    </contour>
  </outline>
</glyph>
<glyph name="oslash" format="2">
  <advance width="459.15000000000003"/>
  <unicode hex="00F8"/>
  <anchor x="228.10000000000002" y="541.0" name="top"/>
  <outline>
    <contour>
      <point x="228.10000000000002" y="-10.0" type="curve" smooth="yes"/>
      <point x="72.5" y="-10.0"/>
      <point x="24.4" y="87.39999999999999"/>
      <point x="24.4" y="271.55" type="curve" smooth="yes"/>
      <point x="24.4" y="453.15000000000003"/>
      <point x="68.55" y="551.0"/>
      <point x="228.10000000000002" y="551.0" type="curve" smooth="yes"/>
      <point x="387.25" y="551.0"/>
      <point x="432.40000000000003" y="453.15000000000003"/>
      <point x="432.40000000000003" y="271.55" type="curve" smooth="yes"/>
      <point x="432.40000000000003" y="87.39999999999999"/>
      <point x="383.75" y="-10.0"/>
    </contour>
    <contour>
      <point x="228.55" y="84.2" type="curve" smooth="yes"/>
      <point x="292.75" y="84.2"/>
      <point x="316.45" y="120.55000000000001"/>
      <point x="316.45" y="271.55" type="curve" smooth="yes"/>
      <point x="316.45" y="420.5"/>
      <point x="294.9" y="457.34999999999997"/>
      <point x="228.55" y="457.34999999999997" type="curve" smooth="yes"/>
      <point x="161.15" y="457.34999999999997"/>
      <point x="140.25000000000003" y="420.5"/>
      <point x="140.25000000000003" y="271.55" type="curve" smooth="yes"/>
      <point x="140.25000000000003" y="120.55000000000001"/>
      <point x="163.75000000000003" y="84.2"/>
    </contour>
    <contour>
      <point x="23.25" y="-5.399999999999999" type="line"/>
      <point x="95.5" y="120.7" type="line"/>
      <point x="98.9" y="119.35" type="line"/>
      <point x="313.70000000000005" y="485.84999999999997" type="line"/>
      <point x="318.0" y="484.5" type="line"/>
      <point x="357.90000000000003" y="551.0" type="line"/>
      <point x="433.54999999999995" y="551.0" type="line"/>
      <point x="363.54999999999995" y="433.7" type="line"/>
      <point x="359.7" y="435.05" type="line"/>
      <point x="144.2" y="64.85" type="line"/>
      <point x="139.9" y="66.2" type="line"/>
      <point x="97.9" y="-5.399999999999999" type="line"/>
    </contour>
  </outline>
</glyph>
<glyph name="thorn" format="2">
  <advance width="454.44"/>
  <unicode hex="00FE"/>
  <outline>
    <contour>
      <point x="41.3" y="-210.0" type="line"/>
      <point x="159.53" y="-210.0" type="line"/>
      <point x="159.53" y="-4.45" type="line"/>
      <point x="179.32000000000002" y="-8.36"/>
      <point x="197.96999999999997" y="-10.0"/>
      <point x="215.44000000000003" y="-10.0" type="curve" smooth="yes"/>
      <point x="369.11" y="-10.0"/>
      <point x="429.75" y="71.11"/>
      <point x="429.75" y="283.26" type="curve" smooth="yes"/>
      <point x="429.75" y="461.62"/>
      <point x="375.59999999999997" y="551.0"/>
      <point x="268.81" y="551.0" type="curve" smooth="yes"/>
      <point x="234.34" y="551.0"/>
      <point x="192.84000000000003" y="539.6899999999999"/>
      <point x="160.41" y="522.87" type="curve"/>
      <point x="160.41" y="740.0" type="line"/>
      <point x="41.3" y="740.0" type="line"/>
    </contour>
    <contour>
      <point x="215.73000000000002" y="81.98" type="curve" smooth="yes"/>
      <point x="200.11999999999998" y="81.98"/>
      <point x="183.29000000000002" y="84.5"/>
      <point x="160.74" y="90.35000000000001" type="curve"/>
      <point x="160.74" y="428.64" type="line"/>
      <point x="185.47" y="440.12"/>
      <point x="204.98000000000002" y="444.69"/>
      <point x="226.23000000000002" y="444.69" type="curve" smooth="yes"/>
      <point x="279.43" y="444.69"/>
      <point x="305.47" y="394.54"/>
      <point x="305.47" y="272.48" type="curve" smooth="yes"/>
      <point x="305.47" y="125.54999999999998"/>
      <point x="280.49" y="81.98"/>
    </contour>
  </outline>
</glyph>
<glyph name="Dcroat" format="2">
  <advance width="527.3150000000002"/>
  <unicode hex="0110"/>
  <outline>
    <contour>
      <point x="3.3900000000000006" y="303.85999999999996" type="line"/>
      <point x="261.15500000000003" y="303.85999999999996" type="line"/>
      <point x="261.15500000000003" y="405.425" type="line"/>
      <point x="3.3900000000000006" y="405.425" type="line"/>
    </contour>
    <component base="D" xOffset="3.0849999999999995"/>
  </outline>
</glyph>
<glyph name="dcroat" format="2">
  <advance width="459.66499999999996"/>
  <unicode hex="0111"/>
  <outline>
    <contour>
      <point x="182.27999999999997" y="608.425" type="line"/>
      <point x="466.125" y="608.425" type="line"/>
      <point x="466.125" y="678.675" type="line"/>
      <point x="182.27999999999997" y="678.675" type="line"/>
    </contour>
    <component base="d"/>
  </outline>
</glyph>
<glyph name="Hbar" format="2">
  <advance width="534.7600000000001"/>
  <unicode hex="0126"/>
  <outline>
    <contour>
      <point x="10.08" y="500.78000000000003" type="line"/>
      <point x="46.38" y="500.78000000000003" type="line"/>
      <point x="46.38" y="0.0" type="line"/>
      <point x="167.57999999999998" y="0.0" type="line"/>
      <point x="167.57999999999998" y="254.48000000000005" type="line"/>
      <point x="368.28000000000003" y="254.48000000000005" type="line"/>
      <point x="368.28000000000003" y="0.0" type="line"/>
      <point x="488.38000000000005" y="0.0" type="line"/>
      <point x="488.38000000000005" y="500.78000000000003" type="line"/>
      <point x="524.68" y="500.78000000000003" type="line"/>
      <point x="524.68" y="591.12" type="line"/>
      <point x="488.38000000000005" y="591.12" type="line"/>
      <point x="488.38000000000005" y="700.0" type="line"/>
      <point x="368.28000000000003" y="700.0" type="line"/>
      <point x="368.28000000000003" y="591.12" type="line"/>
      <point x="167.57999999999998" y="591.12" type="line"/>
      <point x="167.57999999999998" y="700.0" type="line"/>
      <point x="46.38" y="700.0" type="line"/>
      <point x="46.38" y="591.12" type="line"/>
      <point x="10.08" y="591.12" type="line"/>
    </contour>
    <contour>
      <point x="167.57999999999998" y="370.91999999999996" type="line"/>
      <point x="167.57999999999998" y="500.78000000000003" type="line"/>
      <point x="368.28000000000003" y="500.78000000000003" type="line"/>
      <point x="368.28000000000003" y="370.91999999999996" type="line"/>
    </contour>
  </outline>
</glyph>
<glyph name="hbar" format="2">
  <advance width="455.8949999999999"/>
  <unicode hex="0127"/>
  <outline>
    <contour>
      <point x="-4.585000000000001" y="608.425" type="line"/>
      <point x="275.575" y="608.425" type="line"/>
      <point x="275.575" y="678.675" type="line"/>
      <point x="-4.585000000000001" y="678.675" type="line"/>
    </contour>
    <component base="h"/>
  </outline>
</glyph>
<glyph name="Idotaccent" format="2">
  <advance width="213.58"/>
  <unicode hex="0130"/>
  <outline>
    <contour>
      <point x="107.45" y="761.41" type="curve" smooth="yes"/>
      <point x="156.39000000000001" y="761.41"/>
      <point x="176.94000000000003" y="782.3199999999999"/>
      <point x="176.94000000000003" y="829.56" type="curve" smooth="yes"/>
      <point x="176.94000000000003" y="877.6800000000001"/>
      <point x="155.51" y="898.1500000000001"/>
      <point x="107.45" y="898.1500000000001" type="curve" smooth="yes"/>
      <point x="58.95000000000001" y="898.1500000000001"/>
      <point x="37.52" y="877.6800000000001"/>
      <point x="37.52" y="829.56" type="curve" smooth="yes"/>
      <point x="37.52" y="781.88"/>
      <point x="59.4" y="761.41"/>
    </contour>
    <component base="I"/>
  </outline>
</glyph>
<glyph name="dotlessi" format="2">
  <advance width="202.92000000000002"/>
  <unicode hex="0131"/>
  <anchor x="156.47" y="5.5" name="ogonek"/>
  <anchor x="102.34000000000002" y="0.0" name="bottom"/>
  <anchor x="101.46000000000001" y="541.0" name="top"/>
  <outline>
    <contour>
      <point x="41.3" y="0.0" type="line"/>
      <point x="161.62" y="0.0" type="line"/>
      <point x="161.62" y="541.0" type="line"/>
      <point x="41.3" y="541.0" type="line"/>
    </contour>
  </outline>
</glyph>
<glyph name="kgreenlandic" format="2">
  <advance width="433.3"/>
  <unicode hex="0138"/>
  <anchor x="221.3" y="541.0" name="top"/>
  <anchor x="221.3" y="0.0" name="bottom"/>
  <outline>
    <contour>
      <point x="395.20000000000005" y="-8.75" type="curve" smooth="yes"/>
      <point x="407.0" y="-8.75"/>
      <point x="417.40000000000003" y="-7.749999999999999"/>
      <point x="428.05" y="-5.1499999999999995" type="curve"/>
      <point x="426.65000000000003" y="119.9" type="line"/>
      <point x="422.25" y="119.9"/>
      <point x="418.0" y="119.0"/>
      <point x="414.6" y="119.0" type="curve" smooth="yes"/>
      <point x="386.95" y="119.0"/>
      <point x="363.25" y="135.70000000000002"/>
      <point x="285.84999999999997" y="232.75" type="curve" smooth="yes"/>
      <point x="153.1" y="399.7" type="line"/>
      <point x="153.1" y="541.0" type="line"/>
      <point x="42.2" y="541.0" type="line"/>
      <point x="42.2" y="0.0" type="line"/>
      <point x="153.1" y="0.0" type="line"/>
      <point x="153.1" y="222.7" type="line"/>
      <point x="256.2" y="94.8" type="line" smooth="yes"/>
      <point x="327.55" y="5.4"/>
      <point x="353.4" y="-8.75"/>
    </contour>
    <contour>
      <point x="240.00000000000003" y="230.1" type="line"/>
      <point x="312.85" y="316.45"/>
      <point x="393.15" y="422.55"/>
      <point x="417.1" y="535.6000000000001" type="curve"/>
      <point x="301.8" y="544.35" type="line"/>
      <point x="282.55000000000007" y="436.25"/>
      <point x="227.05" y="370.45"/>
      <point x="157.64999999999998" y="293.85" type="curve"/>
    </contour>
  </outline>
</glyph>
<glyph name="Ldot" format="2">
  <advance width="411.1500000000001"/>
  <unicode hex="013F"/>
  <outline>
    <contour>
      <point x="261.04" y="386.23999999999995" type="curve" smooth="yes"/>
      <point x="261.04" y="348.78999999999996"/>
      <point x="274.45" y="333.05"/>
      <point x="311.5" y="333.05" type="curve" smooth="yes"/>
      <point x="349.44" y="333.05"/>
      <point x="362.40000000000003" y="348.78999999999996"/>
      <point x="362.40000000000003" y="386.23999999999995" type="curve" smooth="yes"/>
      <point x="362.40000000000003" y="424.23999999999995"/>
      <point x="349.44" y="439.97999999999996"/>
      <point x="311.5" y="439.97999999999996" type="curve" smooth="yes"/>
      <point x="274.00000000000006" y="439.97999999999996"/>
      <point x="261.04" y="424.23999999999995"/>
    </contour>
    <component base="L"/>
  </outline>
</glyph>
<glyph name="ldot" format="2">
  <advance width="300.84999999999997"/>
  <unicode hex="0140"/>
  <outline>
    <contour>
      <point x="253.65" y="322.64" type="curve" smooth="yes"/>
      <point x="282.9" y="322.64"/>
      <point x="295.96999999999997" y="336.18"/>
      <point x="295.96999999999997" y="372.97" type="curve" smooth="yes"/>
      <point x="295.96999999999997" y="410.2"/>
      <point x="282.9" y="423.74"/>
      <point x="253.65" y="423.74" type="curve" smooth="yes"/>
      <point x="224.83999999999997" y="423.74"/>
      <point x="211.77" y="410.2"/>
      <point x="211.77" y="372.97" type="curve" smooth="yes"/>
      <point x="211.77" y="336.18"/>
      <point x="225.28999999999996" y="322.64"/>
    </contour>
    <component base="l"/>
  </outline>
</glyph>
<glyph name="Lslash" format="2">
  <advance width="427.27"/>
  <unicode hex="0141"/>
  <outline>
    <contour>
      <point x="13.4" y="201.1" type="line"/>
      <point x="62.309999999999995" y="234.85" type="line"/>
      <point x="62.309999999999995" y="0.0" type="line"/>
      <point x="414.97" y="0.0" type="line"/>
      <point x="414.97" y="113.36000000000001" type="line"/>
      <point x="183.95000000000002" y="113.36000000000001" type="line"/>
      <point x="183.95000000000002" y="297.32" type="line"/>
      <point x="331.23" y="394.1" type="line"/>
      <point x="331.23" y="507.26" type="line"/>
      <point x="183.95000000000002" y="410.84000000000003" type="line"/>
      <point x="183.95000000000002" y="700.0" type="line"/>
      <point x="62.309999999999995" y="700.0" type="line"/>
      <point x="62.309999999999995" y="348.37" type="line"/>
      <point x="13.4" y="314.62" type="line"/>
    </contour>
  </outline>
</glyph>
<glyph name="lslash" format="2">
  <advance width="257.73"/>
  <unicode hex="0142"/>
  <outline>
    <contour>
      <point x="166.39000000000001" y="-10.0" type="curve" smooth="yes"/>
      <point x="198.88" y="-10.0"/>
      <point x="230.73000000000002" y="-0.8599999999999994"/>
      <point x="253.39000000000001" y="9.16" type="curve"/>
      <point x="243.45" y="116.14" type="line"/>
      <point x="227.73999999999998" y="112.28000000000002"/>
      <point x="214.93" y="110.21000000000001"/>
      <point x="204.78" y="110.21000000000001" type="curve" smooth="yes"/>
      <point x="182.51999999999998" y="110.21000000000001"/>
      <point x="167.12" y="121.23000000000002"/>
      <point x="167.12" y="182.60999999999999" type="curve" smooth="yes"/>
      <point x="167.12" y="317.59999999999997" type="line"/>
      <point x="240.70000000000002" y="379.71" type="line"/>
      <point x="240.70000000000002" y="479.7" type="line"/>
      <point x="167.12" y="417.59" type="line"/>
      <point x="167.12" y="740.0" type="line"/>
      <point x="48.12" y="740.0" type="line"/>
      <point x="48.12" y="326.94" type="line"/>
      <point x="4.079999999999999" y="289.51000000000005" type="line"/>
      <point x="4.079999999999999" y="189.88" type="line"/>
      <point x="48.339999999999996" y="227.06" type="line"/>
      <point x="48.559999999999995" y="152.57999999999998" type="line" smooth="yes"/>
      <point x="50.43" y="28.12"/>
      <point x="89.10000000000001" y="-10.0"/>
    </contour>
  </outline>
</glyph>
<glyph name="Eng" format="2">
  <advance width="532.2"/>
  <unicode hex="014A"/>
  <outline>
    <contour>
      <point x="46.225" y="0.0" type="line"/>
      <point x="154.5" y="0.0" type="line"/>
      <point x="154.5" y="457.475" type="line"/>
      <point x="369.72499999999997" y="0.6999999999999993" type="line"/>
      <point x="369.72499999999997" y="-8.6" type="line" smooth="yes"/>
      <point x="369.275" y="-53.324999999999996"/>
      <point x="341.15000000000003" y="-72.55"/>
      <point x="293.075" y="-72.55" type="curve" smooth="yes"/>
      <point x="276.85" y="-72.55"/>
      <point x="257.95" y="-70.875"/>
      <point x="237.625" y="-64.8" type="curve"/>
      <point x="217.925" y="-167.4" type="line"/>
      <point x="244.3" y="-178.375"/>
      <point x="275.8" y="-186.92499999999998"/>
      <point x="316.45" y="-186.92499999999998" type="curve" smooth="yes"/>
      <point x="428.0" y="-186.92499999999998"/>
      <point x="485.975" y="-125.45000000000002"/>
      <point x="485.975" y="-12.75" type="curve" smooth="yes"/>
      <point x="485.975" y="700.0" type="line"/>
      <point x="378.25" y="700.0" type="line"/>
      <point x="378.25" y="231.32500000000002" type="line"/>
      <point x="166.52500000000003" y="700.9" type="line"/>
      <point x="46.225" y="700.9" type="line"/>
    </contour>
  </outline>
</glyph>
<glyph name="eng" format="2">
  <advance width="455.93000000000006"/>
  <unicode hex="014B"/>
  <outline>
    <contour>
      <point x="415.50999999999993" y="20.25" type="curve"/>
      <point x="415.50999999999993" y="418.89" type="line" smooth="yes"/>
      <point x="415.50999999999993" y="502.54"/>
      <point x="372.26" y="551.0"/>
      <point x="291.58" y="551.0" type="curve" smooth="yes"/>
      <point x="238.98999999999998" y="551.0"/>
      <point x="194.43" y="533.58"/>
      <point x="149.85" y="504.62" type="curve"/>
      <point x="149.85" y="541.0" type="line"/>
      <point x="41.3" y="541.0" type="line"/>
      <point x="41.3" y="0.0" type="line"/>
      <point x="160.74" y="0.0" type="line"/>
      <point x="160.74" y="418.71999999999997" type="line"/>
      <point x="186.09000000000003" y="432.72"/>
      <point x="212.57" y="443.39000000000004"/>
      <point x="239.89" y="443.39000000000004" type="curve" smooth="yes"/>
      <point x="277.14" y="443.39000000000004"/>
      <point x="296.07" y="421.95"/>
      <point x="296.07" y="380.60999999999996" type="curve" smooth="yes"/>
      <point x="296.07" y="17.689999999999998" type="line" smooth="yes"/>
      <point x="296.07" y="-40.78999999999999"/>
      <point x="283.19" y="-73.88999999999999"/>
      <point x="258.79" y="-88.28999999999998" type="curve" smooth="yes"/>
      <point x="253.34000000000003" y="-90.62999999999998"/>
      <point x="246.13" y="-91.85999999999999"/>
      <point x="240.23" y="-92.64" type="curve"/>
      <point x="238.76000000000002" y="-210.71" type="line"/>
      <point x="254.70999999999998" y="-211.41"/>
      <point x="270.96000000000004" y="-209.92"/>
      <point x="289.01" y="-207.22" type="curve" smooth="yes"/>
      <point x="368.21" y="-190.75"/>
      <point x="415.50999999999993" y="-110.67999999999999"/>
    </contour>
  </outline>
</glyph>
<glyph name="OE" format="2">
  <advance width="755.5899999999999"/>
  <unicode hex="0152"/>
  <outline>
    <contour>
      <point x="736.8949999999999" y="0.0" type="line"/>
      <point x="736.8949999999999" y="113.29" type="line"/>
      <point x="478.57000000000005" y="113.29" type="line"/>
      <point x="478.57000000000005" y="302.415" type="line"/>
      <point x="700.78" y="302.415" type="line"/>
      <point x="700.78" y="411.705" type="line"/>
      <point x="478.57000000000005" y="411.705" type="line"/>
      <point x="478.57000000000005" y="585.6350000000001" type="line"/>
      <point x="722.6099999999999" y="585.6350000000001" type="line"/>
      <point x="722.6099999999999" y="700.0" type="line"/>
      <point x="456.265" y="700.0" type="line"/>
      <point x="399.63" y="705.445"/>
      <point x="343.11" y="707.75"/>
      <point x="285.835" y="707.75" type="curve" smooth="yes"/>
      <point x="111.46000000000001" y="707.75"/>
      <point x="26.414999999999996" y="613.8299999999999"/>
      <point x="26.414999999999996" y="353.14" type="curve" smooth="yes"/>
      <point x="26.414999999999996" y="69.53"/>
      <point x="121.48499999999999" y="-8.65"/>
      <point x="287.165" y="-8.65" type="curve" smooth="yes"/>
      <point x="346.33500000000004" y="-8.65"/>
      <point x="409.155" y="-6.465"/>
      <point x="478.265" y="0.0" type="curve"/>
    </contour>
    <contour>
      <point x="356.56999999999994" y="101.25500000000001" type="line"/>
      <point x="338.495" y="99.25500000000001"/>
      <point x="309.47" y="97.03000000000002"/>
      <point x="281.19500000000005" y="97.03000000000002" type="curve" smooth="yes"/>
      <point x="204.665" y="97.03000000000002"/>
      <point x="152.55" y="145.35500000000002"/>
      <point x="152.55" y="350.96" type="curve" smooth="yes"/>
      <point x="152.55" y="557.195"/>
      <point x="204.16" y="602.115"/>
      <point x="280.235" y="602.115" type="curve" smooth="yes"/>
      <point x="302.475" y="602.115"/>
      <point x="335.635" y="599.4200000000001"/>
      <point x="356.56999999999994" y="597.42" type="curve"/>
    </contour>
  </outline>
</glyph>
